<svg width="480" height="320" xmlns="http://www.w3.org/2000/svg" viewBox="0 0 480 320">
  <!-- Background -->
  <rect width="480" height="320" fill="#08081a"/>
  
  <!-- Stars -->
  <rect x="30" y="12" width="2" height="2" fill="#00fff2" opacity="0.7"/>
  <rect x="90" y="28" width="2" height="2" fill="#fff" opacity="0.5"/>
  <rect x="150" y="8" width="2" height="2" fill="#00fff2" opacity="0.6"/>
  <rect x="210" y="20" width="2" height="2" fill="#fff" opacity="0.4"/>
  <rect x="300" y="15" width="2" height="2" fill="#00fff2" opacity="0.8"/>
  <rect x="370" y="10" width="2" height="2" fill="#fff" opacity="0.5"/>
  <rect x="420" y="25" width="2" height="2" fill="#00fff2" opacity="0.6"/>
  <rect x="460" y="8" width="2" height="2" fill="#fff" opacity="0.3"/>
  <rect x="55" y="40" width="2" height="2" fill="#fff" opacity="0.4"/>
  <rect x="250" y="5" width="2" height="2" fill="#8844aa" opacity="0.6"/>
  <rect x="340" y="35" width="2" height="2" fill="#fff" opacity="0.3"/>

  <!-- Victoria Harbour city lights background -->
  <!-- Distant buildings silhouette -->
  <rect x="0" y="140" width="480" height="40" fill="#0c0c28"/>
  <rect x="10" y="120" width="16" height="60" fill="#0e0e30"/>
  <rect x="30" y="130" width="12" height="50" fill="#0e0e30"/>
  <rect x="50" y="110" width="20" height="70" fill="#0e0e30"/>
  <rect x="80" y="125" width="14" height="55" fill="#0e0e30"/>
  <rect x="100" y="100" width="18" height="80" fill="#0e0e30"/>
  <rect x="125" y="115" width="12" height="65" fill="#0e0e30"/>
  <rect x="145" y="105" width="22" height="75" fill="#0e0e30"/>
  <rect x="175" y="120" width="16" height="60" fill="#0e0e30"/>
  <rect x="200" y="95" width="24" height="85" fill="#0e0e30"/>
  <rect x="230" y="110" width="14" height="70" fill="#0e0e30"/>
  <rect x="250" y="100" width="20" height="80" fill="#0e0e30"/>
  <rect x="280" y="118" width="16" height="62" fill="#0e0e30"/>
  <rect x="305" y="108" width="18" height="72" fill="#0e0e30"/>
  <rect x="330" y="125" width="14" height="55" fill="#0e0e30"/>
  <rect x="350" y="98" width="22" height="82" fill="#0e0e30"/>
  <rect x="380" y="115" width="16" height="65" fill="#0e0e30"/>
  <rect x="405" y="105" width="20" height="75" fill="#0e0e30"/>
  <rect x="430" y="120" width="14" height="60" fill="#0e0e30"/>
  <rect x="450" y="112" width="18" height="68" fill="#0e0e30"/>
  
  <!-- City window lights -->
  <rect x="54" y="116" width="4" height="4" fill="#00fff2" opacity="0.5"/>
  <rect x="62" y="122" width="4" height="4" fill="#8844aa" opacity="0.4"/>
  <rect x="104" y="108" width="4" height="4" fill="#00fff2" opacity="0.6"/>
  <rect x="110" y="118" width="4" height="4" fill="#8844aa" opacity="0.5"/>
  <rect x="150" y="112" width="4" height="4" fill="#00fff2" opacity="0.4"/>
  <rect x="158" y="120" width="4" height="4" fill="#2a6090" opacity="0.6"/>
  <rect x="206" y="102" width="4" height="4" fill="#00fff2" opacity="0.5"/>
  <rect x="214" y="112" width="4" height="4" fill="#8844aa" opacity="0.4"/>
  <rect x="254" y="108" width="4" height="4" fill="#00fff2" opacity="0.6"/>
  <rect x="262" y="118" width="4" height="4" fill="#2a6090" opacity="0.5"/>
  <rect x="354" y="106" width="4" height="4" fill="#00fff2" opacity="0.5"/>
  <rect x="362" y="114" width="4" height="4" fill="#8844aa" opacity="0.4"/>
  <rect x="410" y="112" width="4" height="4" fill="#00fff2" opacity="0.6"/>
  <rect x="418" y="122" width="4" height="4" fill="#2a6090" opacity="0.5"/>
  
  <!-- Water reflection line -->
  <rect x="0" y="178" width="480" height="2" fill="#00fff2" opacity="0.15"/>
  <rect x="20" y="180" width="40" height="1" fill="#00fff2" opacity="0.08"/>
  <rect x="100" y="180" width="60" height="1" fill="#8844aa" opacity="0.06"/>
  <rect x="200" y="180" width="50" height="1" fill="#00fff2" opacity="0.08"/>
  <rect x="320" y="180" width="40" height="1" fill="#8844aa" opacity="0.06"/>
  
  <!-- Airplane in sky -->
  <!-- Fuselage -->
  <rect x="60" y="50" width="48" height="8" fill="#2a6090"/>
  <rect x="56" y="52" width="4" height="4" fill="#2a6090"/>
  <rect x="108" y="52" width="8" height="4" fill="#1a4060"/>
  <!-- Nose -->
  <rect x="116" y="54" width="4" height="2" fill="#2a6090"/>
  <!-- Wings -->
  <rect x="76" y="44" width="16" height="4" fill="#1a4060"/>
  <rect x="76" y="60" width="16" height="4" fill="#1a4060"/>
  <!-- Tail -->
  <rect x="56" y="44" width="4" height="8" fill="#1a4060"/>
  <rect x="52" y="42" width="8" height="4" fill="#2a6090"/>
  <!-- Window lights -->
  <rect x="68" y="52" width="2" height="2" fill="#00fff2" opacity="0.8"/>
  <rect x="74" y="52" width="2" height="2" fill="#00fff2" opacity="0.7"/>
  <rect x="80" y="52" width="2" height="2" fill="#00fff2" opacity="0.8"/>
  <rect x="86" y="52" width="2" height="2" fill="#00fff2" opacity="0.7"/>
  <rect x="92" y="52" width="2" height="2" fill="#00fff2" opacity="0.8"/>
  <rect x="98" y="52" width="2" height="2" fill="#00fff2" opacity="0.7"/>
  <!-- Engine glow -->
  <rect x="50" y="54" width="4" height="2" fill="#8844aa" opacity="0.6"/>
  <rect x="46" y="54" width="4" height="2" fill="#8844aa" opacity="0.3"/>
  
  <!-- Airport terminal building -->
  <rect x="120" y="190" width="240" height="70" fill="#12123a"/>
  <rect x="116" y="188" width="248" height="4" fill="#1a1a4a"/>
  <!-- Terminal roof -->
  <rect x="160" y="184" width="160" height="6" fill="#1a1a4a"/>
  <rect x="200" y="180" width="80" height="6" fill="#2a6090"/>
  <!-- Control tower -->
  <rect x="330" y="160" width="20" height="30" fill="#12123a"/>
  <rect x="326" y="156" width="28" height="6" fill="#1a1a4a"/>
  <rect x="334" y="164" width="12" height="4" fill="#00fff2" opacity="0.7"/>
  <rect x="334" y="170" width="12" height="4" fill="#00fff2" opacity="0.5"/>
  <!-- Terminal windows row 1 -->
  <rect x="130" y="198" width="8" height="6" fill="#00fff2" opacity="0.6"/>
  <rect x="144" y="198" width="8" height="6" fill="#00fff2" opacity="0.5"/>
  <rect x="158" y="198" width="8" height="6" fill="#00fff2" opacity="0.7"/>
  <rect x="172" y="198" width="8" height="6" fill="#00fff2" opacity="0.5"/>
  <rect x="186" y="198" width="8" height="6" fill="#00fff2" opacity="0.6"/>
  <rect x="200" y="198" width="8" height="6" fill="#8844aa" opacity="0.5"/>
  <rect x="214" y="198" width="8" height="6" fill="#00fff2" opacity="0.7"/>
  <rect x="228" y="198" width="8" height="6" fill="#00fff2" opacity="0.5"/>
  <rect x="242" y="198" width="8" height="6" fill="#00fff2" opacity="0.6"/>
  <rect x="256" y="198" width="8" height="6" fill="#00fff2" opacity="0.5"/>
  <rect x="270" y="198" width="8" height="6" fill="#8844aa" opacity="0.4"/>
  <rect x="284" y="198" width="8" height="6" fill="#00fff2" opacity="0.6"/>
  <rect x="298" y="198" width="8" height="6" fill="#00fff2" opacity="0.5"/>
  <rect x="312" y="198" width="8" height="6" fill="#00fff2" opacity="0.7"/>
  <!-- Terminal windows row 2 -->
  <rect x="130" y="212" width="8" height="6" fill="#2a6090" opacity="0.5"/>
  <rect x="144" y="212" width="8" height="6" fill="#2a6090" opacity="0.4"/>
  <rect x="158" y="212" width="8" height="6" fill="#2a6090" opacity="0.6"/>
  <rect x="172" y="212" width="8" height="6" fill="#2a6090" opacity="0.5"/>
  <rect x="186" y="212" width="8" height="6" fill="#2a6090" opacity="0.4"/>
  <rect x="200" y="212" width="8" height="6" fill="#2a6090" opacity="0.6"/>
  <rect x="214" y="212" width="8" height="6" fill="#2a6090" opacity="0.5"/>
  <rect x="228" y="212" width="8" height="6" fill="#2a6090" opacity="0.4"/>
  <rect x="242" y="212" width="8" height="6" fill="#2a6090" opacity="0.6"/>
  <rect x="256" y="212" width="8" height="6" fill="#2a6090" opacity="0.5"/>
  <!-- Terminal entrance -->
  <rect x="220" y="230" width="40" height="30" fill="#0a0a20"/>
  <rect x="218" y="228" width="44" height="4" fill="#00fff2" opacity="0.4"/>
  
  <!-- Neon sign "HK AIRPORT" -->
  <rect x="180" y="182" width="120" height="2" fill="#00fff2" opacity="0.8"/>
  <rect x="195" y="176" width="4" height="6" fill="#00fff2" opacity="0.9"/>
  <rect x="203" y="176" width="4" height="6" fill="#00fff2" opacity="0.9"/>
  <rect x="195" y="178" width="12" height="2" fill="#00fff2" opacity="0.9"/>
  <rect x="215" y="176" width="4" height="6" fill="#00fff2" opacity="0.9"/>
  <rect x="223" y="176" width="4" height="6" fill="#00fff2" opacity="0.9"/>
  <rect x="215" y="176" width="12" height="2" fill="#00fff2" opacity="0.9"/>
  <!-- Neon glow -->
  <rect x="178" y="180" width="124" height="6" fill="#00fff2" opacity="0.08"/>
  
  <!-- Runway -->
  <rect x="0" y="260" width="480" height="60" fill="#0a0a1e"/>
  <!-- Runway lines -->
  <rect x="40" y="275" width="24" height="4" fill="#fff" opacity="0.3"/>
  <rect x="90" y="275" width="24" height="4" fill="#fff" opacity="0.3"/>
  <rect x="140" y="275" width="24" height="4" fill="#fff" opacity="0.3"/>
  <rect x="190" y="275" width="24" height="4" fill="#fff" opacity="0.3"/>
  <rect x="240" y="275" width="24" height="4" fill="#fff" opacity="0.3"/>
  <rect x="290" y="275" width="24" height="4" fill="#fff" opacity="0.3"/>
  <rect x="340" y="275" width="24" height="4" fill="#fff" opacity="0.3"/>
  <rect x="390" y="275" width="24" height="4" fill="#fff" opacity="0.3"/>
  <rect x="440" y="275" width="24" height="4" fill="#fff" opacity="0.3"/>
  <!-- Runway edge lights -->
  <rect x="0" y="260" width="4" height="4" fill="#00fff2" opacity="0.6"/>
  <rect x="60" y="260" width="4" height="4" fill="#00fff2" opacity="0.5"/>
  <rect x="120" y="260" width="4" height="4" fill="#00fff2" opacity="0.6"/>
  <rect x="180" y="260" width="4" height="4" fill="#00fff2" opacity="0.5"/>
  <rect x="240" y="260" width="4" height="4" fill="#8844aa" opacity="0.6"/>
  <rect x="300" y="260" width="4" height="4" fill="#00fff2" opacity="0.5"/>
  <rect x="360" y="260" width="4" height="4" fill="#00fff2" opacity="0.6"/>
  <rect x="420" y="260" width="4" height="4" fill="#00fff2" opacity="0.5"/>
  <rect x="476" y="260" width="4" height="4" fill="#8844aa" opacity="0.6"/>
  
  <!-- Person with luggage -->
  <!-- Head -->
  <rect x="400" y="236" width="8" height="8" fill="#d4a574"/>
  <!-- Body -->
  <rect x="398" y="244" width="12" height="16" fill="#2a6090"/>
  <!-- Legs -->
  <rect x="398" y="260" width="4" height="8" fill="#1a1a4a"/>
  <rect x="406" y="260" width="4" height="8" fill="#1a1a4a"/>
  <!-- Luggage -->
  <rect x="414" y="248" width="12" height="16" fill="#8844aa"/>
  <rect x="416" y="246" width="8" height="2" fill="#8844aa"/>
  <rect x="418" y="242" width="4" height="6" fill="#666"/>
  <!-- Luggage wheels -->
  <rect x="416" y="264" width="2" height="4" fill="#444"/>
  <rect x="422" y="264" width="2" height="4" fill="#444"/>
  <!-- Luggage neon tag -->
  <rect x="416" y="252" width="6" height="4" fill="#00fff2" opacity="0.6"/>

  <!-- Neon side signs -->
  <rect x="10" y="200" width="4" height="40" fill="#8844aa" opacity="0.4"/>
  <rect x="14" y="204" width="2" height="4" fill="#8844aa" opacity="0.7"/>
  <rect x="14" y="212" width="2" height="4" fill="#8844aa" opacity="0.7"/>
  <rect x="14" y="220" width="2" height="4" fill="#8844aa" opacity="0.7"/>
  <rect x="14" y="228" width="2" height="4" fill="#8844aa" opacity="0.7"/>
  
  <rect x="466" y="195" width="4" height="45" fill="#00fff2" opacity="0.3"/>
  <rect x="462" y="200" width="4" height="4" fill="#00fff2" opacity="0.6"/>
  <rect x="462" y="210" width="4" height="4" fill="#00fff2" opacity="0.6"/>
  <rect x="462" y="220" width="4" height="4" fill="#00fff2" opacity="0.6"/>

  <!-- Scanlines -->
  <rect x="0" y="0" width="480" height="1" fill="#fff" opacity="0.02"/>
  <rect x="0" y="8" width="480" height="1" fill="#fff" opacity="0.02"/>
  <rect x="0" y="16" width="480" height="1" fill="#fff" opacity="0.02"/>
  <rect x="0" y="24" width="480" height="1" fill="#fff" opacity="0.02"/>
  <rect x="0" y="32" width="480" height="1" fill="#fff" opacity="0.02"/>
  <rect x="0" y="40" width="480" height="1" fill="#fff" opacity="0.02"/>
  <rect x="0" y="48" width="480" height="1" fill="#fff" opacity="0.02"/>
  <rect x="0" y="56" width="480" height="1" fill="#fff" opacity="0.02"/>
  <rect x="0" y="64" width="480" height="1" fill="#fff" opacity="0.02"/>
  <rect x="0" y="72" width="480" height="1" fill="#fff" opacity="0.02"/>
  <rect x="0" y="80" width="480" height="1" fill="#fff" opacity="0.02"/>
  <rect x="0" y="88" width="480" height="1" fill="#fff" opacity="0.02"/>
  <rect x="0" y="96" width="480" height="1" fill="#fff" opacity="0.02"/>
  <rect x="0" y="104" width="480" height="1" fill="#fff" opacity="0.02"/>
  <rect x="0" y="112" width="480" height="1" fill="#fff" opacity="0.02"/>
  <rect x="0" y="120" width="480" height="1" fill="#fff" opacity="0.02"/>
  <rect x="0" y="128" width="480" height="1" fill="#fff" opacity="0.02"/>
  <rect x="0" y="136" width="480" height="1" fill="#fff" opacity="0.02"/>
  <rect x="0" y="144" width="480" height="1" fill="#fff" opacity="0.02"/>
  <rect x="0" y="152" width="480" height="1" fill="#fff" opacity="0.02"/>
  <rect x="0" y="160" width="480" height="1" fill="#fff" opacity="0.02"/>
  <rect x="0" y="168" width="480" height="1" fill="#fff" opacity="0.02"/>
  <rect x="0" y="176" width="480" height="1" fill="#fff" opacity="0.02"/>
  <rect x="0" y="184" width="480" height="1" fill="#fff" opacity="0.02"/>
  <rect x="0" y="192" width="480" height="1" fill="#fff" opacity="0.02"/>
  <rect x="0" y="200" width="480" height="1" fill="#fff" opacity="0.02"/>
  <rect x="0" y="208" width="480" height="1" fill="#fff" opacity="0.02"/>
  <rect x="0" y="216" width="480" height="1" fill="#fff" opacity="0.02"/>
  <rect x="0" y="224" width="480" height="1" fill="#fff" opacity="0.02"/>
  <rect x="0" y="232" width="480" height="1" fill="#fff" opacity="0.02"/>
  <rect x="0" y="240" width="480" height="1" fill="#fff" opacity="0.02"/>
  <rect x="0" y="248" width="480" height="1" fill="#fff" opacity="0.02"/>
  <rect x="0" y="256" width="480" height="1" fill="#fff" opacity="0.02"/>
  <rect x="0" y="264" width="480" height="1" fill="#fff" opacity="0.02"/>
  <rect x="0" y="272" width="480" height="1" fill="#fff" opacity="0.02"/>
  <rect x="0" y="280" width="480" height="1" fill="#fff" opacity="0.02"/>
  <rect x="0" y="288" width="480" height="1" fill="#fff" opacity="0.02"/>
  <rect x="0" y="296" width="480" height="1" fill="#fff" opacity="0.02"/>
  <rect x="0" y="304" width="480" height="1" fill="#fff" opacity="0.02"/>
  <rect x="0" y="312" width="480" height="1" fill="#fff" opacity="0.02"/>
</svg>
