<svg width="480" height="320" xmlns="http://www.w3.org/2000/svg" viewBox="0 0 480 320">
  <!-- Background -->
  <rect width="480" height="320" fill="#08081a"/>
  
  <!-- Lecture hall back wall -->
  <rect x="20" y="40" width="440" height="200" fill="#0e0e2a"/>
  <rect x="20" y="40" width="440" height="4" fill="#1a1a4a"/>
  <rect x="20" y="40" width="4" height="200" fill="#1a1a4a"/>
  <rect x="456" y="40" width="4" height="200" fill="#1a1a4a"/>
  
  <!-- Whiteboard/Projector screen -->
  <rect x="100" y="56" width="200" height="80" fill="#1a2040"/>
  <rect x="96" y="52" width="208" height="4" fill="#2a6090"/>
  <rect x="96" y="136" width="208" height="4" fill="#2a6090"/>
  <rect x="96" y="52" width="4" height="88" fill="#2a6090"/>
  <rect x="300" y="52" width="4" height="88" fill="#2a6090"/>
  <!-- English text on board (pixel blocks) -->
  <rect x="110" y="64" width="24" height="4" fill="#00fff2" opacity="0.7"/>
  <rect x="140" y="64" width="16" height="4" fill="#00fff2" opacity="0.7"/>
  <rect x="162" y="64" width="32" height="4" fill="#00fff2" opacity="0.7"/>
  <rect x="110" y="74" width="40" height="4" fill="#00fff2" opacity="0.5"/>
  <rect x="156" y="74" width="20" height="4" fill="#00fff2" opacity="0.5"/>
  <rect x="182" y="74" width="28" height="4" fill="#00fff2" opacity="0.5"/>
  <rect x="110" y="84" width="16" height="4" fill="#00fff2" opacity="0.6"/>
  <rect x="132" y="84" width="36" height="4" fill="#00fff2" opacity="0.6"/>
  <rect x="174" y="84" width="24" height="4" fill="#00fff2" opacity="0.6"/>
  <rect x="110" y="94" width="28" height="4" fill="#8844aa" opacity="0.6"/>
  <rect x="144" y="94" width="20" height="4" fill="#8844aa" opacity="0.6"/>
  <rect x="170" y="94" width="32" height="4" fill="#8844aa" opacity="0.6"/>
  <rect x="110" y="104" width="48" height="4" fill="#00fff2" opacity="0.4"/>
  <rect x="164" y="104" width="36" height="4" fill="#00fff2" opacity="0.4"/>
  <rect x="110" y="114" width="20" height="4" fill="#00fff2" opacity="0.5"/>
  <rect x="136" y="114" width="44" height="4" fill="#00fff2" opacity="0.5"/>
  <!-- Projector glow -->
  <rect x="190" y="44" width="20" height="8" fill="#2a6090" opacity="0.4"/>
  <rect x="196" y="48" width="8" height="4" fill="#00fff2" opacity="0.6"/>
  
  <!-- Professor figure at front -->
  <!-- Head -->
  <rect x="336" y="100" width="12" height="12" fill="#d4a574"/>
  <!-- Hair -->
  <rect x="336" y="98" width="12" height="4" fill="#444"/>
  <!-- Body -->
  <rect x="332" y="112" width="20" height="24" fill="#2a6090"/>
  <!-- Arms -->
  <rect x="324" y="114" width="8" height="4" fill="#2a6090"/>
  <rect x="352" y="114" width="8" height="4" fill="#2a6090"/>
  <rect x="320" y="112" width="6" height="4" fill="#d4a574"/>
  <rect x="358" y="112" width="6" height="4" fill="#d4a574"/>
  <!-- Podium -->
  <rect x="326" y="136" width="32" height="24" fill="#12123a"/>
  <rect x="324" y="134" width="36" height="4" fill="#1a1a4a"/>
  <rect x="330" y="142" width="24" height="4" fill="#8844aa" opacity="0.4"/>
  
  <!-- Desk rows - Row 1 (front) -->
  <rect x="40" y="170" width="400" height="8" fill="#1a1a3a"/>
  <rect x="40" y="168" width="400" height="4" fill="#222250"/>
  <!-- Seats row 1 -->
  <rect x="50" y="158" width="12" height="10" fill="#12123a"/>
  <rect x="80" y="158" width="12" height="10" fill="#12123a"/>
  <rect x="110" y="158" width="12" height="10" fill="#12123a"/>
  <rect x="140" y="158" width="12" height="10" fill="#12123a"/>
  <rect x="180" y="158" width="12" height="10" fill="#12123a"/>
  <rect x="210" y="158" width="12" height="10" fill="#12123a"/>
  <rect x="240" y="158" width="12" height="10" fill="#12123a"/>
  <rect x="270" y="158" width="12" height="10" fill="#12123a"/>
  
  <!-- Desk rows - Row 2 (middle) -->
  <rect x="30" y="200" width="420" height="8" fill="#1a1a3a"/>
  <rect x="30" y="198" width="420" height="4" fill="#222250"/>
  <!-- Seats row 2 -->
  <rect x="40" y="188" width="12" height="10" fill="#12123a"/>
  <rect x="75" y="188" width="12" height="10" fill="#12123a"/>
  <rect x="110" y="188" width="12" height="10" fill="#12123a"/>
  <rect x="145" y="188" width="12" height="10" fill="#12123a"/>
  <rect x="185" y="188" width="12" height="10" fill="#12123a"/>
  <rect x="220" y="188" width="12" height="10" fill="#12123a"/>
  <rect x="255" y="188" width="12" height="10" fill="#12123a"/>
  <rect x="290" y="188" width="12" height="10" fill="#12123a"/>
  <rect x="330" y="188" width="12" height="10" fill="#12123a"/>
  
  <!-- Desk rows - Row 3 (back, where our student is) -->
  <rect x="20" y="234" width="440" height="8" fill="#1a1a3a"/>
  <rect x="20" y="232" width="440" height="4" fill="#222250"/>
  <!-- Seats row 3 -->
  <rect x="30" y="222" width="12" height="10" fill="#12123a"/>
  <rect x="70" y="222" width="12" height="10" fill="#12123a"/>
  <rect x="110" y="222" width="12" height="10" fill="#12123a"/>
  <rect x="150" y="222" width="12" height="10" fill="#12123a"/>
  <rect x="200" y="222" width="12" height="10" fill="#12123a"/>
  <rect x="240" y="222" width="12" height="10" fill="#12123a"/>
  <rect x="280" y="222" width="12" height="10" fill="#12123a"/>
  <rect x="320" y="222" width="12" height="10" fill="#12123a"/>
  <rect x="360" y="222" width="12" height="10" fill="#12123a"/>
  <rect x="400" y="222" width="12" height="10" fill="#12123a"/>
  
  <!-- Confused student (our protagonist) - at back row -->
  <!-- Head -->
  <rect x="153" y="210" width="10" height="10" fill="#d4a574"/>
  <!-- Hair -->
  <rect x="153" y="208" width="10" height="4" fill="#222"/>
  <!-- Body -->
  <rect x="150" y="220" width="16" height="12" fill="#8844aa"/>
  <!-- Question mark (confusion) -->
  <rect x="168" y="204" width="8" height="4" fill="#00fff2" opacity="0.9"/>
  <rect x="172" y="208" width="4" height="4" fill="#00fff2" opacity="0.9"/>
  <rect x="168" y="212" width="8" height="4" fill="#00fff2" opacity="0.9"/>
  <rect x="168" y="216" width="4" height="4" fill="#00fff2" opacity="0.9"/>
  <rect x="168" y="224" width="4" height="4" fill="#00fff2" opacity="0.9"/>
  
  <!-- Window on right side showing tea restaurant -->
  <rect x="380" y="56" width="72" height="80" fill="#0c1030"/>
  <rect x="376" y="52" width="80" height="4" fill="#1a1a4a"/>
  <rect x="376" y="136" width="80" height="4" fill="#1a1a4a"/>
  <rect x="376" y="52" width="4" height="88" fill="#1a1a4a"/>
  <rect x="452" y="52" width="4" height="88" fill="#1a1a4a"/>
  <!-- Window cross bars -->
  <rect x="414" y="52" width="2" height="88" fill="#1a1a4a"/>
  <rect x="376" y="92" width="80" height="2" fill="#1a1a4a"/>
  <!-- Tea restaurant sign visible through window -->
  <rect x="390" y="68" width="48" height="12" fill="#8844aa" opacity="0.5"/>
  <rect x="394" y="70" width="8" height="8" fill="#00fff2" opacity="0.7"/>
  <rect x="406" y="70" width="8" height="8" fill="#00fff2" opacity="0.7"/>
  <rect x="418" y="70" width="8" height="8" fill="#00fff2" opacity="0.7"/>
  <rect x="430" y="70" width="4" height="8" fill="#00fff2" opacity="0.7"/>
  <!-- Building through window -->
  <rect x="384" y="96" width="16" height="40" fill="#0e0e30"/>
  <rect x="420" y="100" width="20" height="36" fill="#0e0e30"/>
  <rect x="388" y="102" width="4" height="4" fill="#00fff2" opacity="0.3"/>
  <rect x="388" y="112" width="4" height="4" fill="#8844aa" opacity="0.3"/>
  <rect x="426" y="108" width="4" height="4" fill="#00fff2" opacity="0.3"/>
  
  <!-- Floor -->
  <rect x="0" y="242" width="480" height="78" fill="#0a0a1e"/>
  
  <!-- Ceiling lights -->
  <rect x="80" y="44" width="24" height="4" fill="#2a6090" opacity="0.5"/>
  <rect x="88" y="48" width="8" height="2" fill="#00fff2" opacity="0.3"/>
  <rect x="320" y="44" width="24" height="4" fill="#2a6090" opacity="0.5"/>
  <rect x="328" y="48" width="8" height="2" fill="#00fff2" opacity="0.3"/>
  
  <!-- Neon accent strips on walls -->
  <rect x="24" y="140" width="70" height="2" fill="#8844aa" opacity="0.4"/>
  <rect x="24" y="150" width="70" height="2" fill="#2a6090" opacity="0.3"/>
  
  <!-- Scanlines -->
  <rect x="0" y="0" width="480" height="1" fill="#fff" opacity="0.02"/>
  <rect x="0" y="8" width="480" height="1" fill="#fff" opacity="0.02"/>
  <rect x="0" y="16" width="480" height="1" fill="#fff" opacity="0.02"/>
  <rect x="0" y="24" width="480" height="1" fill="#fff" opacity="0.02"/>
  <rect x="0" y="32" width="480" height="1" fill="#fff" opacity="0.02"/>
  <rect x="0" y="40" width="480" height="1" fill="#fff" opacity="0.02"/>
  <rect x="0" y="48" width="480" height="1" fill="#fff" opacity="0.02"/>
  <rect x="0" y="56" width="480" height="1" fill="#fff" opacity="0.02"/>
  <rect x="0" y="64" width="480" height="1" fill="#fff" opacity="0.02"/>
  <rect x="0" y="72" width="480" height="1" fill="#fff" opacity="0.02"/>
  <rect x="0" y="80" width="480" height="1" fill="#fff" opacity="0.02"/>
  <rect x="0" y="88" width="480" height="1" fill="#fff" opacity="0.02"/>
  <rect x="0" y="96" width="480" height="1" fill="#fff" opacity="0.02"/>
  <rect x="0" y="104" width="480" height="1" fill="#fff" opacity="0.02"/>
  <rect x="0" y="112" width="480" height="1" fill="#fff" opacity="0.02"/>
  <rect x="0" y="120" width="480" height="1" fill="#fff" opacity="0.02"/>
  <rect x="0" y="128" width="480" height="1" fill="#fff" opacity="0.02"/>
  <rect x="0" y="136" width="480" height="1" fill="#fff" opacity="0.02"/>
  <rect x="0" y="144" width="480" height="1" fill="#fff" opacity="0.02"/>
  <rect x="0" y="152" width="480" height="1" fill="#fff" opacity="0.02"/>
  <rect x="0" y="160" width="480" height="1" fill="#fff" opacity="0.02"/>
  <rect x="0" y="168" width="480" height="1" fill="#fff" opacity="0.02"/>
  <rect x="0" y="176" width="480" height="1" fill="#fff" opacity="0.02"/>
  <rect x="0" y="184" width="480" height="1" fill="#fff" opacity="0.02"/>
  <rect x="0" y="192" width="480" height="1" fill="#fff" opacity="0.02"/>
  <rect x="0" y="200" width="480" height="1" fill="#fff" opacity="0.02"/>
  <rect x="0" y="208" width="480" height="1" fill="#fff" opacity="0.02"/>
  <rect x="0" y="216" width="480" height="1" fill="#fff" opacity="0.02"/>
  <rect x="0" y="224" width="480" height="1" fill="#fff" opacity="0.02"/>
  <rect x="0" y="232" width="480" height="1" fill="#fff" opacity="0.02"/>
  <rect x="0" y="240" width="480" height="1" fill="#fff" opacity="0.02"/>
  <rect x="0" y="248" width="480" height="1" fill="#fff" opacity="0.02"/>
  <rect x="0" y="256" width="480" height="1" fill="#fff" opacity="0.02"/>
  <rect x="0" y="264" width="480" height="1" fill="#fff" opacity="0.02"/>
  <rect x="0" y="272" width="480" height="1" fill="#fff" opacity="0.02"/>
  <rect x="0" y="280" width="480" height="1" fill="#fff" opacity="0.02"/>
  <rect x="0" y="288" width="480" height="1" fill="#fff" opacity="0.02"/>
  <rect x="0" y="296" width="480" height="1" fill="#fff" opacity="0.02"/>
  <rect x="0" y="304" width="480" height="1" fill="#fff" opacity="0.02"/>
  <rect x="0" y="312" width="480" height="1" fill="#fff" opacity="0.02"/>
</svg>
