<svg width="480" height="320" xmlns="http://www.w3.org/2000/svg" viewBox="0 0 480 320">
  <!-- Background -->
  <rect width="480" height="320" fill="#08081a"/>
  
  <!-- Night sky strip at top -->
  <rect x="0" y="0" width="480" height="60" fill="#06061a"/>
  <!-- Stars -->
  <rect x="20" y="10" width="2" height="2" fill="#00fff2" opacity="0.6"/>
  <rect x="80" y="18" width="2" height="2" fill="#fff" opacity="0.4"/>
  <rect x="160" y="8" width="2" height="2" fill="#00fff2" opacity="0.5"/>
  <rect x="280" y="14" width="2" height="2" fill="#fff" opacity="0.3"/>
  <rect x="380" y="6" width="2" height="2" fill="#00fff2" opacity="0.7"/>
  <rect x="440" y="20" width="2" height="2" fill="#fff" opacity="0.4"/>
  
  <!-- Hong Kong street background buildings -->
  <rect x="0" y="30" width="60" height="130" fill="#0c0c28"/>
  <rect x="64" y="20" width="50" height="140" fill="#0e0e2c"/>
  <rect x="118" y="35" width="40" height="125" fill="#0c0c28"/>
  <rect x="320" y="25" width="50" height="135" fill="#0e0e2c"/>
  <rect x="374" y="15" width="46" height="145" fill="#0c0c28"/>
  <rect x="424" y="30" width="56" height="130" fill="#0e0e2c"/>
  
  <!-- Background building windows -->
  <rect x="10" y="40" width="4" height="4" fill="#00fff2" opacity="0.3"/>
  <rect x="20" y="48" width="4" height="4" fill="#8844aa" opacity="0.3"/>
  <rect x="10" y="60" width="4" height="4" fill="#2a6090" opacity="0.3"/>
  <rect x="30" y="44" width="4" height="4" fill="#00fff2" opacity="0.2"/>
  <rect x="40" y="56" width="4" height="4" fill="#8844aa" opacity="0.3"/>
  <rect x="74" y="30" width="4" height="4" fill="#00fff2" opacity="0.3"/>
  <rect x="86" y="42" width="4" height="4" fill="#8844aa" opacity="0.2"/>
  <rect x="98" y="36" width="4" height="4" fill="#2a6090" opacity="0.3"/>
  <rect x="74" y="54" width="4" height="4" fill="#00fff2" opacity="0.2"/>
  <rect x="330" y="36" width="4" height="4" fill="#00fff2" opacity="0.3"/>
  <rect x="344" y="44" width="4" height="4" fill="#8844aa" opacity="0.2"/>
  <rect x="356" y="52" width="4" height="4" fill="#2a6090" opacity="0.3"/>
  <rect x="384" y="26" width="4" height="4" fill="#00fff2" opacity="0.3"/>
  <rect x="396" y="38" width="4" height="4" fill="#8844aa" opacity="0.2"/>
  <rect x="434" y="42" width="4" height="4" fill="#00fff2" opacity="0.3"/>
  <rect x="450" y="50" width="4" height="4" fill="#2a6090" opacity="0.3"/>
  <rect x="464" y="36" width="4" height="4" fill="#8844aa" opacity="0.2"/>
  
  <!-- Background neon signs on buildings -->
  <rect x="6" y="70" width="48" height="12" fill="#8844aa" opacity="0.4"/>
  <rect x="10" y="72" width="8" height="8" fill="#8844aa" opacity="0.7"/>
  <rect x="22" y="72" width="8" height="8" fill="#8844aa" opacity="0.7"/>
  <rect x="34" y="72" width="8" height="8" fill="#8844aa" opacity="0.7"/>
  
  <rect x="326" y="60" width="38" height="12" fill="#00fff2" opacity="0.3"/>
  <rect x="330" y="62" width="6" height="8" fill="#00fff2" opacity="0.6"/>
  <rect x="340" y="62" width="6" height="8" fill="#00fff2" opacity="0.6"/>
  <rect x="350" y="62" width="6" height="8" fill="#00fff2" opacity="0.6"/>
  
  <rect x="430" y="58" width="44" height="12" fill="#8844aa" opacity="0.3"/>
  <rect x="434" y="60" width="8" height="8" fill="#8844aa" opacity="0.6"/>
  <rect x="446" y="60" width="8" height="8" fill="#8844aa" opacity="0.6"/>
  <rect x="458" y="60" width="8" height="8" fill="#8844aa" opacity="0.6"/>
  
  <!-- Street level -->
  <rect x="0" y="160" width="480" height="160" fill="#0a0a1e"/>
  
  <!-- Food stall structure -->
  <rect x="160" y="80" width="160" height="80" fill="#12123a"/>
  <!-- Stall roof/awning -->
  <rect x="150" y="74" width="180" height="8" fill="#1a1a4a"/>
  <rect x="146" y="72" width="188" height="4" fill="#2a6090"/>
  
  <!-- Neon sign "兩餸飯" -->
  <rect x="180" y="60" width="120" height="16" fill="#0a0a20"/>
  <rect x="178" y="58" width="124" height="2" fill="#00fff2" opacity="0.8"/>
  <rect x="178" y="76" width="124" height="2" fill="#00fff2" opacity="0.8"/>
  <rect x="178" y="58" width="2" height="20" fill="#00fff2" opacity="0.8"/>
  <rect x="300" y="58" width="2" height="20" fill="#00fff2" opacity="0.8"/>
  <!-- Characters as pixel blocks -->
  <!-- 兩 -->
  <rect x="190" y="62" width="24" height="2" fill="#00fff2" opacity="0.9"/>
  <rect x="190" y="62" width="2" height="12" fill="#00fff2" opacity="0.9"/>
  <rect x="212" y="62" width="2" height="12" fill="#00fff2" opacity="0.9"/>
  <rect x="196" y="66" width="4" height="6" fill="#00fff2" opacity="0.9"/>
  <rect x="204" y="66" width="4" height="6" fill="#00fff2" opacity="0.9"/>
  <!-- 餸 -->
  <rect x="222" y="62" width="2" height="12" fill="#8844aa" opacity="0.9"/>
  <rect x="226" y="62" width="12" height="2" fill="#8844aa" opacity="0.9"/>
  <rect x="226" y="68" width="12" height="2" fill="#8844aa" opacity="0.9"/>
  <rect x="226" y="72" width="12" height="2" fill="#8844aa" opacity="0.9"/>
  <rect x="236" y="62" width="2" height="12" fill="#8844aa" opacity="0.9"/>
  <!-- 飯 -->
  <rect x="248" y="62" width="2" height="12" fill="#00fff2" opacity="0.9"/>
  <rect x="252" y="62" width="12" height="2" fill="#00fff2" opacity="0.9"/>
  <rect x="256" y="64" width="2" height="10" fill="#00fff2" opacity="0.9"/>
  <rect x="252" y="68" width="12" height="2" fill="#00fff2" opacity="0.9"/>
  <rect x="262" y="62" width="2" height="12" fill="#00fff2" opacity="0.9"/>
  <!-- Sign glow -->
  <rect x="176" y="56" width="128" height="24" fill="#00fff2" opacity="0.05"/>
  
  <!-- Food stall counter -->
  <rect x="160" y="130" width="160" height="8" fill="#1a1a4a"/>
  <rect x="160" y="128" width="160" height="4" fill="#222250"/>
  
  <!-- Plate of food on counter -->
  <rect x="200" y="118" width="24" height="4" fill="#444"/>
  <rect x="196" y="122" width="32" height="6" fill="#555"/>
  <rect x="202" y="116" width="8" height="4" fill="#c44" opacity="0.7"/>
  <rect x="214" y="116" width="8" height="4" fill="#4a4" opacity="0.7"/>
  <rect x="206" y="112" width="12" height="6" fill="#ca4" opacity="0.6"/>
  
  <!-- Steam from food -->
  <rect x="210" y="104" width="2" height="6" fill="#fff" opacity="0.1"/>
  <rect x="216" y="100" width="2" height="8" fill="#fff" opacity="0.08"/>
  <rect x="222" y="102" width="2" height="6" fill="#fff" opacity="0.1"/>
  
  <!-- Stall interior details -->
  <rect x="168" y="90" width="4" height="38" fill="#1a1a3a"/>
  <rect x="308" y="90" width="4" height="38" fill="#1a1a3a"/>
  <!-- Menu boards inside -->
  <rect x="178" y="86" width="32" height="16" fill="#0a0a20"/>
  <rect x="182" y="88" width="8" height="4" fill="#8844aa" opacity="0.5"/>
  <rect x="194" y="88" width="12" height="4" fill="#8844aa" opacity="0.5"/>
  <rect x="182" y="96" width="16" height="4" fill="#00fff2" opacity="0.4"/>
  <rect x="270" y="86" width="32" height="16" fill="#0a0a20"/>
  <rect x="274" y="88" width="8" height="4" fill="#8844aa" opacity="0.5"/>
  <rect x="286" y="88" width="12" height="4" fill="#8844aa" opacity="0.5"/>
  <rect x="274" y="96" width="16" height="4" fill="#00fff2" opacity="0.4"/>
  
  <!-- Wallet and coins on counter -->
  <rect x="260" y="120" width="16" height="10" fill="#4a3020"/>
  <rect x="262" y="122" width="12" height="6" fill="#5a4030"/>
  <!-- Coins -->
  <rect x="280" y="124" width="4" height="4" fill="#cc9922" opacity="0.7"/>
  <rect x="286" y="126" width="4" height="4" fill="#cc9922" opacity="0.6"/>
  <rect x="292" y="124" width="4" height="4" fill="#aa7722" opacity="0.5"/>
  
  <!-- Small figure looking at phone -->
  <!-- Head -->
  <rect x="108" y="140" width="10" height="10" fill="#d4a574"/>
  <!-- Hair -->
  <rect x="108" y="138" width="10" height="4" fill="#222"/>
  <!-- Body -->
  <rect x="105" y="150" width="16" height="20" fill="#8844aa"/>
  <!-- Arms holding phone -->
  <rect x="100" y="152" width="6" height="4" fill="#8844aa"/>
  <rect x="120" y="152" width="6" height="4" fill="#8844aa"/>
  <!-- Phone -->
  <rect x="96" y="150" width="8" height="14" fill="#111"/>
  <rect x="97" y="151" width="6" height="10" fill="#2a6090"/>
  <!-- Phone screen glow (bank app) -->
  <rect x="98" y="152" width="4" height="2" fill="#00fff2" opacity="0.7"/>
  <rect x="98" y="156" width="4" height="4" fill="#c44" opacity="0.6"/>
  <!-- Legs -->
  <rect x="107" y="170" width="5" height="12" fill="#1a1a4a"/>
  <rect x="114" y="170" width="5" height="12" fill="#1a1a4a"/>
  
  <!-- Sad expression hint -->
  <rect x="110" y="146" width="2" height="2" fill="#333"/>
  <rect x="114" y="146" width="2" height="2" fill="#333"/>
  <rect x="111" y="148" width="4" height="1" fill="#333"/>
  
  <!-- Street details -->
  <rect x="0" y="182" width="480" height="2" fill="#1a1a3a"/>
  
  <!-- Ground/sidewalk -->
  <rect x="0" y="184" width="480" height="136" fill="#0c0c22"/>
  
  <!-- Sidewalk tiles -->
  <rect x="0" y="184" width="32" height="2" fill="#111130" opacity="0.5"/>
  <rect x="36" y="184" width="32" height="2" fill="#111130" opacity="0.5"/>
  <rect x="72" y="184" width="32" height="2" fill="#111130" opacity="0.5"/>
  <rect x="108" y="184" width="32" height="2" fill="#111130" opacity="0.5"/>
  <rect x="144" y="184" width="32" height="2" fill="#111130" opacity="0.5"/>
  
  <!-- Street lamp -->
  <rect x="138" y="100" width="4" height="82" fill="#1a1a3a"/>
  <rect x="130" y="98" width="20" height="4" fill="#1a1a3a"/>
  <rect x="134" y="96" width="4" height="4" fill="#00fff2" opacity="0.6"/>
  <rect x="146" y="96" width="4" height="4" fill="#00fff2" opacity="0.6"/>
  <!-- Lamp glow -->
  <rect x="128" y="94" width="24" height="2" fill="#00fff2" opacity="0.15"/>
  <rect x="132" y="92" width="16" height="2" fill="#00fff2" opacity="0.1"/>
  
  <!-- More neon signs in background -->
  <rect x="70" y="90" width="40" height="10" fill="#0a0a20"/>
  <rect x="74" y="92" width="8" height="6" fill="#8844aa" opacity="0.6"/>
  <rect x="86" y="92" width="8" height="6" fill="#8844aa" opacity="0.6"/>
  <rect x="98" y="92" width="8" height="6" fill="#8844aa" opacity="0.6"/>
  
  <rect x="370" y="80" width="50" height="10" fill="#0a0a20"/>
  <rect x="374" y="82" width="10" height="6" fill="#00fff2" opacity="0.5"/>
  <rect x="388" y="82" width="10" height="6" fill="#00fff2" opacity="0.5"/>
  <rect x="402" y="82" width="10" height="6" fill="#00fff2" opacity="0.5"/>
  
  <!-- Scanlines -->
  <rect x="0" y="0" width="480" height="1" fill="#fff" opacity="0.02"/>
  <rect x="0" y="8" width="480" height="1" fill="#fff" opacity="0.02"/>
  <rect x="0" y="16" width="480" height="1" fill="#fff" opacity="0.02"/>
  <rect x="0" y="24" width="480" height="1" fill="#fff" opacity="0.02"/>
  <rect x="0" y="32" width="480" height="1" fill="#fff" opacity="0.02"/>
  <rect x="0" y="40" width="480" height="1" fill="#fff" opacity="0.02"/>
  <rect x="0" y="48" width="480" height="1" fill="#fff" opacity="0.02"/>
  <rect x="0" y="56" width="480" height="1" fill="#fff" opacity="0.02"/>
  <rect x="0" y="64" width="480" height="1" fill="#fff" opacity="0.02"/>
  <rect x="0" y="72" width="480" height="1" fill="#fff" opacity="0.02"/>
  <rect x="0" y="80" width="480" height="1" fill="#fff" opacity="0.02"/>
  <rect x="0" y="88" width="480" height="1" fill="#fff" opacity="0.02"/>
  <rect x="0" y="96" width="480" height="1" fill="#fff" opacity="0.02"/>
  <rect x="0" y="104" width="480" height="1" fill="#fff" opacity="0.02"/>
  <rect x="0" y="112" width="480" height="1" fill="#fff" opacity="0.02"/>
  <rect x="0" y="120" width="480" height="1" fill="#fff" opacity="0.02"/>
  <rect x="0" y="128" width="480" height="1" fill="#fff" opacity="0.02"/>
  <rect x="0" y="136" width="480" height="1" fill="#fff" opacity="0.02"/>
  <rect x="0" y="144" width="480" height="1" fill="#fff" opacity="0.02"/>
  <rect x="0" y="152" width="480" height="1" fill="#fff" opacity="0.02"/>
  <rect x="0" y="160" width="480" height="1" fill="#fff" opacity="0.02"/>
  <rect x="0" y="168" width="480" height="1" fill="#fff" opacity="0.02"/>
  <rect x="0" y="176" width="480" height="1" fill="#fff" opacity="0.02"/>
  <rect x="0" y="184" width="480" height="1" fill="#fff" opacity="0.02"/>
  <rect x="0" y="192" width="480" height="1" fill="#fff" opacity="0.02"/>
  <rect x="0" y="200" width="480" height="1" fill="#fff" opacity="0.02"/>
  <rect x="0" y="208" width="480" height="1" fill="#fff" opacity="0.02"/>
  <rect x="0" y="216" width="480" height="1" fill="#fff" opacity="0.02"/>
  <rect x="0" y="224" width="480" height="1" fill="#fff" opacity="0.02"/>
  <rect x="0" y="232" width="480" height="1" fill="#fff" opacity="0.02"/>
  <rect x="0" y="240" width="480" height="1" fill="#fff" opacity="0.02"/>
  <rect x="0" y="248" width="480" height="1" fill="#fff" opacity="0.02"/>
  <rect x="0" y="256" width="480" height="1" fill="#fff" opacity="0.02"/>
  <rect x="0" y="264" width="480" height="1" fill="#fff" opacity="0.02"/>
  <rect x="0" y="272" width="480" height="1" fill="#fff" opacity="0.02"/>
  <rect x="0" y="280" width="480" height="1" fill="#fff" opacity="0.02"/>
  <rect x="0" y="288" width="480" height="1" fill="#fff" opacity="0.02"/>
  <rect x="0" y="296" width="480" height="1" fill="#fff" opacity="0.02"/>
  <rect x="0" y="304" width="480" height="1" fill="#fff" opacity="0.02"/>
  <rect x="0" y="312" width="480" height="1" fill="#fff" opacity="0.02"/>
</svg>
