<svg width="480" height="320" xmlns="http://www.w3.org/2000/svg" viewBox="0 0 480 320">
  <!-- Background - room interior -->
  <rect width="480" height="320" fill="#08081a"/>
  
  <!-- Room walls -->
  <rect x="0" y="0" width="480" height="320" fill="#0a0a1e"/>
  
  <!-- Window showing neon city at night -->
  <rect x="300" y="20" width="160" height="120" fill="#06061a"/>
  <rect x="296" y="16" width="168" height="4" fill="#1a1a4a"/>
  <rect x="296" y="140" width="168" height="4" fill="#1a1a4a"/>
  <rect x="296" y="16" width="4" height="128" fill="#1a1a4a"/>
  <rect x="460" y="16" width="4" height="128" fill="#1a1a4a"/>
  <!-- Window cross -->
  <rect x="378" y="16" width="2" height="128" fill="#1a1a4a"/>
  <rect x="296" y="78" width="168" height="2" fill="#1a1a4a"/>
  
  <!-- City through window - buildings -->
  <rect x="304" y="60" width="16" height="80" fill="#0c0c28"/>
  <rect x="324" y="50" width="20" height="90" fill="#0e0e2c"/>
  <rect x="348" y="65" width="14" height="75" fill="#0c0c28"/>
  <rect x="366" y="45" width="12" height="95" fill="#0e0e2c"/>
  <rect x="384" y="55" width="18" height="85" fill="#0c0c28"/>
  <rect x="406" y="40" width="16" height="100" fill="#0e0e2c"/>
  <rect x="426" y="60" width="14" height="80" fill="#0c0c28"/>
  <rect x="444" y="50" width="16" height="90" fill="#0e0e2c"/>
  <!-- City window lights -->
  <rect x="308" y="68" width="4" height="4" fill="#00fff2" opacity="0.5"/>
  <rect x="308" y="80" width="4" height="4" fill="#8844aa" opacity="0.4"/>
  <rect x="330" y="58" width="4" height="4" fill="#00fff2" opacity="0.4"/>
  <rect x="330" y="70" width="4" height="4" fill="#8844aa" opacity="0.3"/>
  <rect x="338" y="62" width="4" height="4" fill="#2a6090" opacity="0.4"/>
  <rect x="370" y="52" width="4" height="4" fill="#00fff2" opacity="0.5"/>
  <rect x="370" y="64" width="4" height="4" fill="#8844aa" opacity="0.4"/>
  <rect x="390" y="62" width="4" height="4" fill="#00fff2" opacity="0.4"/>
  <rect x="390" y="78" width="4" height="4" fill="#2a6090" opacity="0.4"/>
  <rect x="396" y="70" width="4" height="4" fill="#8844aa" opacity="0.3"/>
  <rect x="410" y="48" width="4" height="4" fill="#00fff2" opacity="0.5"/>
  <rect x="410" y="60" width="4" height="4" fill="#8844aa" opacity="0.4"/>
  <rect x="416" y="54" width="4" height="4" fill="#2a6090" opacity="0.3"/>
  <rect x="430" y="68" width="4" height="4" fill="#00fff2" opacity="0.4"/>
  <rect x="448" y="58" width="4" height="4" fill="#8844aa" opacity="0.4"/>
  <rect x="448" y="72" width="4" height="4" fill="#00fff2" opacity="0.3"/>
  <!-- Neon signs through window -->
  <rect x="322" y="84" width="20" height="6" fill="#8844aa" opacity="0.4"/>
  <rect x="404" y="76" width="16" height="6" fill="#00fff2" opacity="0.3"/>
  <!-- Stars visible -->
  <rect x="310" y="26" width="2" height="2" fill="#fff" opacity="0.4"/>
  <rect x="350" y="22" width="2" height="2" fill="#00fff2" opacity="0.5"/>
  <rect x="400" y="28" width="2" height="2" fill="#fff" opacity="0.3"/>
  <rect x="440" y="24" width="2" height="2" fill="#00fff2" opacity="0.4"/>
  
  <!-- Desk -->
  <rect x="40" y="160" width="240" height="12" fill="#1a1a3a"/>
  <rect x="36" y="158" width="248" height="4" fill="#222250"/>
  <!-- Desk legs -->
  <rect x="44" y="172" width="8" height="80" fill="#1a1a3a"/>
  <rect x="264" y="172" width="8" height="80" fill="#1a1a3a"/>
  
  <!-- Laptop on desk -->
  <!-- Screen -->
  <rect x="100" y="110" width="80" height="50" fill="#111"/>
  <rect x="96" y="106" width="88" height="4" fill="#1a1a4a"/>
  <rect x="96" y="106" width="4" height="54" fill="#1a1a4a"/>
  <rect x="180" y="106" width="4" height="54" fill="#1a1a4a"/>
  <!-- Screen content -->
  <rect x="104" y="114" width="72" height="42" fill="#0a1428"/>
  <!-- Code/text on screen -->
  <rect x="108" y="118" width="32" height="3" fill="#00fff2" opacity="0.7"/>
  <rect x="108" y="124" width="48" height="3" fill="#2a6090" opacity="0.6"/>
  <rect x="108" y="130" width="24" height="3" fill="#8844aa" opacity="0.6"/>
  <rect x="136" y="130" width="20" height="3" fill="#00fff2" opacity="0.5"/>
  <rect x="108" y="136" width="40" height="3" fill="#2a6090" opacity="0.5"/>
  <rect x="108" y="142" width="56" height="3" fill="#00fff2" opacity="0.4"/>
  <rect x="108" y="148" width="28" height="3" fill="#8844aa" opacity="0.5"/>
  <!-- Laptop base -->
  <rect x="90" y="158" width="100" height="4" fill="#222"/>
  <!-- Laptop glow -->
  <rect x="88" y="104" width="106" height="58" fill="#00fff2" opacity="0.03"/>
  
  <!-- Red Bull cans stacked -->
  <!-- Can 1 -->
  <rect x="200" y="146" width="8" height="14" fill="#2a6090"/>
  <rect x="200" y="148" width="8" height="4" fill="#c33" opacity="0.8"/>
  <rect x="200" y="144" width="8" height="2" fill="#ccc" opacity="0.4"/>
  <!-- Can 2 -->
  <rect x="212" y="146" width="8" height="14" fill="#2a6090"/>
  <rect x="212" y="148" width="8" height="4" fill="#c33" opacity="0.8"/>
  <rect x="212" y="144" width="8" height="2" fill="#ccc" opacity="0.4"/>
  <!-- Can 3 -->
  <rect x="224" y="146" width="8" height="14" fill="#2a6090"/>
  <rect x="224" y="148" width="8" height="4" fill="#c33" opacity="0.8"/>
  <rect x="224" y="144" width="8" height="2" fill="#ccc" opacity="0.4"/>
  <!-- Can 4 (stacked on top) -->
  <rect x="206" y="132" width="8" height="14" fill="#2a6090"/>
  <rect x="206" y="134" width="8" height="4" fill="#c33" opacity="0.8"/>
  <rect x="206" y="130" width="8" height="2" fill="#ccc" opacity="0.4"/>
  <!-- Can 5 (stacked on top) -->
  <rect x="218" y="132" width="8" height="14" fill="#2a6090"/>
  <rect x="218" y="134" width="8" height="4" fill="#c33" opacity="0.8"/>
  <rect x="218" y="130" width="8" height="2" fill="#ccc" opacity="0.4"/>
  
  <!-- Papers scattered on desk -->
  <rect x="56" y="150" width="28" height="10" fill="#ddd" opacity="0.15"/>
  <rect x="60" y="152" width="20" height="2" fill="#888" opacity="0.1"/>
  <rect x="60" y="156" width="16" height="2" fill="#888" opacity="0.1"/>
  <rect x="240" y="148" width="24" height="12" fill="#ddd" opacity="0.12"/>
  <rect x="244" y="150" width="16" height="2" fill="#888" opacity="0.1"/>
  <rect x="244" y="154" width="12" height="2" fill="#888" opacity="0.1"/>
  <rect x="248" y="144" width="20" height="12" fill="#ddd" opacity="0.1"/>
  <rect x="252" y="146" width="12" height="2" fill="#888" opacity="0.1"/>
  
  <!-- Clock on wall -->
  <rect x="20" y="30" width="32" height="32" fill="#12123a"/>
  <rect x="16" y="26" width="40" height="4" fill="#1a1a4a"/>
  <rect x="16" y="62" width="40" height="4" fill="#1a1a4a"/>
  <rect x="16" y="26" width="4" height="40" fill="#1a1a4a"/>
  <rect x="52" y="26" width="4" height="40" fill="#1a1a4a"/>
  <!-- Clock face -->
  <rect x="24" y="34" width="24" height="24" fill="#0a0a20"/>
  <!-- Clock hands showing ~3:45 AM -->
  <rect x="34" y="36" width="2" height="12" fill="#00fff2" opacity="0.8"/>
  <rect x="36" y="44" width="10" height="2" fill="#8844aa" opacity="0.8"/>
  <!-- Clock center dot -->
  <rect x="34" y="46" width="4" height="4" fill="#00fff2" opacity="0.6"/>
  <!-- Time digits -->
  <rect x="26" y="52" width="4" height="4" fill="#c33" opacity="0.7"/>
  <rect x="32" y="52" width="2" height="4" fill="#c33" opacity="0.7"/>
  <rect x="36" y="52" width="4" height="4" fill="#c33" opacity="0.7"/>
  <rect x="42" y="52" width="4" height="4" fill="#c33" opacity="0.7"/>
  
  <!-- Exhausted student slumped at desk -->
  <!-- Head (face down on desk) -->
  <rect x="130" y="148" width="14" height="10" fill="#d4a574"/>
  <!-- Hair -->
  <rect x="130" y="146" width="14" height="4" fill="#222"/>
  <!-- Arms stretched on desk -->
  <rect x="116" y="152" width="16" height="6" fill="#8844aa"/>
  <rect x="144" y="152" width="16" height="6" fill="#8844aa"/>
  <!-- Body (slumped) -->
  <rect x="128" y="158" width="20" height="20" fill="#8844aa"/>
  <!-- Chair -->
  <rect x="124" y="178" width="28" height="4" fill="#1a1a3a"/>
  <rect x="122" y="168" width="4" height="14" fill="#1a1a3a"/>
  <rect x="150" y="168" width="4" height="14" fill="#1a1a3a"/>
  <!-- Chair back -->
  <rect x="120" y="148" width="4" height="24" fill="#1a1a3a"/>
  <!-- Legs under desk -->
  <rect x="130" y="182" width="6" height="20" fill="#1a1a4a"/>
  <rect x="142" y="182" width="6" height="20" fill="#1a1a4a"/>
  <!-- Chair legs -->
  <rect x="124" y="182" width="4" height="70" fill="#1a1a3a"/>
  <rect x="148" y="182" width="4" height="70" fill="#1a1a3a"/>
  
  <!-- "zzz" sleep indicator -->
  <rect x="150" y="136" width="6" height="4" fill="#00fff2" opacity="0.5"/>
  <rect x="160" y="128" width="8" height="4" fill="#00fff2" opacity="0.4"/>
  <rect x="172" y="118" width="10" height="5" fill="#00fff2" opacity="0.3"/>
  
  <!-- Room floor -->
  <rect x="0" y="252" width="480" height="68" fill="#0c0c22"/>
  
  <!-- Bookshelf on wall (left side) -->
  <rect x="0" y="70" width="30" height="90" fill="#12123a"/>
  <rect x="0" y="68" width="34" height="4" fill="#1a1a4a"/>
  <!-- Books -->
  <rect x="4" y="76" width="6" height="16" fill="#2a6090" opacity="0.6"/>
  <rect x="12" y="76" width="4" height="16" fill="#8844aa" opacity="0.6"/>
  <rect x="18" y="76" width="6" height="16" fill="#2a6090" opacity="0.5"/>
  <rect x="4" y="96" width="8" height="16" fill="#8844aa" opacity="0.5"/>
  <rect x="14" y="96" width="6" height="16" fill="#00fff2" opacity="0.2"/>
  <rect x="22" y="96" width="4" height="16" fill="#2a6090" opacity="0.5"/>
  <rect x="4" y="116" width="4" height="16" fill="#2a6090" opacity="0.4"/>
  <rect x="10" y="116" width="8" height="16" fill="#8844aa" opacity="0.4"/>
  <rect x="20" y="116" width="6" height="16" fill="#2a6090" opacity="0.5"/>
  <!-- Shelf dividers -->
  <rect x="0" y="92" width="30" height="2" fill="#1a1a4a"/>
  <rect x="0" y="112" width="30" height="2" fill="#1a1a4a"/>
  <rect x="0" y="132" width="30" height="2" fill="#1a1a4a"/>
  
  <!-- Neon accent light strip on ceiling -->
  <rect x="0" y="8" width="480" height="2" fill="#8844aa" opacity="0.3"/>
  <rect x="0" y="6" width="480" height="2" fill="#8844aa" opacity="0.15"/>
  
  <!-- Poster on wall -->
  <rect x="70" y="30" width="24" height="32" fill="#12123a"/>
  <rect x="74" y="34" width="16" height="12" fill="#8844aa" opacity="0.3"/>
  <rect x="74" y="50" width="16" height="4" fill="#00fff2" opacity="0.3"/>
  <rect x="74" y="56" width="12" height="2" fill="#2a6090" opacity="0.3"/>
  
  <!-- Trash can with crumpled paper -->
  <rect x="250" y="230" width="16" height="22" fill="#1a1a3a"/>
  <rect x="248" y="228" width="20" height="4" fill="#222250"/>
  <rect x="254" y="224" width="6" height="6" fill="#ddd" opacity="0.1"/>
  <rect x="258" y="220" width="4" height="6" fill="#ddd" opacity="0.08"/>
  
  <!-- Scanlines -->
  <rect x="0" y="0" width="480" height="1" fill="#fff" opacity="0.02"/>
  <rect x="0" y="8" width="480" height="1" fill="#fff" opacity="0.02"/>
  <rect x="0" y="16" width="480" height="1" fill="#fff" opacity="0.02"/>
  <rect x="0" y="24" width="480" height="1" fill="#fff" opacity="0.02"/>
  <rect x="0" y="32" width="480" height="1" fill="#fff" opacity="0.02"/>
  <rect x="0" y="40" width="480" height="1" fill="#fff" opacity="0.02"/>
  <rect x="0" y="48" width="480" height="1" fill="#fff" opacity="0.02"/>
  <rect x="0" y="56" width="480" height="1" fill="#fff" opacity="0.02"/>
  <rect x="0" y="64" width="480" height="1" fill="#fff" opacity="0.02"/>
  <rect x="0" y="72" width="480" height="1" fill="#fff" opacity="0.02"/>
  <rect x="0" y="80" width="480" height="1" fill="#fff" opacity="0.02"/>
  <rect x="0" y="88" width="480" height="1" fill="#fff" opacity="0.02"/>
  <rect x="0" y="96" width="480" height="1" fill="#fff" opacity="0.02"/>
  <rect x="0" y="104" width="480" height="1" fill="#fff" opacity="0.02"/>
  <rect x="0" y="112" width="480" height="1" fill="#fff" opacity="0.02"/>
  <rect x="0" y="120" width="480" height="1" fill="#fff" opacity="0.02"/>
  <rect x="0" y="128" width="480" height="1" fill="#fff" opacity="0.02"/>
  <rect x="0" y="136" width="480" height="1" fill="#fff" opacity="0.02"/>
  <rect x="0" y="144" width="480" height="1" fill="#fff" opacity="0.02"/>
  <rect x="0" y="152" width="480" height="1" fill="#fff" opacity="0.02"/>
  <rect x="0" y="160" width="480" height="1" fill="#fff" opacity="0.02"/>
  <rect x="0" y="168" width="480" height="1" fill="#fff" opacity="0.02"/>
  <rect x="0" y="176" width="480" height="1" fill="#fff" opacity="0.02"/>
  <rect x="0" y="184" width="480" height="1" fill="#fff" opacity="0.02"/>
  <rect x="0" y="192" width="480" height="1" fill="#fff" opacity="0.02"/>
  <rect x="0" y="200" width="480" height="1" fill="#fff" opacity="0.02"/>
  <rect x="0" y="208" width="480" height="1" fill="#fff" opacity="0.02"/>
  <rect x="0" y="216" width="480" height="1" fill="#fff" opacity="0.02"/>
  <rect x="0" y="224" width="480" height="1" fill="#fff" opacity="0.02"/>
  <rect x="0" y="232" width="480" height="1" fill="#fff" opacity="0.02"/>
  <rect x="0" y="240" width="480" height="1" fill="#fff" opacity="0.02"/>
  <rect x="0" y="248" width="480" height="1" fill="#fff" opacity="0.02"/>
  <rect x="0" y="256" width="480" height="1" fill="#fff" opacity="0.02"/>
  <rect x="0" y="264" width="480" height="1" fill="#fff" opacity="0.02"/>
  <rect x="0" y="272" width="480" height="1" fill="#fff" opacity="0.02"/>
  <rect x="0" y="280" width="480" height="1" fill="#fff" opacity="0.02"/>
  <rect x="0" y="288" width="480" height="1" fill="#fff" opacity="0.02"/>
  <rect x="0" y="296" width="480" height="1" fill="#fff" opacity="0.02"/>
  <rect x="0" y="304" width="480" height="1" fill="#fff" opacity="0.02"/>
  <rect x="0" y="312" width="480" height="1" fill="#fff" opacity="0.02"/>
</svg>
