<svg width="480" height="320" xmlns="http://www.w3.org/2000/svg" viewBox="0 0 480 320">
  <defs>
    <filter id="glow6">
      <feGaussianBlur stdDeviation="2" result="blur"/>
      <feMerge><feMergeNode in="blur"/><feMergeNode in="SourceGraphic"/></feMerge>
    </filter>
  </defs>
  <!-- Background -->
  <rect width="480" height="320" fill="#08081a"/>
  <!-- Window (top right) showing dawn breaking -->
  <rect x="320" y="30" width="130" height="90" fill="#0c1228"/>
  <rect x="320" y="30" width="130" height="90" fill="none" stroke="#2a6090" stroke-width="2"/>
  <!-- Window cross frame -->
  <rect x="384" y="30" width="2" height="90" fill="#2a6090"/>
  <rect x="320" y="74" width="130" height="2" fill="#2a6090"/>
  <!-- Dawn sky gradient (rects) -->
  <rect x="322" y="32" width="62" height="10" fill="#1a1040"/>
  <rect x="386" y="32" width="62" height="10" fill="#1a1040"/>
  <rect x="322" y="42" width="62" height="10" fill="#2a1848"/>
  <rect x="386" y="42" width="62" height="10" fill="#2a1848"/>
  <rect x="322" y="52" width="62" height="10" fill="#4a2060"/>
  <rect x="386" y="52" width="62" height="10" fill="#4a2060"/>
  <rect x="322" y="62" width="62" height="10" fill="#6a3070"/>
  <rect x="386" y="62" width="62" height="10" fill="#6a3070"/>
  <!-- Dawn light on horizon -->
  <rect x="322" y="76" width="62" height="8" fill="#884488"/>
  <rect x="386" y="76" width="62" height="8" fill="#884488"/>
  <rect x="322" y="84" width="62" height="10" fill="#aa6644"/>
  <rect x="386" y="84" width="62" height="10" fill="#aa6644"/>
  <rect x="322" y="94" width="62" height="8" fill="#cc8844"/>
  <rect x="386" y="94" width="62" height="8" fill="#cc8844"/>
  <rect x="340" y="98" width="20" height="6" fill="#eebb66" opacity="0.6"/>
  <rect x="410" y="96" width="16" height="6" fill="#eebb66" opacity="0.5"/>
  <!-- City silhouette in window -->
  <rect x="325" y="68" width="8" height="8" fill="#0a0a20"/>
  <rect x="336" y="64" width="6" height="12" fill="#0a0a20"/>
  <rect x="345" y="60" width="10" height="16" fill="#0a0a20"/>
  <rect x="358" y="66" width="8" height="10" fill="#0a0a20"/>
  <rect x="370" y="62" width="6" height="14" fill="#0a0a20"/>
  <rect x="390" y="66" width="10" height="10" fill="#0a0a20"/>
  <rect x="404" y="60" width="8" height="16" fill="#0a0a20"/>
  <rect x="416" y="64" width="12" height="12" fill="#0a0a20"/>
  <rect x="432" y="68" width="8" height="8" fill="#0a0a20"/>
  <!-- Tiny window lights in buildings -->
  <rect x="347" y="62" width="2" height="2" fill="#00fff2" opacity="0.5"/>
  <rect x="351" y="66" width="2" height="2" fill="#eebb66" opacity="0.4"/>
  <rect x="406" y="62" width="2" height="2" fill="#00fff2" opacity="0.4"/>
  <rect x="418" y="66" width="2" height="2" fill="#eebb66" opacity="0.5"/>
  <!-- Stars in window sky -->
  <rect x="330" y="35" width="2" height="2" fill="#fff" opacity="0.5"/>
  <rect x="360" y="38" width="2" height="2" fill="#fff" opacity="0.4"/>
  <rect x="400" y="34" width="2" height="2" fill="#fff" opacity="0.6"/>
  <rect x="430" y="40" width="2" height="2" fill="#fff" opacity="0.3"/>
  <!-- Room wall -->
  <rect x="0" y="0" width="320" height="130" fill="#0d0d28"/>
  <rect x="0" y="130" width="480" height="4" fill="#111138"/>
  <!-- Calendar on wall -->
  <rect x="40" y="40" width="50" height="60" fill="#eee" opacity="0.85"/>
  <rect x="40" y="40" width="50" height="12" fill="#cc3333"/>
  <!-- Calendar month text lines -->
  <rect x="50" y="44" width="30" height="4" fill="#fff" opacity="0.7"/>
  <!-- Calendar grid -->
  <rect x="44" y="56" width="6" height="4" fill="#333" opacity="0.3"/>
  <rect x="52" y="56" width="6" height="4" fill="#333" opacity="0.3"/>
  <rect x="60" y="56" width="6" height="4" fill="#333" opacity="0.3"/>
  <rect x="68" y="56" width="6" height="4" fill="#333" opacity="0.3"/>
  <rect x="76" y="56" width="6" height="4" fill="#333" opacity="0.3"/>
  <rect x="44" y="64" width="6" height="4" fill="#333" opacity="0.3"/>
  <rect x="52" y="64" width="6" height="4" fill="#333" opacity="0.3"/>
  <rect x="60" y="64" width="6" height="4" fill="#333" opacity="0.3"/>
  <rect x="68" y="64" width="6" height="4" fill="#333" opacity="0.3"/>
  <rect x="76" y="64" width="6" height="4" fill="#333" opacity="0.3"/>
  <rect x="44" y="72" width="6" height="4" fill="#333" opacity="0.3"/>
  <rect x="52" y="72" width="6" height="4" fill="#333" opacity="0.3"/>
  <rect x="60" y="72" width="6" height="4" fill="#333" opacity="0.3"/>
  <rect x="68" y="72" width="6" height="4" fill="#333" opacity="0.3"/>
  <rect x="76" y="72" width="6" height="4" fill="#333" opacity="0.3"/>
  <rect x="44" y="80" width="6" height="4" fill="#333" opacity="0.3"/>
  <rect x="52" y="80" width="6" height="4" fill="#333" opacity="0.3"/>
  <rect x="60" y="80" width="6" height="4" fill="#333" opacity="0.3"/>
  <!-- Deadline circled date (red circle approximation) -->
  <rect x="66" y="78" width="10" height="8" fill="none" stroke="#ff3333" stroke-width="2"/>
  <rect x="68" y="80" width="6" height="4" fill="#ff3333" opacity="0.6"/>
  <!-- Desk surface -->
  <rect x="20" y="180" width="440" height="16" fill="#1a1a50"/>
  <rect x="20" y="196" width="440" height="4" fill="#151545"/>
  <!-- Desk legs -->
  <rect x="30" y="200" width="8" height="80" fill="#151545"/>
  <rect x="442" y="200" width="8" height="80" fill="#151545"/>
  <!-- Laptop -->
  <rect x="160" y="140" width="100" height="40" fill="#111133" stroke="#2a6090" stroke-width="1"/>
  <!-- Laptop screen content (document) -->
  <rect x="165" y="144" width="90" height="32" fill="#0a1428"/>
  <rect x="170" y="148" width="60" height="2" fill="#fff" opacity="0.5"/>
  <rect x="170" y="153" width="70" height="2" fill="#fff" opacity="0.3"/>
  <rect x="170" y="158" width="55" height="2" fill="#fff" opacity="0.3"/>
  <rect x="170" y="163" width="65" height="2" fill="#fff" opacity="0.3"/>
  <rect x="170" y="168" width="40" height="2" fill="#fff" opacity="0.3"/>
  <!-- Cursor blink -->
  <rect x="212" y="168" width="2" height="4" fill="#00fff2" opacity="0.8" filter="url(#glow6)"/>
  <!-- Laptop base -->
  <rect x="150" y="180" width="120" height="4" fill="#222255"/>
  <!-- Papers with red ink marks (left of laptop) -->
  <rect x="40" y="160" width="50" height="30" fill="#eee" opacity="0.8"/>
  <rect x="44" y="164" width="30" height="2" fill="#333" opacity="0.3"/>
  <rect x="44" y="169" width="36" height="2" fill="#333" opacity="0.3"/>
  <rect x="44" y="174" width="28" height="2" fill="#333" opacity="0.3"/>
  <rect x="44" y="179" width="32" height="2" fill="#333" opacity="0.3"/>
  <!-- Red ink marks on papers -->
  <rect x="60" y="163" width="16" height="2" fill="#cc3333" opacity="0.6"/>
  <rect x="50" y="168" width="20" height="2" fill="#cc3333" opacity="0.5"/>
  <rect x="55" y="173" width="12" height="3" fill="#cc3333" opacity="0.4"/>
  <rect x="46" y="178" width="18" height="2" fill="#cc3333" opacity="0.5"/>
  <!-- More papers scattered -->
  <rect x="95" y="164" width="40" height="24" fill="#ddd" opacity="0.7"/>
  <rect x="99" y="168" width="24" height="2" fill="#333" opacity="0.3"/>
  <rect x="99" y="173" width="28" height="2" fill="#333" opacity="0.3"/>
  <rect x="105" y="167" width="14" height="2" fill="#cc3333" opacity="0.5"/>
  <rect x="100" y="177" width="10" height="3" fill="#cc3333" opacity="0.4"/>
  <!-- Coffee cup (right of laptop) -->
  <rect x="290" y="166" width="16" height="18" fill="#333366"/>
  <rect x="288" y="166" width="20" height="4" fill="#444488"/>
  <!-- Coffee inside -->
  <rect x="292" y="170" width="12" height="6" fill="#4a2820"/>
  <!-- Coffee steam -->
  <rect x="294" y="160" width="2" height="4" fill="#fff" opacity="0.1"/>
  <rect x="300" y="158" width="2" height="4" fill="#fff" opacity="0.08"/>
  <!-- Cup handle -->
  <rect x="306" y="172" width="4" height="8" fill="#333366"/>
  <rect x="306" y="172" width="4" height="2" fill="#444488"/>
  <rect x="306" y="178" width="4" height="2" fill="#444488"/>
  <!-- Visa documents stack (right side) -->
  <rect x="340" y="156" width="55" height="32" fill="#e8e0cc" opacity="0.85"/>
  <rect x="344" y="160" width="30" height="3" fill="#2a6090" opacity="0.7"/>
  <rect x="344" y="166" width="40" height="2" fill="#333" opacity="0.3"/>
  <rect x="344" y="171" width="36" height="2" fill="#333" opacity="0.3"/>
  <rect x="344" y="176" width="42" height="2" fill="#333" opacity="0.3"/>
  <!-- Passport-like doc -->
  <rect x="350" y="148" width="30" height="20" fill="#1a3366" opacity="0.8"/>
  <rect x="356" y="152" width="18" height="4" fill="#ccaa44" opacity="0.5"/>
  <rect x="358" y="158" width="14" height="6" fill="#e8c8a0" opacity="0.4"/>
  <!-- Second visa doc -->
  <rect x="385" y="158" width="45" height="28" fill="#ddd8c0" opacity="0.8"/>
  <rect x="389" y="162" width="28" height="2" fill="#cc3333" opacity="0.5"/>
  <rect x="389" y="167" width="34" height="2" fill="#333" opacity="0.3"/>
  <rect x="389" y="172" width="30" height="2" fill="#333" opacity="0.3"/>
  <!-- Stamp mark on visa -->
  <rect x="406" y="176" width="12" height="8" fill="#cc3333" opacity="0.25"/>
  <!-- Pen on desk -->
  <rect x="275" y="178" width="30" height="3" fill="#222266"/>
  <rect x="273" y="178" width="4" height="3" fill="#8844aa"/>
  <!-- Floor -->
  <rect x="0" y="280" width="480" height="40" fill="#0a0a22"/>
  <!-- Neon accent strip on desk edge -->
  <rect x="20" y="178" width="440" height="2" fill="#00fff2" opacity="0.12" filter="url(#glow6)"/>
  <!-- Ambient glow from laptop -->
  <rect x="170" y="180" width="80" height="6" fill="#2a6090" opacity="0.1"/>
  <!-- Wall glow from window dawn light -->
  <rect x="300" y="120" width="160" height="10" fill="#6a3050" opacity="0.06"/>
  <!-- Scanlines -->
  <rect x="0" y="0" width="480" height="1" fill="#fff" opacity="0.02"/>
  <rect x="0" y="8" width="480" height="1" fill="#fff" opacity="0.02"/>
  <rect x="0" y="16" width="480" height="1" fill="#fff" opacity="0.02"/>
  <rect x="0" y="24" width="480" height="1" fill="#fff" opacity="0.02"/>
  <rect x="0" y="32" width="480" height="1" fill="#fff" opacity="0.02"/>
  <rect x="0" y="40" width="480" height="1" fill="#fff" opacity="0.02"/>
  <rect x="0" y="48" width="480" height="1" fill="#fff" opacity="0.02"/>
  <rect x="0" y="56" width="480" height="1" fill="#fff" opacity="0.02"/>
  <rect x="0" y="64" width="480" height="1" fill="#fff" opacity="0.02"/>
  <rect x="0" y="72" width="480" height="1" fill="#fff" opacity="0.02"/>
  <rect x="0" y="80" width="480" height="1" fill="#fff" opacity="0.02"/>
  <rect x="0" y="88" width="480" height="1" fill="#fff" opacity="0.02"/>
  <rect x="0" y="96" width="480" height="1" fill="#fff" opacity="0.02"/>
  <rect x="0" y="104" width="480" height="1" fill="#fff" opacity="0.02"/>
  <rect x="0" y="112" width="480" height="1" fill="#fff" opacity="0.02"/>
  <rect x="0" y="120" width="480" height="1" fill="#fff" opacity="0.02"/>
  <rect x="0" y="128" width="480" height="1" fill="#fff" opacity="0.02"/>
  <rect x="0" y="136" width="480" height="1" fill="#fff" opacity="0.02"/>
  <rect x="0" y="144" width="480" height="1" fill="#fff" opacity="0.02"/>
  <rect x="0" y="152" width="480" height="1" fill="#fff" opacity="0.02"/>
  <rect x="0" y="160" width="480" height="1" fill="#fff" opacity="0.02"/>
  <rect x="0" y="168" width="480" height="1" fill="#fff" opacity="0.02"/>
  <rect x="0" y="176" width="480" height="1" fill="#fff" opacity="0.02"/>
  <rect x="0" y="184" width="480" height="1" fill="#fff" opacity="0.02"/>
  <rect x="0" y="192" width="480" height="1" fill="#fff" opacity="0.02"/>
  <rect x="0" y="200" width="480" height="1" fill="#fff" opacity="0.02"/>
  <rect x="0" y="208" width="480" height="1" fill="#fff" opacity="0.02"/>
  <rect x="0" y="216" width="480" height="1" fill="#fff" opacity="0.02"/>
  <rect x="0" y="224" width="480" height="1" fill="#fff" opacity="0.02"/>
  <rect x="0" y="232" width="480" height="1" fill="#fff" opacity="0.02"/>
  <rect x="0" y="240" width="480" height="1" fill="#fff" opacity="0.02"/>
  <rect x="0" y="248" width="480" height="1" fill="#fff" opacity="0.02"/>
  <rect x="0" y="256" width="480" height="1" fill="#fff" opacity="0.02"/>
  <rect x="0" y="264" width="480" height="1" fill="#fff" opacity="0.02"/>
  <rect x="0" y="272" width="480" height="1" fill="#fff" opacity="0.02"/>
  <rect x="0" y="280" width="480" height="1" fill="#fff" opacity="0.02"/>
  <rect x="0" y="288" width="480" height="1" fill="#fff" opacity="0.02"/>
  <rect x="0" y="296" width="480" height="1" fill="#fff" opacity="0.02"/>
  <rect x="0" y="304" width="480" height="1" fill="#fff" opacity="0.02"/>
  <rect x="0" y="312" width="480" height="1" fill="#fff" opacity="0.02"/>
</svg>
