<svg width="480" height="320" xmlns="http://www.w3.org/2000/svg" viewBox="0 0 480 320">
  <!-- Background -->
  <rect width="480" height="320" fill="#08081a"/>
  <!-- Stars -->
  <rect x="30" y="6" width="2" height="2" fill="#fff" opacity="0.5"/>
  <rect x="100" y="14" width="2" height="2" fill="#fff" opacity="0.6"/>
  <rect x="380" y="10" width="2" height="2" fill="#fff" opacity="0.4"/>
  <rect x="450" y="20" width="2" height="2" fill="#fff" opacity="0.5"/>
  <rect x="260" y="8" width="2" height="2" fill="#fff" opacity="0.3"/>
  <!-- Background urban buildings - dense Kowloon Tong -->
  <rect x="0" y="80" width="30" height="160" fill="#0e0e28"/>
  <rect x="4" y="90" width="8" height="8" fill="#2a6090" opacity="0.1"/>
  <rect x="16" y="100" width="8" height="8" fill="#00fff2" opacity="0.08"/>
  <rect x="4" y="110" width="8" height="8" fill="#8844aa" opacity="0.08"/>
  <rect x="16" y="120" width="8" height="8" fill="#2a6090" opacity="0.1"/>
  <rect x="34" y="100" width="40" height="140" fill="#0c0c26"/>
  <rect x="38" y="108" width="8" height="8" fill="#2a6090" opacity="0.08"/>
  <rect x="54" y="114" width="8" height="8" fill="#00fff2" opacity="0.1"/>
  <rect x="38" y="128" width="8" height="8" fill="#00fff2" opacity="0.06"/>
  <rect x="54" y="136" width="8" height="8" fill="#8844aa" opacity="0.08"/>
  <rect x="78" y="110" width="36" height="130" fill="#0a0a24"/>
  <rect x="82" y="118" width="8" height="8" fill="#2a6090" opacity="0.1"/>
  <rect x="98" y="124" width="8" height="8" fill="#00fff2" opacity="0.08"/>
  <rect x="82" y="138" width="8" height="8" fill="#8844aa" opacity="0.06"/>
  <!-- Background buildings right -->
  <rect x="380" y="90" width="40" height="150" fill="#0c0c26"/>
  <rect x="384" y="98" width="8" height="8" fill="#2a6090" opacity="0.1"/>
  <rect x="400" y="108" width="8" height="8" fill="#00fff2" opacity="0.08"/>
  <rect x="384" y="120" width="8" height="8" fill="#00fff2" opacity="0.06"/>
  <rect x="424" y="100" width="36" height="140" fill="#0e0e28"/>
  <rect x="428" y="108" width="8" height="8" fill="#8844aa" opacity="0.08"/>
  <rect x="444" y="116" width="8" height="8" fill="#2a6090" opacity="0.1"/>
  <rect x="428" y="128" width="8" height="8" fill="#00fff2" opacity="0.08"/>
  <rect x="462" y="80" width="18" height="160" fill="#0a0a24"/>
  <rect x="466" y="90" width="8" height="8" fill="#2a6090" opacity="0.08"/>
  <!-- CityU Main Tower -->
  <rect x="180" y="30" width="80" height="210" fill="#141438"/>
  <rect x="184" y="34" width="72" height="202" fill="#101030"/>
  <!-- Tower windows grid -->
  <rect x="190" y="40" width="10" height="8" fill="#2a6090" opacity="0.2"/>
  <rect x="204" y="40" width="10" height="8" fill="#00fff2" opacity="0.12"/>
  <rect x="218" y="40" width="10" height="8" fill="#2a6090" opacity="0.15"/>
  <rect x="232" y="40" width="10" height="8" fill="#2a6090" opacity="0.2"/>
  <rect x="246" y="40" width="10" height="8" fill="#8844aa" opacity="0.1"/>
  <rect x="190" y="54" width="10" height="8" fill="#00fff2" opacity="0.1"/>
  <rect x="204" y="54" width="10" height="8" fill="#2a6090" opacity="0.2"/>
  <rect x="218" y="54" width="10" height="8" fill="#8844aa" opacity="0.12"/>
  <rect x="232" y="54" width="10" height="8" fill="#2a6090" opacity="0.15"/>
  <rect x="246" y="54" width="10" height="8" fill="#00fff2" opacity="0.08"/>
  <rect x="190" y="68" width="10" height="8" fill="#2a6090" opacity="0.15"/>
  <rect x="204" y="68" width="10" height="8" fill="#2a6090" opacity="0.1"/>
  <rect x="218" y="68" width="10" height="8" fill="#00fff2" opacity="0.15"/>
  <rect x="232" y="68" width="10" height="8" fill="#00fff2" opacity="0.1"/>
  <rect x="246" y="68" width="10" height="8" fill="#2a6090" opacity="0.2"/>
  <rect x="190" y="82" width="10" height="8" fill="#8844aa" opacity="0.1"/>
  <rect x="204" y="82" width="10" height="8" fill="#00fff2" opacity="0.12"/>
  <rect x="218" y="82" width="10" height="8" fill="#2a6090" opacity="0.2"/>
  <rect x="232" y="82" width="10" height="8" fill="#2a6090" opacity="0.12"/>
  <rect x="246" y="82" width="10" height="8" fill="#00fff2" opacity="0.15"/>
  <rect x="190" y="96" width="10" height="8" fill="#2a6090" opacity="0.2"/>
  <rect x="204" y="96" width="10" height="8" fill="#2a6090" opacity="0.15"/>
  <rect x="218" y="96" width="10" height="8" fill="#00fff2" opacity="0.1"/>
  <rect x="232" y="96" width="10" height="8" fill="#8844aa" opacity="0.12"/>
  <rect x="246" y="96" width="10" height="8" fill="#2a6090" opacity="0.18"/>
  <rect x="190" y="110" width="10" height="8" fill="#00fff2" opacity="0.12"/>
  <rect x="204" y="110" width="10" height="8" fill="#8844aa" opacity="0.08"/>
  <rect x="218" y="110" width="10" height="8" fill="#2a6090" opacity="0.18"/>
  <rect x="232" y="110" width="10" height="8" fill="#00fff2" opacity="0.1"/>
  <rect x="246" y="110" width="10" height="8" fill="#2a6090" opacity="0.15"/>
  <rect x="190" y="124" width="10" height="8" fill="#2a6090" opacity="0.15"/>
  <rect x="204" y="124" width="10" height="8" fill="#2a6090" opacity="0.2"/>
  <rect x="218" y="124" width="10" height="8" fill="#00fff2" opacity="0.12"/>
  <rect x="232" y="124" width="10" height="8" fill="#2a6090" opacity="0.18"/>
  <rect x="246" y="124" width="10" height="8" fill="#8844aa" opacity="0.1"/>
  <rect x="190" y="138" width="10" height="8" fill="#2a6090" opacity="0.1"/>
  <rect x="204" y="138" width="10" height="8" fill="#00fff2" opacity="0.15"/>
  <rect x="218" y="138" width="10" height="8" fill="#2a6090" opacity="0.12"/>
  <rect x="232" y="138" width="10" height="8" fill="#00fff2" opacity="0.08"/>
  <rect x="246" y="138" width="10" height="8" fill="#2a6090" opacity="0.2"/>
  <!-- Tower second section -->
  <rect x="264" y="60" width="50" height="180" fill="#121232"/>
  <rect x="268" y="64" width="42" height="172" fill="#0e0e2c"/>
  <!-- Tower 2 windows -->
  <rect x="272" y="70" width="10" height="8" fill="#2a6090" opacity="0.15"/>
  <rect x="286" y="70" width="10" height="8" fill="#00fff2" opacity="0.1"/>
  <rect x="300" y="70" width="8" height="8" fill="#2a6090" opacity="0.2"/>
  <rect x="272" y="84" width="10" height="8" fill="#00fff2" opacity="0.08"/>
  <rect x="286" y="84" width="10" height="8" fill="#2a6090" opacity="0.15"/>
  <rect x="300" y="84" width="8" height="8" fill="#8844aa" opacity="0.1"/>
  <rect x="272" y="98" width="10" height="8" fill="#2a6090" opacity="0.12"/>
  <rect x="286" y="98" width="10" height="8" fill="#8844aa" opacity="0.08"/>
  <rect x="300" y="98" width="8" height="8" fill="#00fff2" opacity="0.12"/>
  <!-- CityU Neon Sign -->
  <rect x="192" y="152" width="56" height="12" fill="#08081a"/>
  <!-- C -->
  <rect x="198" y="154" width="8" height="8" fill="#00fff2" opacity="0.9"/>
  <rect x="200" y="156" width="4" height="4" fill="#08081a"/>
  <rect x="204" y="156" width="2" height="4" fill="#08081a"/>
  <!-- i -->
  <rect x="210" y="154" width="2" height="2" fill="#00fff2" opacity="0.9"/>
  <rect x="210" y="158" width="2" height="4" fill="#00fff2" opacity="0.9"/>
  <!-- t -->
  <rect x="216" y="154" width="6" height="2" fill="#00fff2" opacity="0.9"/>
  <rect x="218" y="154" width="2" height="8" fill="#00fff2" opacity="0.9"/>
  <!-- y -->
  <rect x="224" y="154" width="2" height="4" fill="#00fff2" opacity="0.9"/>
  <rect x="230" y="154" width="2" height="4" fill="#00fff2" opacity="0.9"/>
  <rect x="224" y="158" width="8" height="2" fill="#00fff2" opacity="0.9"/>
  <rect x="230" y="160" width="2" height="4" fill="#00fff2" opacity="0.9"/>
  <!-- U -->
  <rect x="236" y="154" width="2" height="8" fill="#00fff2" opacity="0.9"/>
  <rect x="244" y="154" width="2" height="8" fill="#00fff2" opacity="0.9"/>
  <rect x="236" y="160" width="10" height="2" fill="#00fff2" opacity="0.9"/>
  <!-- Neon glow -->
  <rect x="188" y="150" width="64" height="16" fill="#00fff2" opacity="0.04"/>
  <!-- Festival Walk mall hint - connected structure -->
  <rect x="120" y="200" width="60" height="40" fill="#12122e"/>
  <rect x="124" y="204" width="52" height="32" fill="#0e0e28"/>
  <rect x="128" y="208" width="12" height="8" fill="#00fff2" opacity="0.1"/>
  <rect x="144" y="208" width="12" height="8" fill="#8844aa" opacity="0.08"/>
  <rect x="160" y="208" width="12" height="8" fill="#00fff2" opacity="0.12"/>
  <rect x="128" y="220" width="44" height="4" fill="#00fff2" opacity="0.04"/>
  <!-- Escalators -->
  <rect x="160" y="210" width="20" height="30" fill="#0a0a22"/>
  <rect x="164" y="212" width="4" height="26" fill="#1a1a3a"/>
  <rect x="172" y="212" width="4" height="26" fill="#1a1a3a"/>
  <!-- Escalator steps -->
  <rect x="164" y="216" width="4" height="1" fill="#2a2a4a"/>
  <rect x="164" y="220" width="4" height="1" fill="#2a2a4a"/>
  <rect x="164" y="224" width="4" height="1" fill="#2a2a4a"/>
  <rect x="164" y="228" width="4" height="1" fill="#2a2a4a"/>
  <rect x="164" y="232" width="4" height="1" fill="#2a2a4a"/>
  <rect x="172" y="218" width="4" height="1" fill="#2a2a4a"/>
  <rect x="172" y="222" width="4" height="1" fill="#2a2a4a"/>
  <rect x="172" y="226" width="4" height="1" fill="#2a2a4a"/>
  <rect x="172" y="230" width="4" height="1" fill="#2a2a4a"/>
  <!-- Student with coffee -->
  <rect x="290" y="224" width="8" height="4" fill="#dda088"/>
  <rect x="288" y="228" width="12" height="10" fill="#8844aa" opacity="0.8"/>
  <rect x="288" y="238" width="4" height="6" fill="#1a1a3a"/>
  <rect x="296" y="238" width="4" height="6" fill="#1a1a3a"/>
  <!-- Coffee cup -->
  <rect x="300" y="228" width="4" height="6" fill="#dda060"/>
  <rect x="299" y="226" width="6" height="2" fill="#dda060"/>
  <!-- Steam from coffee -->
  <rect x="300" y="222" width="2" height="2" fill="#fff" opacity="0.1"/>
  <rect x="302" y="220" width="2" height="2" fill="#fff" opacity="0.06"/>
  <!-- Ground -->
  <rect x="0" y="240" width="480" height="80" fill="#0c0c24"/>
  <rect x="0" y="240" width="480" height="2" fill="#1a1a40"/>
  <!-- Ground neon reflections -->
  <rect x="200" y="244" width="40" height="2" fill="#00fff2" opacity="0.05"/>
  <rect x="280" y="246" width="30" height="2" fill="#8844aa" opacity="0.04"/>
  <!-- Scanlines -->
  <g opacity="0.02" fill="#fff">
    <rect x="0" y="0" width="480" height="1"/><rect x="0" y="8" width="480" height="1"/>
    <rect x="0" y="16" width="480" height="1"/><rect x="0" y="24" width="480" height="1"/>
    <rect x="0" y="32" width="480" height="1"/><rect x="0" y="40" width="480" height="1"/>
    <rect x="0" y="48" width="480" height="1"/><rect x="0" y="56" width="480" height="1"/>
    <rect x="0" y="64" width="480" height="1"/><rect x="0" y="72" width="480" height="1"/>
    <rect x="0" y="80" width="480" height="1"/><rect x="0" y="88" width="480" height="1"/>
    <rect x="0" y="96" width="480" height="1"/><rect x="0" y="104" width="480" height="1"/>
    <rect x="0" y="112" width="480" height="1"/><rect x="0" y="120" width="480" height="1"/>
    <rect x="0" y="128" width="480" height="1"/><rect x="0" y="136" width="480" height="1"/>
    <rect x="0" y="144" width="480" height="1"/><rect x="0" y="152" width="480" height="1"/>
    <rect x="0" y="160" width="480" height="1"/><rect x="0" y="168" width="480" height="1"/>
    <rect x="0" y="176" width="480" height="1"/><rect x="0" y="184" width="480" height="1"/>
    <rect x="0" y="192" width="480" height="1"/><rect x="0" y="200" width="480" height="1"/>
    <rect x="0" y="208" width="480" height="1"/><rect x="0" y="216" width="480" height="1"/>
    <rect x="0" y="224" width="480" height="1"/><rect x="0" y="232" width="480" height="1"/>
    <rect x="0" y="240" width="480" height="1"/><rect x="0" y="248" width="480" height="1"/>
    <rect x="0" y="256" width="480" height="1"/><rect x="0" y="264" width="480" height="1"/>
    <rect x="0" y="272" width="480" height="1"/><rect x="0" y="280" width="480" height="1"/>
    <rect x="0" y="288" width="480" height="1"/><rect x="0" y="296" width="480" height="1"/>
    <rect x="0" y="304" width="480" height="1"/><rect x="0" y="312" width="480" height="1"/>
  </g>
</svg>
