<svg width="480" height="320" xmlns="http://www.w3.org/2000/svg" viewBox="0 0 480 320">
  <!-- Background -->
  <rect width="480" height="320" fill="#08081a"/>
  <!-- Stars -->
  <rect x="40" y="8" width="2" height="2" fill="#fff" opacity="0.6"/>
  <rect x="110" y="20" width="2" height="2" fill="#fff" opacity="0.4"/>
  <rect x="200" y="12" width="2" height="2" fill="#fff" opacity="0.7"/>
  <rect x="290" y="6" width="2" height="2" fill="#fff" opacity="0.5"/>
  <rect x="380" y="16" width="2" height="2" fill="#fff" opacity="0.3"/>
  <rect x="440" y="24" width="2" height="2" fill="#fff" opacity="0.6"/>
  <rect x="160" y="30" width="2" height="2" fill="#fff" opacity="0.4"/>
  <rect x="350" y="32" width="2" height="2" fill="#fff" opacity="0.5"/>
  <!-- Wind diagonal lines -->
  <rect x="60" y="60" width="20" height="1" fill="#fff" opacity="0.03" transform="rotate(-15 70 60)"/>
  <rect x="140" y="50" width="24" height="1" fill="#fff" opacity="0.02" transform="rotate(-15 152 50)"/>
  <rect x="300" y="44" width="18" height="1" fill="#fff" opacity="0.03" transform="rotate(-15 309 44)"/>
  <rect x="400" y="56" width="22" height="1" fill="#fff" opacity="0.02" transform="rotate(-15 411 56)"/>
  <!-- Modern glass building - main structure -->
  <rect x="140" y="80" width="160" height="130" fill="#101838"/>
  <rect x="144" y="84" width="152" height="122" fill="#0c1430"/>
  <!-- Glass panels / windows grid -->
  <rect x="150" y="88" width="20" height="14" fill="#2a6090" opacity="0.3"/>
  <rect x="174" y="88" width="20" height="14" fill="#2a6090" opacity="0.2"/>
  <rect x="198" y="88" width="20" height="14" fill="#2a6090" opacity="0.35"/>
  <rect x="222" y="88" width="20" height="14" fill="#2a6090" opacity="0.25"/>
  <rect x="246" y="88" width="20" height="14" fill="#2a6090" opacity="0.3"/>
  <rect x="270" y="88" width="20" height="14" fill="#2a6090" opacity="0.2"/>
  <rect x="150" y="106" width="20" height="14" fill="#2a6090" opacity="0.25"/>
  <rect x="174" y="106" width="20" height="14" fill="#2a6090" opacity="0.35"/>
  <rect x="198" y="106" width="20" height="14" fill="#2a6090" opacity="0.2"/>
  <rect x="222" y="106" width="20" height="14" fill="#00fff2" opacity="0.15"/>
  <rect x="246" y="106" width="20" height="14" fill="#2a6090" opacity="0.3"/>
  <rect x="270" y="106" width="20" height="14" fill="#2a6090" opacity="0.25"/>
  <rect x="150" y="124" width="20" height="14" fill="#2a6090" opacity="0.3"/>
  <rect x="174" y="124" width="20" height="14" fill="#2a6090" opacity="0.2"/>
  <rect x="198" y="124" width="20" height="14" fill="#8844aa" opacity="0.15"/>
  <rect x="222" y="124" width="20" height="14" fill="#2a6090" opacity="0.3"/>
  <rect x="246" y="124" width="20" height="14" fill="#2a6090" opacity="0.2"/>
  <rect x="270" y="124" width="20" height="14" fill="#00fff2" opacity="0.1"/>
  <rect x="150" y="142" width="20" height="14" fill="#2a6090" opacity="0.2"/>
  <rect x="174" y="142" width="20" height="14" fill="#00fff2" opacity="0.1"/>
  <rect x="198" y="142" width="20" height="14" fill="#2a6090" opacity="0.3"/>
  <rect x="222" y="142" width="20" height="14" fill="#2a6090" opacity="0.25"/>
  <rect x="246" y="142" width="20" height="14" fill="#8844aa" opacity="0.12"/>
  <rect x="270" y="142" width="20" height="14" fill="#2a6090" opacity="0.2"/>
  <rect x="150" y="160" width="20" height="14" fill="#2a6090" opacity="0.25"/>
  <rect x="174" y="160" width="20" height="14" fill="#2a6090" opacity="0.3"/>
  <rect x="198" y="160" width="20" height="14" fill="#2a6090" opacity="0.2"/>
  <rect x="222" y="160" width="20" height="14" fill="#2a6090" opacity="0.35"/>
  <rect x="246" y="160" width="20" height="14" fill="#2a6090" opacity="0.25"/>
  <rect x="270" y="160" width="20" height="14" fill="#2a6090" opacity="0.3"/>
  <rect x="150" y="178" width="20" height="14" fill="#2a6090" opacity="0.3"/>
  <rect x="174" y="178" width="20" height="14" fill="#2a6090" opacity="0.2"/>
  <rect x="198" y="178" width="20" height="14" fill="#2a6090" opacity="0.25"/>
  <rect x="222" y="178" width="20" height="14" fill="#00fff2" opacity="0.12"/>
  <rect x="246" y="178" width="20" height="14" fill="#2a6090" opacity="0.3"/>
  <rect x="270" y="178" width="20" height="14" fill="#2a6090" opacity="0.2"/>
  <!-- Building roof line -->
  <rect x="138" y="76" width="164" height="4" fill="#1a2848"/>
  <!-- HKUST Neon Sign -->
  <rect x="170" y="68" width="100" height="10" fill="#08081a"/>
  <!-- H -->
  <rect x="178" y="70" width="2" height="6" fill="#00fff2" opacity="0.9"/>
  <rect x="184" y="70" width="2" height="6" fill="#00fff2" opacity="0.9"/>
  <rect x="178" y="72" width="8" height="2" fill="#00fff2" opacity="0.9"/>
  <!-- K -->
  <rect x="190" y="70" width="2" height="6" fill="#00fff2" opacity="0.9"/>
  <rect x="192" y="72" width="2" height="2" fill="#00fff2" opacity="0.9"/>
  <rect x="194" y="70" width="2" height="2" fill="#00fff2" opacity="0.9"/>
  <rect x="194" y="74" width="2" height="2" fill="#00fff2" opacity="0.9"/>
  <!-- U -->
  <rect x="200" y="70" width="2" height="6" fill="#00fff2" opacity="0.9"/>
  <rect x="206" y="70" width="2" height="6" fill="#00fff2" opacity="0.9"/>
  <rect x="200" y="74" width="8" height="2" fill="#00fff2" opacity="0.9"/>
  <!-- S -->
  <rect x="212" y="70" width="8" height="2" fill="#00fff2" opacity="0.9"/>
  <rect x="212" y="72" width="2" height="2" fill="#00fff2" opacity="0.9"/>
  <rect x="212" y="72" width="8" height="2" fill="#00fff2" opacity="0.9"/>
  <rect x="218" y="74" width="2" height="2" fill="#00fff2" opacity="0.9"/>
  <rect x="212" y="74" width="8" height="2" fill="#00fff2" opacity="0.9"/>
  <!-- T -->
  <rect x="224" y="70" width="8" height="2" fill="#00fff2" opacity="0.9"/>
  <rect x="226" y="70" width="4" height="6" fill="#00fff2" opacity="0.9"/>
  <!-- Neon glow -->
  <rect x="166" y="66" width="108" height="14" fill="#00fff2" opacity="0.04"/>
  <!-- Sundial / iconic sculpture -->
  <rect x="90" y="190" width="4" height="20" fill="#2a2a4a"/>
  <rect x="80" y="188" width="24" height="4" fill="#3a3a5a"/>
  <rect x="86" y="184" width="12" height="4" fill="#3a3a5a"/>
  <rect x="90" y="180" width="4" height="4" fill="#00fff2" opacity="0.4"/>
  <!-- Cliff edge -->
  <rect x="0" y="210" width="480" height="6" fill="#1a1a3a"/>
  <rect x="0" y="216" width="60" height="104" fill="#101030"/>
  <rect x="60" y="216" width="80" height="104" fill="#0c0c28"/>
  <rect x="300" y="216" width="80" height="104" fill="#0c0c28"/>
  <rect x="380" y="216" width="100" height="104" fill="#101030"/>
  <!-- Ocean / Clear Water Bay -->
  <rect x="0" y="220" width="480" height="100" fill="#081830"/>
  <rect x="0" y="230" width="480" height="90" fill="#0a1c38"/>
  <rect x="0" y="250" width="480" height="70" fill="#0c2040"/>
  <!-- Wave lines -->
  <rect x="20" y="234" width="40" height="2" fill="#2a6090" opacity="0.2"/>
  <rect x="100" y="240" width="60" height="2" fill="#2a6090" opacity="0.15"/>
  <rect x="200" y="236" width="50" height="2" fill="#2a6090" opacity="0.2"/>
  <rect x="300" y="242" width="40" height="2" fill="#2a6090" opacity="0.15"/>
  <rect x="380" y="238" width="60" height="2" fill="#2a6090" opacity="0.2"/>
  <rect x="50" y="252" width="30" height="2" fill="#2a6090" opacity="0.1"/>
  <rect x="160" y="256" width="40" height="2" fill="#2a6090" opacity="0.12"/>
  <rect x="260" y="254" width="50" height="2" fill="#2a6090" opacity="0.1"/>
  <rect x="360" y="258" width="30" height="2" fill="#2a6090" opacity="0.12"/>
  <!-- Neon reflection on water -->
  <rect x="200" y="226" width="40" height="2" fill="#00fff2" opacity="0.06"/>
  <rect x="210" y="234" width="20" height="2" fill="#00fff2" opacity="0.04"/>
  <!-- Ground/cliff top -->
  <rect x="140" y="210" width="160" height="10" fill="#0c0c28"/>
  <rect x="60" y="206" width="80" height="8" fill="#101030"/>
  <rect x="300" y="206" width="120" height="8" fill="#101030"/>
  <!-- Isolated feeling - empty space around building -->
  <rect x="310" y="180" width="30" height="30" fill="#0a0a22" opacity="0.5"/>
  <rect x="100" y="196" width="30" height="14" fill="#0a0a22" opacity="0.3"/>
  <!-- Scanlines -->
  <g opacity="0.02" fill="#fff">
    <rect x="0" y="0" width="480" height="1"/><rect x="0" y="8" width="480" height="1"/>
    <rect x="0" y="16" width="480" height="1"/><rect x="0" y="24" width="480" height="1"/>
    <rect x="0" y="32" width="480" height="1"/><rect x="0" y="40" width="480" height="1"/>
    <rect x="0" y="48" width="480" height="1"/><rect x="0" y="56" width="480" height="1"/>
    <rect x="0" y="64" width="480" height="1"/><rect x="0" y="72" width="480" height="1"/>
    <rect x="0" y="80" width="480" height="1"/><rect x="0" y="88" width="480" height="1"/>
    <rect x="0" y="96" width="480" height="1"/><rect x="0" y="104" width="480" height="1"/>
    <rect x="0" y="112" width="480" height="1"/><rect x="0" y="120" width="480" height="1"/>
    <rect x="0" y="128" width="480" height="1"/><rect x="0" y="136" width="480" height="1"/>
    <rect x="0" y="144" width="480" height="1"/><rect x="0" y="152" width="480" height="1"/>
    <rect x="0" y="160" width="480" height="1"/><rect x="0" y="168" width="480" height="1"/>
    <rect x="0" y="176" width="480" height="1"/><rect x="0" y="184" width="480" height="1"/>
    <rect x="0" y="192" width="480" height="1"/><rect x="0" y="200" width="480" height="1"/>
    <rect x="0" y="208" width="480" height="1"/><rect x="0" y="216" width="480" height="1"/>
    <rect x="0" y="224" width="480" height="1"/><rect x="0" y="232" width="480" height="1"/>
    <rect x="0" y="240" width="480" height="1"/><rect x="0" y="248" width="480" height="1"/>
    <rect x="0" y="256" width="480" height="1"/><rect x="0" y="264" width="480" height="1"/>
    <rect x="0" y="272" width="480" height="1"/><rect x="0" y="280" width="480" height="1"/>
    <rect x="0" y="288" width="480" height="1"/><rect x="0" y="296" width="480" height="1"/>
    <rect x="0" y="304" width="480" height="1"/><rect x="0" y="312" width="480" height="1"/>
  </g>
</svg>
