<svg width="480" height="320" xmlns="http://www.w3.org/2000/svg" viewBox="0 0 480 320">
  <defs>
    <filter id="career-glow"><feGaussianBlur stdDeviation="2" result="blur"/><feMerge><feMergeNode in="blur"/><feMergeNode in="SourceGraphic"/></feMerge></filter>
  </defs>
  <!-- Background -->
  <rect width="480" height="320" fill="#08081a"/>
  <!-- Stars -->
  <rect x="40" y="8" width="2" height="2" fill="#fff" opacity="0.5"/>
  <rect x="180" y="5" width="2" height="2" fill="#fff" opacity="0.6"/>
  <rect x="350" y="10" width="2" height="2" fill="#fff" opacity="0.4"/>
  <rect x="450" y="6" width="2" height="2" fill="#00fff2" opacity="0.3"/>
  <!-- Office building exterior -->
  <rect x="60" y="20" width="360" height="300" fill="#0c0c2a"/>
  <rect x="60" y="20" width="360" height="4" fill="#1a1a44"/>
  <!-- Building facade windows (upper floors) -->
  <rect x="80" y="30" width="14" height="10" fill="#2a6090" opacity="0.3"/>
  <rect x="110" y="30" width="14" height="10" fill="#00fff2" opacity="0.2"/>
  <rect x="140" y="30" width="14" height="10" fill="#2a6090" opacity="0.25"/>
  <rect x="170" y="30" width="14" height="10" fill="#00fff2" opacity="0.3"/>
  <rect x="200" y="30" width="14" height="10" fill="#2a6090" opacity="0.2"/>
  <rect x="270" y="30" width="14" height="10" fill="#00fff2" opacity="0.25"/>
  <rect x="300" y="30" width="14" height="10" fill="#2a6090" opacity="0.3"/>
  <rect x="330" y="30" width="14" height="10" fill="#00fff2" opacity="0.2"/>
  <rect x="360" y="30" width="14" height="10" fill="#2a6090" opacity="0.25"/>
  <rect x="390" y="30" width="14" height="10" fill="#00fff2" opacity="0.3"/>
  <rect x="80" y="50" width="14" height="10" fill="#00fff2" opacity="0.2"/>
  <rect x="110" y="50" width="14" height="10" fill="#2a6090" opacity="0.3"/>
  <rect x="140" y="50" width="14" height="10" fill="#00fff2" opacity="0.25"/>
  <rect x="170" y="50" width="14" height="10" fill="#2a6090" opacity="0.2"/>
  <rect x="300" y="50" width="14" height="10" fill="#00fff2" opacity="0.3"/>
  <rect x="330" y="50" width="14" height="10" fill="#2a6090" opacity="0.25"/>
  <rect x="360" y="50" width="14" height="10" fill="#00fff2" opacity="0.2"/>
  <rect x="390" y="50" width="14" height="10" fill="#2a6090" opacity="0.3"/>
  <!-- Lobby area -->
  <rect x="60" y="90" width="360" height="230" fill="#0e0e30"/>
  <rect x="60" y="90" width="360" height="3" fill="#2a6090" opacity="0.4"/>
  <!-- Lobby floor -->
  <rect x="60" y="250" width="360" height="70" fill="#0a0a24"/>
  <rect x="60" y="250" width="360" height="2" fill="#1a1a44"/>
  <!-- Floor tiles -->
  <rect x="100" y="260" width="40" height="2" fill="#1a1a40" opacity="0.3"/>
  <rect x="200" y="260" width="40" height="2" fill="#1a1a40" opacity="0.3"/>
  <rect x="300" y="260" width="40" height="2" fill="#1a1a40" opacity="0.3"/>
  <rect x="150" y="280" width="40" height="2" fill="#1a1a40" opacity="0.2"/>
  <rect x="250" y="280" width="40" height="2" fill="#1a1a40" opacity="0.2"/>
  <!-- Revolving door (center) -->
  <rect x="200" y="160" width="80" height="90" fill="#0a0a22"/>
  <rect x="200" y="160" width="80" height="4" fill="#2a6090" opacity="0.5"/>
  <rect x="200" y="160" width="4" height="90" fill="#1a1a50"/>
  <rect x="276" y="160" width="4" height="90" fill="#1a1a50"/>
  <!-- Door glass panels -->
  <rect x="210" y="170" width="26" height="75" fill="#2a6090" opacity="0.15"/>
  <rect x="244" y="170" width="26" height="75" fill="#2a6090" opacity="0.15"/>
  <!-- Door divider (revolving) -->
  <rect x="238" y="165" width="4" height="80" fill="#1a1a50"/>
  <!-- Elevator doors (left) -->
  <rect x="80" y="130" width="50" height="80" fill="#0a0a22"/>
  <rect x="80" y="130" width="50" height="4" fill="#2a6090" opacity="0.4"/>
  <rect x="80" y="132" width="24" height="76" fill="#121240"/>
  <rect x="106" y="132" width="24" height="76" fill="#121240"/>
  <rect x="103" y="132" width="4" height="76" fill="#1a1a50"/>
  <!-- Elevator indicator -->
  <rect x="98" y="122" width="12" height="6" fill="#0a0a22"/>
  <rect x="100" y="123" width="8" height="4" fill="#00fff2" opacity="0.6" filter="url(#career-glow)"/>
  <!-- Elevator doors (right) -->
  <rect x="350" y="130" width="50" height="80" fill="#0a0a22"/>
  <rect x="350" y="130" width="50" height="4" fill="#2a6090" opacity="0.4"/>
  <rect x="350" y="132" width="24" height="76" fill="#121240"/>
  <rect x="376" y="132" width="24" height="76" fill="#121240"/>
  <rect x="373" y="132" width="4" height="76" fill="#1a1a50"/>
  <rect x="368" y="122" width="12" height="6" fill="#0a0a22"/>
  <rect x="370" y="123" width="8" height="4" fill="#2a6090" opacity="0.5"/>
  <!-- Reception desk -->
  <rect x="300" y="220" width="80" height="30" fill="#151545"/>
  <rect x="300" y="220" width="80" height="3" fill="#2a6090" opacity="0.4"/>
  <rect x="310" y="225" width="20" height="10" fill="#0a0a22"/>
  <rect x="312" y="227" width="16" height="6" fill="#00fff2" opacity="0.3"/>
  <!-- HIRING sign -->
  <rect x="160" y="100" width="80" height="20" fill="#8844aa" opacity="0.15" filter="url(#career-glow)"/>
  <!-- H -->
  <rect x="165" y="104" width="2" height="12" fill="#00fff2" filter="url(#career-glow)"/>
  <rect x="167" y="109" width="6" height="2" fill="#00fff2"/>
  <rect x="173" y="104" width="2" height="12" fill="#00fff2"/>
  <!-- I -->
  <rect x="179" y="104" width="2" height="12" fill="#00fff2"/>
  <!-- R -->
  <rect x="185" y="104" width="2" height="12" fill="#00fff2"/>
  <rect x="187" y="104" width="6" height="2" fill="#00fff2"/>
  <rect x="193" y="106" width="2" height="3" fill="#00fff2"/>
  <rect x="187" y="109" width="6" height="2" fill="#00fff2"/>
  <rect x="191" y="111" width="2" height="3" fill="#00fff2"/>
  <rect x="193" y="113" width="2" height="3" fill="#00fff2"/>
  <!-- I -->
  <rect x="199" y="104" width="2" height="12" fill="#00fff2"/>
  <!-- N -->
  <rect x="205" y="104" width="2" height="12" fill="#00fff2"/>
  <rect x="207" y="106" width="2" height="2" fill="#00fff2"/>
  <rect x="209" y="108" width="2" height="2" fill="#00fff2"/>
  <rect x="211" y="110" width="2" height="2" fill="#00fff2"/>
  <rect x="213" y="104" width="2" height="12" fill="#00fff2"/>
  <!-- G -->
  <rect x="219" y="104" width="8" height="2" fill="#00fff2"/>
  <rect x="219" y="104" width="2" height="12" fill="#00fff2"/>
  <rect x="219" y="114" width="8" height="2" fill="#00fff2"/>
  <rect x="225" y="110" width="2" height="6" fill="#00fff2"/>
  <rect x="223" y="110" width="4" height="2" fill="#00fff2"/>
  <!-- Potted plant -->
  <rect x="150" y="230" width="16" height="20" fill="#0a3020"/>
  <rect x="148" y="225" width="20" height="8" fill="#0a4030"/>
  <rect x="152" y="218" width="4" height="8" fill="#0a4030"/>
  <rect x="158" y="215" width="4" height="10" fill="#0a4030"/>
  <rect x="150" y="212" width="6" height="6" fill="#0a5030"/>
  <rect x="158" y="210" width="6" height="6" fill="#0a5030"/>
  <!-- Figure in suit with briefcase -->
  <rect x="230" y="228" width="10" height="10" fill="#2a6090" opacity="0.6"/>
  <rect x="231" y="238" width="8" height="14" fill="#101040"/>
  <rect x="230" y="252" width="3" height="10" fill="#101040"/>
  <rect x="237" y="252" width="3" height="10" fill="#101040"/>
  <!-- Briefcase -->
  <rect x="242" y="244" width="10" height="8" fill="#1a1a50"/>
  <rect x="242" y="244" width="10" height="2" fill="#2a6090" opacity="0.4"/>
  <rect x="246" y="242" width="2" height="3" fill="#1a1a50"/>
  <!-- Phone with rejection email -->
  <rect x="222" y="238" width="7" height="12" fill="#0a0a20"/>
  <rect x="223" y="240" width="5" height="8" fill="#aa2244" opacity="0.4"/>
  <rect x="224" y="241" width="3" height="1" fill="#fff" opacity="0.3"/>
  <rect x="224" y="243" width="3" height="1" fill="#fff" opacity="0.2"/>
  <!-- LinkedIn hint on reception screen -->
  <rect x="313" y="228" width="4" height="4" fill="#2a6090" opacity="0.6"/>
  <!-- Lobby ceiling lights -->
  <rect x="120" y="95" width="30" height="3" fill="#00fff2" opacity="0.15" filter="url(#career-glow)"/>
  <rect x="240" y="95" width="30" height="3" fill="#00fff2" opacity="0.15" filter="url(#career-glow)"/>
  <rect x="350" y="95" width="30" height="3" fill="#00fff2" opacity="0.15" filter="url(#career-glow)"/>
  <!-- Scanlines -->
  <rect x="0" y="0" width="480" height="1" fill="#fff" opacity="0.02"/>
  <rect x="0" y="8" width="480" height="1" fill="#fff" opacity="0.02"/>
  <rect x="0" y="16" width="480" height="1" fill="#fff" opacity="0.02"/>
  <rect x="0" y="24" width="480" height="1" fill="#fff" opacity="0.02"/>
  <rect x="0" y="32" width="480" height="1" fill="#fff" opacity="0.02"/>
  <rect x="0" y="40" width="480" height="1" fill="#fff" opacity="0.02"/>
  <rect x="0" y="48" width="480" height="1" fill="#fff" opacity="0.02"/>
  <rect x="0" y="56" width="480" height="1" fill="#fff" opacity="0.02"/>
  <rect x="0" y="64" width="480" height="1" fill="#fff" opacity="0.02"/>
  <rect x="0" y="72" width="480" height="1" fill="#fff" opacity="0.02"/>
  <rect x="0" y="80" width="480" height="1" fill="#fff" opacity="0.02"/>
  <rect x="0" y="88" width="480" height="1" fill="#fff" opacity="0.02"/>
  <rect x="0" y="96" width="480" height="1" fill="#fff" opacity="0.02"/>
  <rect x="0" y="104" width="480" height="1" fill="#fff" opacity="0.02"/>
  <rect x="0" y="112" width="480" height="1" fill="#fff" opacity="0.02"/>
  <rect x="0" y="120" width="480" height="1" fill="#fff" opacity="0.02"/>
  <rect x="0" y="128" width="480" height="1" fill="#fff" opacity="0.02"/>
  <rect x="0" y="136" width="480" height="1" fill="#fff" opacity="0.02"/>
  <rect x="0" y="144" width="480" height="1" fill="#fff" opacity="0.02"/>
  <rect x="0" y="152" width="480" height="1" fill="#fff" opacity="0.02"/>
  <rect x="0" y="160" width="480" height="1" fill="#fff" opacity="0.02"/>
  <rect x="0" y="168" width="480" height="1" fill="#fff" opacity="0.02"/>
  <rect x="0" y="176" width="480" height="1" fill="#fff" opacity="0.02"/>
  <rect x="0" y="184" width="480" height="1" fill="#fff" opacity="0.02"/>
  <rect x="0" y="192" width="480" height="1" fill="#fff" opacity="0.02"/>
  <rect x="0" y="200" width="480" height="1" fill="#fff" opacity="0.02"/>
  <rect x="0" y="208" width="480" height="1" fill="#fff" opacity="0.02"/>
  <rect x="0" y="216" width="480" height="1" fill="#fff" opacity="0.02"/>
  <rect x="0" y="224" width="480" height="1" fill="#fff" opacity="0.02"/>
  <rect x="0" y="232" width="480" height="1" fill="#fff" opacity="0.02"/>
  <rect x="0" y="240" width="480" height="1" fill="#fff" opacity="0.02"/>
  <rect x="0" y="248" width="480" height="1" fill="#fff" opacity="0.02"/>
  <rect x="0" y="256" width="480" height="1" fill="#fff" opacity="0.02"/>
  <rect x="0" y="264" width="480" height="1" fill="#fff" opacity="0.02"/>
  <rect x="0" y="272" width="480" height="1" fill="#fff" opacity="0.02"/>
  <rect x="0" y="280" width="480" height="1" fill="#fff" opacity="0.02"/>
  <rect x="0" y="288" width="480" height="1" fill="#fff" opacity="0.02"/>
  <rect x="0" y="296" width="480" height="1" fill="#fff" opacity="0.02"/>
  <rect x="0" y="304" width="480" height="1" fill="#fff" opacity="0.02"/>
  <rect x="0" y="312" width="480" height="1" fill="#fff" opacity="0.02"/>
</svg>
