<svg width="480" height="320" xmlns="http://www.w3.org/2000/svg" viewBox="0 0 480 320">
  <!-- Background -->
  <rect width="480" height="320" fill="#08081a"/>
  <!-- Floor -->
  <rect x="0" y="280" width="480" height="40" fill="#0c0c24"/>
  <!-- Walls -->
  <rect x="0" y="0" width="12" height="280" fill="#0e0e28"/>
  <rect x="468" y="0" width="12" height="280" fill="#0e0e28"/>
  <!-- Ceiling -->
  <rect x="0" y="0" width="480" height="20" fill="#0a0a20"/>
  <!-- Dim overhead light -->
  <rect x="220" y="18" width="40" height="4" fill="#443322" opacity="0.6"/>
  <rect x="226" y="22" width="28" height="2" fill="#665533" opacity="0.4"/>
  <!-- Light cone (dim) -->
  <rect x="200" y="24" width="80" height="4" fill="#443322" opacity="0.06"/>
  <rect x="180" y="28" width="120" height="4" fill="#443322" opacity="0.04"/>
  <rect x="160" y="32" width="160" height="8" fill="#443322" opacity="0.03"/>
  <!-- Bookshelf left -->
  <rect x="16" y="40" width="80" height="200" fill="#12122e"/>
  <rect x="18" y="42" width="76" height="4" fill="#1a1a38"/>
  <!-- Shelf 1 -->
  <rect x="18" y="46" width="76" height="2" fill="#2a6090" opacity="0.3"/>
  <rect x="20" y="48" width="10" height="28" fill="#8844aa" opacity="0.6"/>
  <rect x="32" y="52" width="8" height="24" fill="#2a6090" opacity="0.6"/>
  <rect x="42" y="48" width="12" height="28" fill="#00fff2" opacity="0.2"/>
  <rect x="56" y="50" width="8" height="26" fill="#8844aa" opacity="0.4"/>
  <rect x="66" y="48" width="10" height="28" fill="#2a6090" opacity="0.5"/>
  <rect x="78" y="52" width="14" height="24" fill="#443366"/>
  <!-- Shelf 2 -->
  <rect x="18" y="78" width="76" height="2" fill="#2a6090" opacity="0.3"/>
  <rect x="20" y="80" width="12" height="28" fill="#2a6090" opacity="0.5"/>
  <rect x="34" y="84" width="8" height="24" fill="#8844aa" opacity="0.5"/>
  <rect x="44" y="80" width="10" height="28" fill="#334466"/>
  <rect x="56" y="82" width="14" height="26" fill="#00fff2" opacity="0.15"/>
  <rect x="72" y="80" width="8" height="28" fill="#553366"/>
  <rect x="82" y="84" width="10" height="24" fill="#2a6090" opacity="0.4"/>
  <!-- Shelf 3 -->
  <rect x="18" y="110" width="76" height="2" fill="#2a6090" opacity="0.3"/>
  <rect x="22" y="112" width="14" height="28" fill="#443366"/>
  <rect x="38" y="116" width="8" height="24" fill="#8844aa" opacity="0.4"/>
  <rect x="48" y="112" width="10" height="28" fill="#2a6090" opacity="0.6"/>
  <rect x="60" y="114" width="12" height="26" fill="#334455"/>
  <rect x="74" y="112" width="8" height="28" fill="#00fff2" opacity="0.15"/>
  <!-- Shelf 4 -->
  <rect x="18" y="142" width="76" height="2" fill="#2a6090" opacity="0.3"/>
  <rect x="20" y="144" width="10" height="28" fill="#553355"/>
  <rect x="32" y="148" width="12" height="24" fill="#2a6090" opacity="0.5"/>
  <rect x="46" y="144" width="8" height="28" fill="#8844aa" opacity="0.5"/>
  <rect x="56" y="146" width="14" height="26" fill="#334466"/>
  <rect x="72" y="144" width="10" height="28" fill="#443366"/>
  <!-- Bookshelf right -->
  <rect x="384" y="40" width="80" height="200" fill="#12122e"/>
  <rect x="386" y="42" width="76" height="4" fill="#1a1a38"/>
  <rect x="386" y="46" width="76" height="2" fill="#2a6090" opacity="0.3"/>
  <rect x="388" y="48" width="10" height="28" fill="#2a6090" opacity="0.6"/>
  <rect x="400" y="52" width="12" height="24" fill="#8844aa" opacity="0.5"/>
  <rect x="414" y="48" width="8" height="28" fill="#334466"/>
  <rect x="424" y="50" width="14" height="26" fill="#00fff2" opacity="0.15"/>
  <rect x="440" y="48" width="10" height="28" fill="#553366"/>
  <rect x="386" y="78" width="76" height="2" fill="#2a6090" opacity="0.3"/>
  <rect x="390" y="80" width="8" height="28" fill="#443366"/>
  <rect x="400" y="84" width="12" height="24" fill="#2a6090" opacity="0.5"/>
  <rect x="414" y="80" width="10" height="28" fill="#8844aa" opacity="0.4"/>
  <rect x="426" y="82" width="14" height="26" fill="#334455"/>
  <rect x="442" y="80" width="10" height="28" fill="#553355"/>
  <rect x="386" y="110" width="76" height="2" fill="#2a6090" opacity="0.3"/>
  <rect x="388" y="112" width="12" height="28" fill="#334466"/>
  <rect x="402" y="116" width="10" height="24" fill="#00fff2" opacity="0.15"/>
  <rect x="414" y="112" width="8" height="28" fill="#8844aa" opacity="0.5"/>
  <rect x="424" y="114" width="14" height="26" fill="#2a6090" opacity="0.5"/>
  <!-- Desk (center) -->
  <rect x="140" y="210" width="200" height="8" fill="#1a1a3a"/>
  <rect x="140" y="218" width="8" height="60" fill="#151530"/>
  <rect x="332" y="218" width="8" height="60" fill="#151530"/>
  <rect x="148" y="216" width="184" height="4" fill="#111128"/>
  <!-- Laptop on desk -->
  <rect x="200" y="190" width="60" height="4" fill="#222244"/>
  <rect x="204" y="170" width="52" height="20" fill="#111130"/>
  <rect x="206" y="172" width="48" height="16" fill="#0a1a2a"/>
  <!-- Screen content - code/formulas -->
  <rect x="210" y="174" width="30" height="2" fill="#00fff2" opacity="0.4"/>
  <rect x="210" y="178" width="20" height="2" fill="#8844aa" opacity="0.3"/>
  <rect x="210" y="182" width="36" height="2" fill="#00fff2" opacity="0.3"/>
  <!-- Stacked books on desk -->
  <rect x="160" y="198" width="28" height="6" fill="#8844aa" opacity="0.6"/>
  <rect x="158" y="192" width="30" height="6" fill="#2a6090" opacity="0.7"/>
  <rect x="162" y="186" width="24" height="6" fill="#443366"/>
  <rect x="156" y="204" width="32" height="6" fill="#334466"/>
  <!-- More books right side -->
  <rect x="280" y="200" width="24" height="6" fill="#553355"/>
  <rect x="278" y="194" width="28" height="6" fill="#2a6090" opacity="0.6"/>
  <rect x="282" y="188" width="20" height="6" fill="#8844aa" opacity="0.5"/>
  <!-- Student figure hunched over -->
  <rect x="230" y="188" width="12" height="12" fill="#334455"/>
  <rect x="232" y="182" width="8" height="6" fill="#aabb99"/>
  <rect x="224" y="196" width="8" height="4" fill="#334455"/>
  <rect x="240" y="196" width="8" height="4" fill="#334455"/>
  <!-- Scattered papers with F grades -->
  <rect x="270" y="206" width="12" height="8" fill="#ddddcc" opacity="0.3"/>
  <rect x="274" y="208" width="4" height="4" fill="#ff3344" opacity="0.5"/>
  <rect x="300" y="208" width="10" height="8" fill="#ddddcc" opacity="0.25"/>
  <rect x="302" y="210" width="4" height="4" fill="#ff3344" opacity="0.5"/>
  <rect x="150" y="208" width="10" height="6" fill="#ddddcc" opacity="0.2"/>
  <rect x="152" y="209" width="4" height="3" fill="#ff3344" opacity="0.4"/>
  <!-- Whiteboard on back wall -->
  <rect x="120" y="50" width="240" height="100" fill="#181838"/>
  <rect x="124" y="54" width="232" height="92" fill="#1a1a40"/>
  <!-- Whiteboard formulas -->
  <rect x="132" y="62" width="40" height="2" fill="#00fff2" opacity="0.3"/>
  <rect x="132" y="68" width="60" height="2" fill="#00fff2" opacity="0.25"/>
  <rect x="132" y="74" width="30" height="2" fill="#8844aa" opacity="0.25"/>
  <rect x="132" y="80" width="50" height="2" fill="#00fff2" opacity="0.2"/>
  <rect x="200" y="62" width="4" height="2" fill="#8844aa" opacity="0.3"/>
  <rect x="210" y="62" width="20" height="2" fill="#00fff2" opacity="0.2"/>
  <rect x="200" y="74" width="40" height="2" fill="#8844aa" opacity="0.2"/>
  <rect x="260" y="62" width="30" height="2" fill="#00fff2" opacity="0.25"/>
  <rect x="260" y="68" width="50" height="2" fill="#8844aa" opacity="0.2"/>
  <rect x="260" y="80" width="20" height="2" fill="#00fff2" opacity="0.3"/>
  <rect x="132" y="100" width="80" height="2" fill="#00fff2" opacity="0.15"/>
  <rect x="132" y="106" width="60" height="2" fill="#8844aa" opacity="0.15"/>
  <rect x="260" y="100" width="40" height="2" fill="#00fff2" opacity="0.2"/>
  <!-- Clock showing midnight -->
  <rect x="380" y="50" width="24" height="24" fill="#111130"/>
  <rect x="382" y="52" width="20" height="20" fill="#0a0a22"/>
  <rect x="390" y="54" width="4" height="10" fill="#00fff2" opacity="0.5"/>
  <rect x="394" y="62" width="6" height="2" fill="#00fff2" opacity="0.4"/>
  <rect x="392" y="52" width="2" height="2" fill="#ff3344" opacity="0.4"/>
  <!-- Star/glow accents -->
  <rect x="430" y="16" width="2" height="2" fill="#ffffff" opacity="0.5"/>
  <rect x="110" y="12" width="2" height="2" fill="#00fff2" opacity="0.4"/>
  <rect x="350" y="10" width="2" height="2" fill="#8844aa" opacity="0.5"/>
  <rect x="50" y="260" width="2" height="2" fill="#00fff2" opacity="0.1"/>
  <!-- Scanlines -->
  <rect x="0" y="0" width="480" height="1" fill="#ffffff" opacity="0.02"/>
  <rect x="0" y="8" width="480" height="1" fill="#ffffff" opacity="0.02"/>
  <rect x="0" y="16" width="480" height="1" fill="#ffffff" opacity="0.02"/>
  <rect x="0" y="24" width="480" height="1" fill="#ffffff" opacity="0.02"/>
  <rect x="0" y="32" width="480" height="1" fill="#ffffff" opacity="0.02"/>
  <rect x="0" y="40" width="480" height="1" fill="#ffffff" opacity="0.02"/>
  <rect x="0" y="48" width="480" height="1" fill="#ffffff" opacity="0.02"/>
  <rect x="0" y="56" width="480" height="1" fill="#ffffff" opacity="0.02"/>
  <rect x="0" y="64" width="480" height="1" fill="#ffffff" opacity="0.02"/>
  <rect x="0" y="72" width="480" height="1" fill="#ffffff" opacity="0.02"/>
  <rect x="0" y="80" width="480" height="1" fill="#ffffff" opacity="0.02"/>
  <rect x="0" y="88" width="480" height="1" fill="#ffffff" opacity="0.02"/>
  <rect x="0" y="96" width="480" height="1" fill="#ffffff" opacity="0.02"/>
  <rect x="0" y="104" width="480" height="1" fill="#ffffff" opacity="0.02"/>
  <rect x="0" y="112" width="480" height="1" fill="#ffffff" opacity="0.02"/>
  <rect x="0" y="120" width="480" height="1" fill="#ffffff" opacity="0.02"/>
  <rect x="0" y="128" width="480" height="1" fill="#ffffff" opacity="0.02"/>
  <rect x="0" y="136" width="480" height="1" fill="#ffffff" opacity="0.02"/>
  <rect x="0" y="144" width="480" height="1" fill="#ffffff" opacity="0.02"/>
  <rect x="0" y="152" width="480" height="1" fill="#ffffff" opacity="0.02"/>
  <rect x="0" y="160" width="480" height="1" fill="#ffffff" opacity="0.02"/>
  <rect x="0" y="168" width="480" height="1" fill="#ffffff" opacity="0.02"/>
  <rect x="0" y="176" width="480" height="1" fill="#ffffff" opacity="0.02"/>
  <rect x="0" y="184" width="480" height="1" fill="#ffffff" opacity="0.02"/>
  <rect x="0" y="192" width="480" height="1" fill="#ffffff" opacity="0.02"/>
  <rect x="0" y="200" width="480" height="1" fill="#ffffff" opacity="0.02"/>
  <rect x="0" y="208" width="480" height="1" fill="#ffffff" opacity="0.02"/>
  <rect x="0" y="216" width="480" height="1" fill="#ffffff" opacity="0.02"/>
  <rect x="0" y="224" width="480" height="1" fill="#ffffff" opacity="0.02"/>
  <rect x="0" y="232" width="480" height="1" fill="#ffffff" opacity="0.02"/>
  <rect x="0" y="240" width="480" height="1" fill="#ffffff" opacity="0.02"/>
  <rect x="0" y="248" width="480" height="1" fill="#ffffff" opacity="0.02"/>
  <rect x="0" y="256" width="480" height="1" fill="#ffffff" opacity="0.02"/>
  <rect x="0" y="264" width="480" height="1" fill="#ffffff" opacity="0.02"/>
  <rect x="0" y="272" width="480" height="1" fill="#ffffff" opacity="0.02"/>
  <rect x="0" y="280" width="480" height="1" fill="#ffffff" opacity="0.02"/>
  <rect x="0" y="288" width="480" height="1" fill="#ffffff" opacity="0.02"/>
  <rect x="0" y="296" width="480" height="1" fill="#ffffff" opacity="0.02"/>
  <rect x="0" y="304" width="480" height="1" fill="#ffffff" opacity="0.02"/>
  <rect x="0" y="312" width="480" height="1" fill="#ffffff" opacity="0.02"/>
</svg>
