<svg width="480" height="320" xmlns="http://www.w3.org/2000/svg" viewBox="0 0 480 320">
  <!-- Background - dim room -->
  <rect width="480" height="320" fill="#08081a"/>
  <!-- Floor -->
  <rect x="0" y="260" width="480" height="60" fill="#0a0a22"/>
  <!-- Walls -->
  <rect x="0" y="0" width="480" height="260" fill="#0c0c24"/>
  <!-- Wall texture -->
  <rect x="0" y="80" width="480" height="2" fill="#0a0a20"/>
  <rect x="0" y="160" width="480" height="2" fill="#0a0a20"/>
  <!-- Single light bulb hanging from ceiling -->
  <rect x="236" y="0" width="8" height="40" fill="#111128"/>
  <rect x="230" y="40" width="20" height="12" fill="#1a1a38"/>
  <rect x="234" y="42" width="12" height="8" fill="#443322" opacity="0.8"/>
  <!-- Light glow -->
  <rect x="200" y="52" width="80" height="8" fill="#443322" opacity="0.08"/>
  <rect x="170" y="60" width="140" height="8" fill="#443322" opacity="0.05"/>
  <rect x="140" y="68" width="200" height="12" fill="#443322" opacity="0.03"/>
  <!-- Table -->
  <rect x="100" y="180" width="280" height="8" fill="#1a1a3a"/>
  <rect x="104" y="188" width="4" height="72" fill="#151530"/>
  <rect x="372" y="188" width="4" height="72" fill="#151530"/>
  <rect x="100" y="178" width="280" height="4" fill="#18183a"/>
  <!-- Empty wallet open on table -->
  <rect x="140" y="160" width="40" height="20" fill="#332222"/>
  <rect x="142" y="162" width="36" height="16" fill="#221818"/>
  <rect x="180" y="160" width="40" height="20" fill="#3a2828"/>
  <rect x="182" y="162" width="36" height="16" fill="#2a1e1e"/>
  <!-- Empty wallet interior slots -->
  <rect x="184" y="164" width="32" height="4" fill="#1a1212" opacity="0.6"/>
  <rect x="184" y="170" width="32" height="4" fill="#1a1212" opacity="0.6"/>
  <rect x="144" y="164" width="16" height="12" fill="#1a1212" opacity="0.5"/>
  <!-- Scattered coins -->
  <rect x="240" y="168" width="6" height="6" fill="#8844aa" opacity="0.4"/>
  <rect x="252" y="172" width="4" height="4" fill="#665533" opacity="0.5"/>
  <rect x="260" y="166" width="6" height="6" fill="#8844aa" opacity="0.3"/>
  <rect x="232" y="174" width="4" height="4" fill="#665533" opacity="0.4"/>
  <rect x="268" y="170" width="4" height="4" fill="#665533" opacity="0.3"/>
  <!-- Rent notice paper -->
  <rect x="290" y="150" width="60" height="40" fill="#ddddcc" opacity="0.2"/>
  <rect x="294" y="154" width="52" height="4" fill="#111130" opacity="0.15"/>
  <rect x="294" y="162" width="40" height="2" fill="#111130" opacity="0.1"/>
  <rect x="294" y="168" width="48" height="2" fill="#111130" opacity="0.1"/>
  <rect x="294" y="174" width="36" height="2" fill="#111130" opacity="0.1"/>
  <!-- 逾期 red stamp -->
  <rect x="306" y="176" width="28" height="12" fill="#ff3344" opacity="0.3"/>
  <rect x="308" y="178" width="10" height="8" fill="#ff3344" opacity="0.5"/>
  <rect x="320" y="178" width="10" height="8" fill="#ff3344" opacity="0.5"/>
  <!-- Phone on table showing bank app -->
  <rect x="360" y="148" width="28" height="48" fill="#111130"/>
  <rect x="362" y="152" width="24" height="40" fill="#0a0a22"/>
  <!-- Phone screen - bank app -->
  <rect x="364" y="154" width="20" height="4" fill="#2a6090" opacity="0.4"/>
  <rect x="364" y="160" width="20" height="2" fill="#00fff2" opacity="0.2"/>
  <!-- Low balance number -->
  <rect x="366" y="166" width="16" height="6" fill="#ff3344" opacity="0.3"/>
  <rect x="364" y="176" width="20" height="2" fill="#333355" opacity="0.3"/>
  <rect x="364" y="182" width="20" height="2" fill="#333355" opacity="0.3"/>
  <!-- Phone glow -->
  <rect x="358" y="146" width="32" height="2" fill="#2a6090" opacity="0.08"/>
  <!-- Ramen cup noodle -->
  <rect x="120" y="148" width="24" height="32" fill="#1a1a38"/>
  <rect x="118" y="146" width="28" height="4" fill="#222244"/>
  <rect x="122" y="150" width="20" height="2" fill="#8844aa" opacity="0.2"/>
  <rect x="124" y="156" width="16" height="2" fill="#00fff2" opacity="0.1"/>
  <rect x="122" y="162" width="20" height="2" fill="#8844aa" opacity="0.15"/>
  <!-- Chopsticks sticking out -->
  <rect x="130" y="136" width="2" height="14" fill="#665544" opacity="0.6"/>
  <rect x="136" y="134" width="2" height="16" fill="#665544" opacity="0.6"/>
  <!-- Stack of bills/papers on table edge -->
  <rect x="400" y="168" width="40" height="4" fill="#ddddcc" opacity="0.12"/>
  <rect x="402" y="164" width="36" height="4" fill="#ddddcc" opacity="0.1"/>
  <rect x="404" y="160" width="32" height="4" fill="#ddddcc" opacity="0.08"/>
  <!-- Red text on bills -->
  <rect x="406" y="170" width="20" height="2" fill="#ff3344" opacity="0.2"/>
  <rect x="408" y="166" width="16" height="2" fill="#ff3344" opacity="0.15"/>
  <!-- Window (dark, no view - nighttime) -->
  <rect x="40" y="60" width="60" height="80" fill="#0a0a20"/>
  <rect x="38" y="58" width="64" height="4" fill="#1a1a3a"/>
  <rect x="38" y="140" width="64" height="4" fill="#1a1a3a"/>
  <rect x="38" y="58" width="4" height="86" fill="#1a1a3a"/>
  <rect x="98" y="58" width="4" height="86" fill="#1a1a3a"/>
  <rect x="68" y="60" width="2" height="80" fill="#1a1a3a"/>
  <rect x="40" y="98" width="60" height="2" fill="#1a1a3a"/>
  <!-- Faint city lights through window -->
  <rect x="44" y="110" width="2" height="4" fill="#00fff2" opacity="0.1"/>
  <rect x="52" y="108" width="2" height="6" fill="#8844aa" opacity="0.08"/>
  <rect x="60" y="112" width="2" height="4" fill="#00fff2" opacity="0.06"/>
  <rect x="76" y="106" width="2" height="8" fill="#8844aa" opacity="0.1"/>
  <rect x="84" y="110" width="2" height="4" fill="#00fff2" opacity="0.08"/>
  <rect x="90" y="108" width="2" height="6" fill="#8844aa" opacity="0.06"/>
  <!-- Calculator on table -->
  <rect x="200" y="160" width="20" height="24" fill="#111130"/>
  <rect x="202" y="162" width="16" height="8" fill="#0a1a20"/>
  <rect x="204" y="164" width="12" height="4" fill="#00fff2" opacity="0.2"/>
  <rect x="202" y="172" width="4" height="4" fill="#1a1a3a"/>
  <rect x="208" y="172" width="4" height="4" fill="#1a1a3a"/>
  <rect x="214" y="172" width="4" height="4" fill="#1a1a3a"/>
  <rect x="202" y="178" width="4" height="4" fill="#1a1a3a"/>
  <rect x="208" y="178" width="4" height="4" fill="#1a1a3a"/>
  <rect x="214" y="178" width="4" height="4" fill="#1a1a3a"/>
  <!-- Crumpled receipts on floor -->
  <rect x="160" y="270" width="8" height="6" fill="#ddddcc" opacity="0.08"/>
  <rect x="300" y="276" width="10" height="6" fill="#ddddcc" opacity="0.06"/>
  <rect x="80" y="274" width="8" height="4" fill="#ddddcc" opacity="0.07"/>
  <!-- Star/glow accents -->
  <rect x="460" y="20" width="2" height="2" fill="#ffffff" opacity="0.4"/>
  <rect x="420" y="40" width="2" height="2" fill="#00fff2" opacity="0.3"/>
  <rect x="20" y="30" width="2" height="2" fill="#8844aa" opacity="0.3"/>
  <!-- Bulb glow halo -->
  <rect x="232" y="48" width="16" height="4" fill="#ffaa44" opacity="0.06"/>
  <rect x="228" y="44" width="24" height="4" fill="#ffaa44" opacity="0.03"/>
  <!-- Scanlines -->
  <rect x="0" y="0" width="480" height="1" fill="#ffffff" opacity="0.02"/>
  <rect x="0" y="8" width="480" height="1" fill="#ffffff" opacity="0.02"/>
  <rect x="0" y="16" width="480" height="1" fill="#ffffff" opacity="0.02"/>
  <rect x="0" y="24" width="480" height="1" fill="#ffffff" opacity="0.02"/>
  <rect x="0" y="32" width="480" height="1" fill="#ffffff" opacity="0.02"/>
  <rect x="0" y="40" width="480" height="1" fill="#ffffff" opacity="0.02"/>
  <rect x="0" y="48" width="480" height="1" fill="#ffffff" opacity="0.02"/>
  <rect x="0" y="56" width="480" height="1" fill="#ffffff" opacity="0.02"/>
  <rect x="0" y="64" width="480" height="1" fill="#ffffff" opacity="0.02"/>
  <rect x="0" y="72" width="480" height="1" fill="#ffffff" opacity="0.02"/>
  <rect x="0" y="80" width="480" height="1" fill="#ffffff" opacity="0.02"/>
  <rect x="0" y="88" width="480" height="1" fill="#ffffff" opacity="0.02"/>
  <rect x="0" y="96" width="480" height="1" fill="#ffffff" opacity="0.02"/>
  <rect x="0" y="104" width="480" height="1" fill="#ffffff" opacity="0.02"/>
  <rect x="0" y="112" width="480" height="1" fill="#ffffff" opacity="0.02"/>
  <rect x="0" y="120" width="480" height="1" fill="#ffffff" opacity="0.02"/>
  <rect x="0" y="128" width="480" height="1" fill="#ffffff" opacity="0.02"/>
  <rect x="0" y="136" width="480" height="1" fill="#ffffff" opacity="0.02"/>
  <rect x="0" y="144" width="480" height="1" fill="#ffffff" opacity="0.02"/>
  <rect x="0" y="152" width="480" height="1" fill="#ffffff" opacity="0.02"/>
  <rect x="0" y="160" width="480" height="1" fill="#ffffff" opacity="0.02"/>
  <rect x="0" y="168" width="480" height="1" fill="#ffffff" opacity="0.02"/>
  <rect x="0" y="176" width="480" height="1" fill="#ffffff" opacity="0.02"/>
  <rect x="0" y="184" width="480" height="1" fill="#ffffff" opacity="0.02"/>
  <rect x="0" y="192" width="480" height="1" fill="#ffffff" opacity="0.02"/>
  <rect x="0" y="200" width="480" height="1" fill="#ffffff" opacity="0.02"/>
  <rect x="0" y="208" width="480" height="1" fill="#ffffff" opacity="0.02"/>
  <rect x="0" y="216" width="480" height="1" fill="#ffffff" opacity="0.02"/>
  <rect x="0" y="224" width="480" height="1" fill="#ffffff" opacity="0.02"/>
  <rect x="0" y="232" width="480" height="1" fill="#ffffff" opacity="0.02"/>
  <rect x="0" y="240" width="480" height="1" fill="#ffffff" opacity="0.02"/>
  <rect x="0" y="248" width="480" height="1" fill="#ffffff" opacity="0.02"/>
  <rect x="0" y="256" width="480" height="1" fill="#ffffff" opacity="0.02"/>
  <rect x="0" y="264" width="480" height="1" fill="#ffffff" opacity="0.02"/>
  <rect x="0" y="272" width="480" height="1" fill="#ffffff" opacity="0.02"/>
  <rect x="0" y="280" width="480" height="1" fill="#ffffff" opacity="0.02"/>
  <rect x="0" y="288" width="480" height="1" fill="#ffffff" opacity="0.02"/>
  <rect x="0" y="296" width="480" height="1" fill="#ffffff" opacity="0.02"/>
  <rect x="0" y="304" width="480" height="1" fill="#ffffff" opacity="0.02"/>
  <rect x="0" y="312" width="480" height="1" fill="#ffffff" opacity="0.02"/>
</svg>
