<svg width="480" height="320" xmlns="http://www.w3.org/2000/svg" viewBox="0 0 480 320">
  <defs>
    <filter id="social-glow"><feGaussianBlur stdDeviation="2" result="blur"/><feMerge><feMergeNode in="blur"/><feMergeNode in="SourceGraphic"/></feMerge></filter>
  </defs>
  <!-- Background -->
  <rect width="480" height="320" fill="#08081a"/>
  <!-- City skyline background -->
  <rect x="0" y="80" width="480" height="2" fill="#2a6090" opacity="0.1"/>
  <rect x="20" y="60" width="30" height="80" fill="#0a0a22"/>
  <rect x="60" y="40" width="20" height="100" fill="#0c0c28"/>
  <rect x="90" y="55" width="25" height="85" fill="#0b0b25"/>
  <rect x="130" y="30" width="15" height="110" fill="#0a0a22"/>
  <rect x="160" y="50" width="30" height="90" fill="#0c0c28"/>
  <rect x="200" y="35" width="20" height="105" fill="#0b0b25"/>
  <rect x="240" y="45" width="35" height="95" fill="#0a0a22"/>
  <rect x="290" y="25" width="18" height="115" fill="#0c0c28"/>
  <rect x="320" y="55" width="28" height="85" fill="#0b0b25"/>
  <rect x="360" y="38" width="22" height="102" fill="#0a0a22"/>
  <rect x="400" y="50" width="30" height="90" fill="#0c0c28"/>
  <rect x="440" y="42" width="40" height="98" fill="#0b0b25"/>
  <!-- Skyline windows -->
  <rect x="25" y="65" width="4" height="4" fill="#00fff2" opacity="0.3"/>
  <rect x="35" y="75" width="4" height="4" fill="#2a6090" opacity="0.3"/>
  <rect x="65" y="50" width="4" height="4" fill="#00fff2" opacity="0.25"/>
  <rect x="95" y="60" width="4" height="4" fill="#8844aa" opacity="0.3"/>
  <rect x="165" y="55" width="4" height="4" fill="#00fff2" opacity="0.3"/>
  <rect x="245" y="50" width="4" height="4" fill="#2a6090" opacity="0.25"/>
  <rect x="295" y="35" width="4" height="4" fill="#00fff2" opacity="0.3"/>
  <rect x="365" y="45" width="4" height="4" fill="#8844aa" opacity="0.25"/>
  <rect x="445" y="50" width="4" height="4" fill="#00fff2" opacity="0.3"/>
  <!-- Stars -->
  <rect x="50" y="10" width="2" height="2" fill="#fff" opacity="0.6"/>
  <rect x="150" y="8" width="2" height="2" fill="#fff" opacity="0.5"/>
  <rect x="310" y="5" width="2" height="2" fill="#fff" opacity="0.7"/>
  <rect x="420" y="12" width="2" height="2" fill="#fff" opacity="0.4"/>
  <rect x="230" y="15" width="2" height="2" fill="#00fff2" opacity="0.3"/>
  <!-- Rooftop floor -->
  <rect x="40" y="140" width="400" height="180" fill="#0e0e2e"/>
  <rect x="40" y="140" width="400" height="4" fill="#1a1a44"/>
  <!-- Railing -->
  <rect x="40" y="130" width="4" height="14" fill="#1a1a44"/>
  <rect x="80" y="130" width="4" height="14" fill="#1a1a44"/>
  <rect x="120" y="130" width="4" height="14" fill="#1a1a44"/>
  <rect x="40" y="130" width="84" height="3" fill="#1a1a44"/>
  <rect x="360" y="130" width="4" height="14" fill="#1a1a44"/>
  <rect x="400" y="130" width="4" height="14" fill="#1a1a44"/>
  <rect x="436" y="130" width="4" height="14" fill="#1a1a44"/>
  <rect x="360" y="130" width="80" height="3" fill="#1a1a44"/>
  <!-- String lights -->
  <rect x="80" y="120" width="320" height="1" fill="#2a6090" opacity="0.3"/>
  <rect x="100" y="118" width="4" height="4" fill="#00fff2" opacity="0.6" filter="url(#social-glow)"/>
  <rect x="140" y="118" width="4" height="4" fill="#8844aa" opacity="0.6" filter="url(#social-glow)"/>
  <rect x="180" y="118" width="4" height="4" fill="#00fff2" opacity="0.6" filter="url(#social-glow)"/>
  <rect x="220" y="118" width="4" height="4" fill="#8844aa" opacity="0.6" filter="url(#social-glow)"/>
  <rect x="260" y="118" width="4" height="4" fill="#00fff2" opacity="0.6" filter="url(#social-glow)"/>
  <rect x="300" y="118" width="4" height="4" fill="#8844aa" opacity="0.6" filter="url(#social-glow)"/>
  <rect x="340" y="118" width="4" height="4" fill="#00fff2" opacity="0.6" filter="url(#social-glow)"/>
  <rect x="380" y="118" width="4" height="4" fill="#8844aa" opacity="0.6" filter="url(#social-glow)"/>
  <!-- Neon BAR sign -->
  <rect x="200" y="100" width="80" height="24" fill="#8844aa" opacity="0.15" filter="url(#social-glow)"/>
  <!-- B -->
  <rect x="210" y="104" width="2" height="16" fill="#00fff2" filter="url(#social-glow)"/>
  <rect x="212" y="104" width="8" height="2" fill="#00fff2"/>
  <rect x="220" y="106" width="2" height="4" fill="#00fff2"/>
  <rect x="212" y="110" width="8" height="2" fill="#00fff2"/>
  <rect x="220" y="112" width="2" height="4" fill="#00fff2"/>
  <rect x="212" y="118" width="8" height="2" fill="#00fff2"/>
  <!-- A -->
  <rect x="230" y="104" width="2" height="16" fill="#00fff2" filter="url(#social-glow)"/>
  <rect x="232" y="104" width="8" height="2" fill="#00fff2"/>
  <rect x="240" y="104" width="2" height="16" fill="#00fff2"/>
  <rect x="232" y="112" width="8" height="2" fill="#00fff2"/>
  <!-- R -->
  <rect x="250" y="104" width="2" height="16" fill="#00fff2" filter="url(#social-glow)"/>
  <rect x="252" y="104" width="8" height="2" fill="#00fff2"/>
  <rect x="260" y="106" width="2" height="4" fill="#00fff2"/>
  <rect x="252" y="110" width="8" height="2" fill="#00fff2"/>
  <rect x="256" y="112" width="2" height="4" fill="#00fff2"/>
  <rect x="260" y="116" width="2" height="4" fill="#00fff2"/>
  <!-- Table -->
  <rect x="170" y="200" width="140" height="6" fill="#1a1a50"/>
  <rect x="180" y="206" width="6" height="40" fill="#151540"/>
  <rect x="294" y="206" width="6" height="40" fill="#151540"/>
  <!-- Drinks on table -->
  <rect x="200" y="192" width="6" height="8" fill="#00fff2" opacity="0.5"/>
  <rect x="200" y="190" width="6" height="3" fill="#00fff2" opacity="0.3"/>
  <rect x="230" y="194" width="8" height="6" fill="#8844aa" opacity="0.4"/>
  <rect x="260" y="192" width="6" height="8" fill="#2a6090" opacity="0.5"/>
  <rect x="260" y="190" width="6" height="3" fill="#2a6090" opacity="0.3"/>
  <rect x="280" y="194" width="10" height="6" fill="#1a1a44"/>
  <!-- Food plates -->
  <rect x="215" y="195" width="12" height="5" fill="#222250"/>
  <rect x="217" y="196" width="8" height="3" fill="#8844aa" opacity="0.3"/>
  <rect x="248" y="195" width="10" height="5" fill="#222250"/>
  <!-- Phone screens on table -->
  <rect x="240" y="193" width="5" height="7" fill="#0a0a20"/>
  <rect x="241" y="194" width="3" height="5" fill="#00fff2" opacity="0.4"/>
  <!-- Figures - person 1 (left) -->
  <rect x="160" y="176" width="8" height="8" fill="#00fff2" opacity="0.5"/>
  <rect x="161" y="184" width="6" height="12" fill="#151550"/>
  <rect x="160" y="196" width="2" height="8" fill="#151550"/>
  <rect x="166" y="196" width="2" height="8" fill="#151550"/>
  <!-- Figure 2 (center-left) -->
  <rect x="210" y="176" width="8" height="8" fill="#8844aa" opacity="0.5"/>
  <rect x="211" y="184" width="6" height="12" fill="#181848"/>
  <rect x="210" y="196" width="2" height="8" fill="#181848"/>
  <rect x="216" y="196" width="2" height="8" fill="#181848"/>
  <!-- Figure 3 (center-right) -->
  <rect x="260" y="176" width="8" height="8" fill="#2a6090" opacity="0.6"/>
  <rect x="261" y="184" width="6" height="12" fill="#151550"/>
  <rect x="260" y="196" width="2" height="8" fill="#151550"/>
  <rect x="266" y="196" width="2" height="8" fill="#151550"/>
  <!-- Figure 4 (right) -->
  <rect x="310" y="176" width="8" height="8" fill="#00fff2" opacity="0.4"/>
  <rect x="311" y="184" width="6" height="12" fill="#181848"/>
  <rect x="310" y="196" width="2" height="8" fill="#181848"/>
  <rect x="316" y="196" width="2" height="8" fill="#181848"/>
  <!-- Floor details -->
  <rect x="60" y="260" width="360" height="2" fill="#1a1a40" opacity="0.3"/>
  <rect x="100" y="280" width="280" height="2" fill="#1a1a40" opacity="0.2"/>
  <rect x="80" y="300" width="320" height="2" fill="#1a1a40" opacity="0.15"/>
  <!-- Scanlines -->
  <rect x="0" y="0" width="480" height="1" fill="#fff" opacity="0.02"/>
  <rect x="0" y="8" width="480" height="1" fill="#fff" opacity="0.02"/>
  <rect x="0" y="16" width="480" height="1" fill="#fff" opacity="0.02"/>
  <rect x="0" y="24" width="480" height="1" fill="#fff" opacity="0.02"/>
  <rect x="0" y="32" width="480" height="1" fill="#fff" opacity="0.02"/>
  <rect x="0" y="40" width="480" height="1" fill="#fff" opacity="0.02"/>
  <rect x="0" y="48" width="480" height="1" fill="#fff" opacity="0.02"/>
  <rect x="0" y="56" width="480" height="1" fill="#fff" opacity="0.02"/>
  <rect x="0" y="64" width="480" height="1" fill="#fff" opacity="0.02"/>
  <rect x="0" y="72" width="480" height="1" fill="#fff" opacity="0.02"/>
  <rect x="0" y="80" width="480" height="1" fill="#fff" opacity="0.02"/>
  <rect x="0" y="88" width="480" height="1" fill="#fff" opacity="0.02"/>
  <rect x="0" y="96" width="480" height="1" fill="#fff" opacity="0.02"/>
  <rect x="0" y="104" width="480" height="1" fill="#fff" opacity="0.02"/>
  <rect x="0" y="112" width="480" height="1" fill="#fff" opacity="0.02"/>
  <rect x="0" y="120" width="480" height="1" fill="#fff" opacity="0.02"/>
  <rect x="0" y="128" width="480" height="1" fill="#fff" opacity="0.02"/>
  <rect x="0" y="136" width="480" height="1" fill="#fff" opacity="0.02"/>
  <rect x="0" y="144" width="480" height="1" fill="#fff" opacity="0.02"/>
  <rect x="0" y="152" width="480" height="1" fill="#fff" opacity="0.02"/>
  <rect x="0" y="160" width="480" height="1" fill="#fff" opacity="0.02"/>
  <rect x="0" y="168" width="480" height="1" fill="#fff" opacity="0.02"/>
  <rect x="0" y="176" width="480" height="1" fill="#fff" opacity="0.02"/>
  <rect x="0" y="184" width="480" height="1" fill="#fff" opacity="0.02"/>
  <rect x="0" y="192" width="480" height="1" fill="#fff" opacity="0.02"/>
  <rect x="0" y="200" width="480" height="1" fill="#fff" opacity="0.02"/>
  <rect x="0" y="208" width="480" height="1" fill="#fff" opacity="0.02"/>
  <rect x="0" y="216" width="480" height="1" fill="#fff" opacity="0.02"/>
  <rect x="0" y="224" width="480" height="1" fill="#fff" opacity="0.02"/>
  <rect x="0" y="232" width="480" height="1" fill="#fff" opacity="0.02"/>
  <rect x="0" y="240" width="480" height="1" fill="#fff" opacity="0.02"/>
  <rect x="0" y="248" width="480" height="1" fill="#fff" opacity="0.02"/>
  <rect x="0" y="256" width="480" height="1" fill="#fff" opacity="0.02"/>
  <rect x="0" y="264" width="480" height="1" fill="#fff" opacity="0.02"/>
  <rect x="0" y="272" width="480" height="1" fill="#fff" opacity="0.02"/>
  <rect x="0" y="280" width="480" height="1" fill="#fff" opacity="0.02"/>
  <rect x="0" y="288" width="480" height="1" fill="#fff" opacity="0.02"/>
  <rect x="0" y="296" width="480" height="1" fill="#fff" opacity="0.02"/>
  <rect x="0" y="304" width="480" height="1" fill="#fff" opacity="0.02"/>
  <rect x="0" y="312" width="480" height="1" fill="#fff" opacity="0.02"/>
</svg>
