<svg width="480" height="320" xmlns="http://www.w3.org/2000/svg" viewBox="0 0 480 320">
  <!-- Background - dark stormy sky -->
  <rect width="480" height="320" fill="#08081a"/>
  <rect width="480" height="120" fill="#0a0a1e"/>
  <!-- Storm clouds -->
  <rect x="0" y="10" width="120" height="24" fill="#141430" opacity="0.8"/>
  <rect x="20" y="4" width="80" height="16" fill="#161636" opacity="0.6"/>
  <rect x="100" y="16" width="140" height="20" fill="#121228" opacity="0.7"/>
  <rect x="130" y="8" width="80" height="16" fill="#141430" opacity="0.5"/>
  <rect x="240" y="12" width="120" height="24" fill="#141430" opacity="0.8"/>
  <rect x="260" y="4" width="100" height="16" fill="#161636" opacity="0.6"/>
  <rect x="360" y="8" width="120" height="28" fill="#121228" opacity="0.7"/>
  <rect x="380" y="2" width="80" height="14" fill="#141430" opacity="0.5"/>
  <!-- T8 typhoon signal sign -->
  <rect x="200" y="40" width="80" height="40" fill="#1a0808"/>
  <rect x="204" y="44" width="72" height="32" fill="#0a0404"/>
  <!-- T pixel -->
  <rect x="216" y="50" width="20" height="4" fill="#ff3344"/>
  <rect x="224" y="54" width="4" height="16" fill="#ff3344"/>
  <!-- 8 pixel -->
  <rect x="244" y="50" width="12" height="4" fill="#ff3344"/>
  <rect x="244" y="54" width="4" height="4" fill="#ff3344"/>
  <rect x="252" y="54" width="4" height="4" fill="#ff3344"/>
  <rect x="244" y="58" width="12" height="4" fill="#ff3344"/>
  <rect x="244" y="62" width="4" height="4" fill="#ff3344"/>
  <rect x="252" y="62" width="4" height="4" fill="#ff3344"/>
  <rect x="244" y="66" width="12" height="4" fill="#ff3344"/>
  <!-- Sign glow -->
  <rect x="198" y="38" width="84" height="2" fill="#ff3344" opacity="0.3"/>
  <rect x="198" y="80" width="84" height="2" fill="#ff3344" opacity="0.2"/>
  <rect x="210" y="46" width="60" height="28" fill="#ff3344" opacity="0.05"/>
  <!-- Sign pole -->
  <rect x="238" y="80" width="4" height="40" fill="#222244"/>
  <!-- Ground / flooded street -->
  <rect x="0" y="240" width="480" height="80" fill="#0a1020"/>
  <!-- Water reflections -->
  <rect x="20" y="244" width="40" height="2" fill="#00fff2" opacity="0.06"/>
  <rect x="100" y="248" width="60" height="2" fill="#2a6090" opacity="0.08"/>
  <rect x="200" y="244" width="80" height="2" fill="#00fff2" opacity="0.05"/>
  <rect x="340" y="250" width="50" height="2" fill="#2a6090" opacity="0.07"/>
  <rect x="60" y="256" width="30" height="2" fill="#00fff2" opacity="0.04"/>
  <rect x="180" y="260" width="70" height="2" fill="#2a6090" opacity="0.05"/>
  <rect x="300" y="256" width="40" height="2" fill="#00fff2" opacity="0.06"/>
  <rect x="400" y="244" width="60" height="2" fill="#00fff2" opacity="0.04"/>
  <rect x="10" y="268" width="50" height="2" fill="#2a6090" opacity="0.04"/>
  <rect x="240" y="270" width="80" height="2" fill="#00fff2" opacity="0.03"/>
  <!-- Water puddle highlights -->
  <rect x="140" y="252" width="20" height="4" fill="#00fff2" opacity="0.04"/>
  <rect x="350" y="260" width="30" height="4" fill="#8844aa" opacity="0.03"/>
  <!-- Buildings left -->
  <rect x="0" y="100" width="60" height="140" fill="#0e0e28"/>
  <rect x="4" y="108" width="8" height="8" fill="#111130"/>
  <rect x="16" y="108" width="8" height="8" fill="#111130"/>
  <rect x="28" y="108" width="8" height="8" fill="#111130"/>
  <rect x="40" y="108" width="8" height="8" fill="#111130"/>
  <rect x="4" y="124" width="8" height="8" fill="#111130"/>
  <rect x="16" y="124" width="8" height="8" fill="#2a6090" opacity="0.15"/>
  <rect x="28" y="124" width="8" height="8" fill="#111130"/>
  <rect x="40" y="124" width="8" height="8" fill="#111130"/>
  <rect x="4" y="140" width="8" height="8" fill="#111130"/>
  <rect x="16" y="140" width="8" height="8" fill="#111130"/>
  <rect x="28" y="140" width="8" height="8" fill="#00fff2" opacity="0.1"/>
  <rect x="40" y="140" width="8" height="8" fill="#111130"/>
  <!-- Shuttered windows -->
  <rect x="4" y="156" width="8" height="8" fill="#0a0a22"/>
  <rect x="5" y="157" width="6" height="1" fill="#151538"/>
  <rect x="5" y="159" width="6" height="1" fill="#151538"/>
  <rect x="5" y="161" width="6" height="1" fill="#151538"/>
  <rect x="16" y="156" width="8" height="8" fill="#0a0a22"/>
  <rect x="17" y="157" width="6" height="1" fill="#151538"/>
  <rect x="17" y="159" width="6" height="1" fill="#151538"/>
  <rect x="17" y="161" width="6" height="1" fill="#151538"/>
  <!-- Buildings right -->
  <rect x="400" y="80" width="80" height="160" fill="#0e0e28"/>
  <rect x="408" y="88" width="8" height="8" fill="#111130"/>
  <rect x="420" y="88" width="8" height="8" fill="#111130"/>
  <rect x="432" y="88" width="8" height="8" fill="#2a6090" opacity="0.12"/>
  <rect x="444" y="88" width="8" height="8" fill="#111130"/>
  <rect x="456" y="88" width="8" height="8" fill="#111130"/>
  <rect x="408" y="104" width="8" height="8" fill="#111130"/>
  <rect x="420" y="104" width="8" height="8" fill="#111130"/>
  <rect x="432" y="104" width="8" height="8" fill="#111130"/>
  <rect x="444" y="104" width="8" height="8" fill="#00fff2" opacity="0.1"/>
  <rect x="456" y="104" width="8" height="8" fill="#111130"/>
  <rect x="408" y="120" width="8" height="8" fill="#0a0a22"/>
  <rect x="409" y="121" width="6" height="1" fill="#151538"/>
  <rect x="409" y="123" width="6" height="1" fill="#151538"/>
  <rect x="409" y="125" width="6" height="1" fill="#151538"/>
  <rect x="420" y="120" width="8" height="8" fill="#0a0a22"/>
  <rect x="421" y="121" width="6" height="1" fill="#151538"/>
  <rect x="421" y="123" width="6" height="1" fill="#151538"/>
  <rect x="421" y="125" width="6" height="1" fill="#151538"/>
  <rect x="432" y="120" width="8" height="8" fill="#111130"/>
  <rect x="444" y="120" width="8" height="8" fill="#111130"/>
  <!-- Building center -->
  <rect x="80" y="120" width="50" height="120" fill="#0c0c26"/>
  <rect x="86" y="128" width="8" height="8" fill="#111130"/>
  <rect x="100" y="128" width="8" height="8" fill="#111130"/>
  <rect x="114" y="128" width="8" height="8" fill="#111130"/>
  <rect x="86" y="144" width="8" height="8" fill="#00fff2" opacity="0.08"/>
  <rect x="100" y="144" width="8" height="8" fill="#111130"/>
  <rect x="114" y="144" width="8" height="8" fill="#111130"/>
  <!-- Bent trees -->
  <rect x="150" y="190" width="4" height="50" fill="#1a2a1a" transform="rotate(-15 152 215)"/>
  <rect x="140" y="176" width="20" height="12" fill="#1a3a1a" opacity="0.6" transform="rotate(-20 150 182)"/>
  <rect x="136" y="184" width="16" height="8" fill="#1a3a1a" opacity="0.4" transform="rotate(-25 144 188)"/>
  <rect x="340" y="190" width="4" height="50" fill="#1a2a1a" transform="rotate(-18 342 215)"/>
  <rect x="330" y="178" width="18" height="10" fill="#1a3a1a" opacity="0.5" transform="rotate(-22 339 183)"/>
  <!-- Broken umbrella on ground -->
  <rect x="260" y="234" width="20" height="2" fill="#333355"/>
  <rect x="268" y="228" width="2" height="8" fill="#444466"/>
  <rect x="256" y="232" width="8" height="2" fill="#333355" transform="rotate(30 260 233)"/>
  <rect x="276" y="230" width="8" height="2" fill="#333355" transform="rotate(-20 280 231)"/>
  <!-- Diagonal rain lines -->
  <rect x="30" y="20" width="2" height="16" fill="#4488aa" opacity="0.15" transform="rotate(-15 31 28)"/>
  <rect x="70" y="10" width="2" height="20" fill="#4488aa" opacity="0.12" transform="rotate(-15 71 20)"/>
  <rect x="110" y="30" width="2" height="16" fill="#4488aa" opacity="0.15" transform="rotate(-15 111 38)"/>
  <rect x="150" y="5" width="2" height="20" fill="#4488aa" opacity="0.1" transform="rotate(-15 151 15)"/>
  <rect x="190" y="25" width="2" height="16" fill="#4488aa" opacity="0.14" transform="rotate(-15 191 33)"/>
  <rect x="230" y="15" width="2" height="18" fill="#4488aa" opacity="0.12" transform="rotate(-15 231 24)"/>
  <rect x="270" y="35" width="2" height="16" fill="#4488aa" opacity="0.15" transform="rotate(-15 271 43)"/>
  <rect x="310" y="8" width="2" height="20" fill="#4488aa" opacity="0.1" transform="rotate(-15 311 18)"/>
  <rect x="350" y="28" width="2" height="16" fill="#4488aa" opacity="0.14" transform="rotate(-15 351 36)"/>
  <rect x="390" y="18" width="2" height="18" fill="#4488aa" opacity="0.12" transform="rotate(-15 391 27)"/>
  <rect x="430" y="22" width="2" height="16" fill="#4488aa" opacity="0.15" transform="rotate(-15 431 30)"/>
  <rect x="50" y="80" width="2" height="16" fill="#4488aa" opacity="0.12" transform="rotate(-15 51 88)"/>
  <rect x="90" y="70" width="2" height="20" fill="#4488aa" opacity="0.1" transform="rotate(-15 91 80)"/>
  <rect x="170" y="85" width="2" height="16" fill="#4488aa" opacity="0.14" transform="rotate(-15 171 93)"/>
  <rect x="210" y="75" width="2" height="18" fill="#4488aa" opacity="0.12" transform="rotate(-15 211 84)"/>
  <rect x="290" y="90" width="2" height="16" fill="#4488aa" opacity="0.15" transform="rotate(-15 291 98)"/>
  <rect x="330" y="60" width="2" height="20" fill="#4488aa" opacity="0.1" transform="rotate(-15 331 70)"/>
  <rect x="450" y="70" width="2" height="16" fill="#4488aa" opacity="0.13" transform="rotate(-15 451 78)"/>
  <rect x="40" y="140" width="2" height="16" fill="#4488aa" opacity="0.1" transform="rotate(-15 41 148)"/>
  <rect x="160" y="150" width="2" height="16" fill="#4488aa" opacity="0.12" transform="rotate(-15 161 158)"/>
  <rect x="250" y="140" width="2" height="18" fill="#4488aa" opacity="0.1" transform="rotate(-15 251 149)"/>
  <rect x="370" y="145" width="2" height="16" fill="#4488aa" opacity="0.12" transform="rotate(-15 371 153)"/>
  <rect x="60" y="200" width="2" height="16" fill="#4488aa" opacity="0.08" transform="rotate(-15 61 208)"/>
  <rect x="180" y="195" width="2" height="18" fill="#4488aa" opacity="0.1" transform="rotate(-15 181 204)"/>
  <rect x="300" y="200" width="2" height="16" fill="#4488aa" opacity="0.08" transform="rotate(-15 301 208)"/>
  <rect x="420" y="190" width="2" height="18" fill="#4488aa" opacity="0.1" transform="rotate(-15 421 199)"/>
  <!-- Lightning flash hint -->
  <rect x="180" y="0" width="4" height="8" fill="#ffffff" opacity="0.04"/>
  <rect x="182" y="8" width="4" height="6" fill="#ffffff" opacity="0.03"/>
  <!-- Scanlines -->
  <rect x="0" y="0" width="480" height="1" fill="#ffffff" opacity="0.02"/>
  <rect x="0" y="8" width="480" height="1" fill="#ffffff" opacity="0.02"/>
  <rect x="0" y="16" width="480" height="1" fill="#ffffff" opacity="0.02"/>
  <rect x="0" y="24" width="480" height="1" fill="#ffffff" opacity="0.02"/>
  <rect x="0" y="32" width="480" height="1" fill="#ffffff" opacity="0.02"/>
  <rect x="0" y="40" width="480" height="1" fill="#ffffff" opacity="0.02"/>
  <rect x="0" y="48" width="480" height="1" fill="#ffffff" opacity="0.02"/>
  <rect x="0" y="56" width="480" height="1" fill="#ffffff" opacity="0.02"/>
  <rect x="0" y="64" width="480" height="1" fill="#ffffff" opacity="0.02"/>
  <rect x="0" y="72" width="480" height="1" fill="#ffffff" opacity="0.02"/>
  <rect x="0" y="80" width="480" height="1" fill="#ffffff" opacity="0.02"/>
  <rect x="0" y="88" width="480" height="1" fill="#ffffff" opacity="0.02"/>
  <rect x="0" y="96" width="480" height="1" fill="#ffffff" opacity="0.02"/>
  <rect x="0" y="104" width="480" height="1" fill="#ffffff" opacity="0.02"/>
  <rect x="0" y="112" width="480" height="1" fill="#ffffff" opacity="0.02"/>
  <rect x="0" y="120" width="480" height="1" fill="#ffffff" opacity="0.02"/>
  <rect x="0" y="128" width="480" height="1" fill="#ffffff" opacity="0.02"/>
  <rect x="0" y="136" width="480" height="1" fill="#ffffff" opacity="0.02"/>
  <rect x="0" y="144" width="480" height="1" fill="#ffffff" opacity="0.02"/>
  <rect x="0" y="152" width="480" height="1" fill="#ffffff" opacity="0.02"/>
  <rect x="0" y="160" width="480" height="1" fill="#ffffff" opacity="0.02"/>
  <rect x="0" y="168" width="480" height="1" fill="#ffffff" opacity="0.02"/>
  <rect x="0" y="176" width="480" height="1" fill="#ffffff" opacity="0.02"/>
  <rect x="0" y="184" width="480" height="1" fill="#ffffff" opacity="0.02"/>
  <rect x="0" y="192" width="480" height="1" fill="#ffffff" opacity="0.02"/>
  <rect x="0" y="200" width="480" height="1" fill="#ffffff" opacity="0.02"/>
  <rect x="0" y="208" width="480" height="1" fill="#ffffff" opacity="0.02"/>
  <rect x="0" y="216" width="480" height="1" fill="#ffffff" opacity="0.02"/>
  <rect x="0" y="224" width="480" height="1" fill="#ffffff" opacity="0.02"/>
  <rect x="0" y="232" width="480" height="1" fill="#ffffff" opacity="0.02"/>
  <rect x="0" y="240" width="480" height="1" fill="#ffffff" opacity="0.02"/>
  <rect x="0" y="248" width="480" height="1" fill="#ffffff" opacity="0.02"/>
  <rect x="0" y="256" width="480" height="1" fill="#ffffff" opacity="0.02"/>
  <rect x="0" y="264" width="480" height="1" fill="#ffffff" opacity="0.02"/>
  <rect x="0" y="272" width="480" height="1" fill="#ffffff" opacity="0.02"/>
  <rect x="0" y="280" width="480" height="1" fill="#ffffff" opacity="0.02"/>
  <rect x="0" y="288" width="480" height="1" fill="#ffffff" opacity="0.02"/>
  <rect x="0" y="296" width="480" height="1" fill="#ffffff" opacity="0.02"/>
  <rect x="0" y="304" width="480" height="1" fill="#ffffff" opacity="0.02"/>
  <rect x="0" y="312" width="480" height="1" fill="#ffffff" opacity="0.02"/>
</svg>
