<svg width="480" height="320" xmlns="http://www.w3.org/2000/svg" viewBox="0 0 480 320">
  <!-- Background -->
  <rect width="480" height="320" fill="#08081a"/>
  <!-- Floor -->
  <rect x="0" y="240" width="480" height="80" fill="#0c0c28"/>
  <rect x="0" y="240" width="480" height="4" fill="#141438"/>
  <!-- Floor tiles -->
  <rect x="0" y="260" width="32" height="2" fill="#10102a" opacity="0.6"/>
  <rect x="40" y="260" width="32" height="2" fill="#10102a" opacity="0.6"/>
  <rect x="80" y="260" width="32" height="2" fill="#10102a" opacity="0.6"/>
  <rect x="120" y="260" width="32" height="2" fill="#10102a" opacity="0.6"/>
  <rect x="160" y="260" width="32" height="2" fill="#10102a" opacity="0.6"/>
  <rect x="200" y="260" width="32" height="2" fill="#10102a" opacity="0.6"/>
  <rect x="240" y="260" width="32" height="2" fill="#10102a" opacity="0.6"/>
  <rect x="280" y="260" width="32" height="2" fill="#10102a" opacity="0.6"/>
  <rect x="320" y="260" width="32" height="2" fill="#10102a" opacity="0.6"/>
  <rect x="360" y="260" width="32" height="2" fill="#10102a" opacity="0.6"/>
  <rect x="400" y="260" width="32" height="2" fill="#10102a" opacity="0.6"/>
  <rect x="440" y="260" width="32" height="2" fill="#10102a" opacity="0.6"/>
  <!-- Ceiling -->
  <rect x="0" y="0" width="480" height="60" fill="#0a0a22"/>
  <!-- Fluorescent ceiling lights -->
  <rect x="40" y="48" width="80" height="4" fill="#aaddff" opacity="0.5"/>
  <rect x="44" y="50" width="72" height="2" fill="#ffffff" opacity="0.3"/>
  <rect x="180" y="48" width="80" height="4" fill="#aaddff" opacity="0.5"/>
  <rect x="184" y="50" width="72" height="2" fill="#ffffff" opacity="0.3"/>
  <rect x="320" y="48" width="80" height="4" fill="#aaddff" opacity="0.5"/>
  <rect x="324" y="50" width="72" height="2" fill="#ffffff" opacity="0.3"/>
  <!-- Light glow on ceiling -->
  <rect x="50" y="44" width="60" height="4" fill="#00fff2" opacity="0.08"/>
  <rect x="190" y="44" width="60" height="4" fill="#00fff2" opacity="0.08"/>
  <rect x="330" y="44" width="60" height="4" fill="#00fff2" opacity="0.08"/>
  <!-- Overhead sign "入境" left -->
  <rect x="60" y="64" width="80" height="28" fill="#111130"/>
  <rect x="62" y="66" width="76" height="24" fill="#0a0a20"/>
  <rect x="64" y="68" width="72" height="20" fill="#00fff2" opacity="0.15"/>
  <!-- 入 character pixel art -->
  <rect x="72" y="72" width="4" height="4" fill="#00fff2"/>
  <rect x="76" y="72" width="4" height="4" fill="#00fff2"/>
  <rect x="80" y="72" width="4" height="4" fill="#00fff2"/>
  <rect x="76" y="76" width="4" height="4" fill="#00fff2"/>
  <rect x="72" y="80" width="4" height="4" fill="#00fff2"/>
  <rect x="80" y="80" width="4" height="4" fill="#00fff2"/>
  <rect x="68" y="84" width="4" height="4" fill="#00fff2"/>
  <rect x="84" y="84" width="4" height="4" fill="#00fff2"/>
  <!-- 境 character pixel art -->
  <rect x="96" y="72" width="4" height="12" fill="#00fff2"/>
  <rect x="100" y="72" width="4" height="4" fill="#00fff2"/>
  <rect x="104" y="72" width="4" height="4" fill="#00fff2"/>
  <rect x="108" y="72" width="4" height="12" fill="#00fff2"/>
  <rect x="100" y="78" width="8" height="4" fill="#00fff2"/>
  <rect x="96" y="84" width="16" height="4" fill="#00fff2"/>
  <!-- Sign glow -->
  <rect x="58" y="62" width="84" height="2" fill="#00fff2" opacity="0.3"/>
  <rect x="58" y="92" width="84" height="2" fill="#00fff2" opacity="0.2"/>
  <!-- Overhead sign "入境" right -->
  <rect x="300" y="64" width="80" height="28" fill="#111130"/>
  <rect x="302" y="66" width="76" height="24" fill="#0a0a20"/>
  <rect x="304" y="68" width="72" height="20" fill="#00fff2" opacity="0.15"/>
  <rect x="312" y="72" width="4" height="4" fill="#00fff2"/>
  <rect x="316" y="72" width="4" height="4" fill="#00fff2"/>
  <rect x="320" y="72" width="4" height="4" fill="#00fff2"/>
  <rect x="316" y="76" width="4" height="4" fill="#00fff2"/>
  <rect x="312" y="80" width="4" height="4" fill="#00fff2"/>
  <rect x="320" y="80" width="4" height="4" fill="#00fff2"/>
  <rect x="308" y="84" width="4" height="4" fill="#00fff2"/>
  <rect x="324" y="84" width="4" height="4" fill="#00fff2"/>
  <rect x="336" y="72" width="4" height="12" fill="#00fff2"/>
  <rect x="340" y="72" width="4" height="4" fill="#00fff2"/>
  <rect x="344" y="72" width="4" height="4" fill="#00fff2"/>
  <rect x="348" y="72" width="4" height="12" fill="#00fff2"/>
  <rect x="340" y="78" width="8" height="4" fill="#00fff2"/>
  <rect x="336" y="84" width="16" height="4" fill="#00fff2"/>
  <rect x="298" y="62" width="84" height="2" fill="#00fff2" opacity="0.3"/>
  <!-- Immigration gate 1 -->
  <rect x="40" y="120" width="8" height="120" fill="#1a1a40"/>
  <rect x="120" y="120" width="8" height="120" fill="#1a1a40"/>
  <rect x="48" y="140" width="72" height="4" fill="#2a6090"/>
  <rect x="48" y="180" width="72" height="4" fill="#2a6090"/>
  <rect x="48" y="120" width="72" height="8" fill="#222250"/>
  <rect x="60" y="122" width="48" height="4" fill="#00fff2" opacity="0.4"/>
  <!-- Gate screen -->
  <rect x="64" y="150" width="40" height="24" fill="#0a1a30"/>
  <rect x="66" y="152" width="36" height="20" fill="#00fff2" opacity="0.12"/>
  <rect x="70" y="156" width="28" height="4" fill="#00fff2" opacity="0.3"/>
  <rect x="70" y="164" width="20" height="4" fill="#00fff2" opacity="0.2"/>
  <!-- Immigration gate 2 -->
  <rect x="160" y="120" width="8" height="120" fill="#1a1a40"/>
  <rect x="240" y="120" width="8" height="120" fill="#1a1a40"/>
  <rect x="168" y="140" width="72" height="4" fill="#2a6090"/>
  <rect x="168" y="180" width="72" height="4" fill="#2a6090"/>
  <rect x="168" y="120" width="72" height="8" fill="#222250"/>
  <rect x="180" y="122" width="48" height="4" fill="#00fff2" opacity="0.4"/>
  <rect x="184" y="150" width="40" height="24" fill="#0a1a30"/>
  <rect x="186" y="152" width="36" height="20" fill="#00fff2" opacity="0.12"/>
  <rect x="190" y="156" width="28" height="4" fill="#00fff2" opacity="0.3"/>
  <rect x="190" y="164" width="20" height="4" fill="#00fff2" opacity="0.2"/>
  <!-- Immigration gate 3 -->
  <rect x="280" y="120" width="8" height="120" fill="#1a1a40"/>
  <rect x="360" y="120" width="8" height="120" fill="#1a1a40"/>
  <rect x="288" y="140" width="72" height="4" fill="#2a6090"/>
  <rect x="288" y="180" width="72" height="4" fill="#2a6090"/>
  <rect x="288" y="120" width="72" height="8" fill="#222250"/>
  <rect x="300" y="122" width="48" height="4" fill="#00fff2" opacity="0.4"/>
  <rect x="304" y="150" width="40" height="24" fill="#0a1a30"/>
  <rect x="306" y="152" width="36" height="20" fill="#00fff2" opacity="0.12"/>
  <rect x="310" y="156" width="28" height="4" fill="#00fff2" opacity="0.3"/>
  <rect x="310" y="164" width="20" height="4" fill="#00fff2" opacity="0.2"/>
  <!-- Queue barriers (retractable belt posts) -->
  <rect x="50" y="200" width="4" height="40" fill="#8844aa"/>
  <rect x="48" y="198" width="8" height="4" fill="#8844aa"/>
  <rect x="100" y="200" width="4" height="40" fill="#8844aa"/>
  <rect x="98" y="198" width="8" height="4" fill="#8844aa"/>
  <rect x="50" y="210" width="54" height="2" fill="#8844aa" opacity="0.6"/>
  <rect x="170" y="200" width="4" height="40" fill="#8844aa"/>
  <rect x="168" y="198" width="8" height="4" fill="#8844aa"/>
  <rect x="220" y="200" width="4" height="40" fill="#8844aa"/>
  <rect x="218" y="198" width="8" height="4" fill="#8844aa"/>
  <rect x="170" y="210" width="54" height="2" fill="#8844aa" opacity="0.6"/>
  <rect x="290" y="200" width="4" height="40" fill="#8844aa"/>
  <rect x="288" y="198" width="8" height="4" fill="#8844aa"/>
  <rect x="340" y="200" width="4" height="40" fill="#8844aa"/>
  <rect x="338" y="198" width="8" height="4" fill="#8844aa"/>
  <rect x="290" y="210" width="54" height="2" fill="#8844aa" opacity="0.6"/>
  <!-- Pixel figures in queue - person 1 -->
  <rect x="60" y="216" width="8" height="8" fill="#445566"/>
  <rect x="62" y="212" width="4" height="4" fill="#aabbcc"/>
  <rect x="60" y="224" width="4" height="8" fill="#445566"/>
  <rect x="64" y="224" width="4" height="8" fill="#445566"/>
  <!-- Person 2 -->
  <rect x="80" y="216" width="8" height="8" fill="#554466"/>
  <rect x="82" y="212" width="4" height="4" fill="#bbaacc"/>
  <rect x="80" y="224" width="4" height="8" fill="#554466"/>
  <rect x="84" y="224" width="4" height="8" fill="#554466"/>
  <!-- Person 3 -->
  <rect x="180" y="216" width="8" height="8" fill="#446655"/>
  <rect x="182" y="212" width="4" height="4" fill="#aaccbb"/>
  <rect x="180" y="224" width="4" height="8" fill="#446655"/>
  <rect x="184" y="224" width="4" height="8" fill="#446655"/>
  <!-- Person 4 -->
  <rect x="200" y="216" width="8" height="8" fill="#665544"/>
  <rect x="202" y="212" width="4" height="4" fill="#ccbbaa"/>
  <rect x="200" y="224" width="4" height="8" fill="#665544"/>
  <rect x="204" y="224" width="4" height="8" fill="#665544"/>
  <!-- Person 5 -->
  <rect x="300" y="216" width="8" height="8" fill="#556644"/>
  <rect x="302" y="212" width="4" height="4" fill="#bbccaa"/>
  <rect x="300" y="224" width="4" height="8" fill="#556644"/>
  <rect x="304" y="224" width="4" height="8" fill="#556644"/>
  <!-- Person 6 with suitcase -->
  <rect x="320" y="216" width="8" height="8" fill="#664455"/>
  <rect x="322" y="212" width="4" height="4" fill="#ccaabb"/>
  <rect x="320" y="224" width="4" height="8" fill="#664455"/>
  <rect x="324" y="224" width="4" height="8" fill="#664455"/>
  <rect x="330" y="226" width="8" height="6" fill="#333355"/>
  <rect x="332" y="224" width="4" height="2" fill="#333355"/>
  <!-- Security cameras -->
  <rect x="420" y="68" width="12" height="8" fill="#333366"/>
  <rect x="424" y="76" width="4" height="12" fill="#333366"/>
  <rect x="418" y="88" width="8" height="6" fill="#444477"/>
  <rect x="420" y="90" width="4" height="2" fill="#ff3344" opacity="0.8"/>
  <rect x="20" y="68" width="12" height="8" fill="#333366"/>
  <rect x="24" y="76" width="4" height="12" fill="#333366"/>
  <rect x="22" y="88" width="8" height="6" fill="#444477"/>
  <rect x="24" y="90" width="4" height="2" fill="#ff3344" opacity="0.8"/>
  <!-- Passport control booth right side -->
  <rect x="400" y="140" width="60" height="80" fill="#151540"/>
  <rect x="404" y="144" width="52" height="32" fill="#0e0e30"/>
  <rect x="408" y="148" width="44" height="24" fill="#00fff2" opacity="0.08"/>
  <rect x="412" y="152" width="36" height="4" fill="#00fff2" opacity="0.25"/>
  <rect x="412" y="160" width="24" height="4" fill="#00fff2" opacity="0.15"/>
  <rect x="400" y="138" width="60" height="4" fill="#2a6090"/>
  <!-- Booth officer pixel figure -->
  <rect x="422" y="182" width="8" height="8" fill="#334466"/>
  <rect x="424" y="178" width="4" height="4" fill="#aabb99"/>
  <!-- Wall details back -->
  <rect x="0" y="56" width="480" height="4" fill="#111130"/>
  <rect x="0" y="96" width="480" height="2" fill="#0e0e2a"/>
  <!-- Star accents -->
  <rect x="440" y="10" width="2" height="2" fill="#ffffff" opacity="0.6"/>
  <rect x="380" y="20" width="2" height="2" fill="#00fff2" opacity="0.4"/>
  <rect x="460" y="30" width="2" height="2" fill="#8844aa" opacity="0.5"/>
  <!-- Scanlines -->
  <rect x="0" y="0" width="480" height="1" fill="#ffffff" opacity="0.02"/>
  <rect x="0" y="8" width="480" height="1" fill="#ffffff" opacity="0.02"/>
  <rect x="0" y="16" width="480" height="1" fill="#ffffff" opacity="0.02"/>
  <rect x="0" y="24" width="480" height="1" fill="#ffffff" opacity="0.02"/>
  <rect x="0" y="32" width="480" height="1" fill="#ffffff" opacity="0.02"/>
  <rect x="0" y="40" width="480" height="1" fill="#ffffff" opacity="0.02"/>
  <rect x="0" y="48" width="480" height="1" fill="#ffffff" opacity="0.02"/>
  <rect x="0" y="56" width="480" height="1" fill="#ffffff" opacity="0.02"/>
  <rect x="0" y="64" width="480" height="1" fill="#ffffff" opacity="0.02"/>
  <rect x="0" y="72" width="480" height="1" fill="#ffffff" opacity="0.02"/>
  <rect x="0" y="80" width="480" height="1" fill="#ffffff" opacity="0.02"/>
  <rect x="0" y="88" width="480" height="1" fill="#ffffff" opacity="0.02"/>
  <rect x="0" y="96" width="480" height="1" fill="#ffffff" opacity="0.02"/>
  <rect x="0" y="104" width="480" height="1" fill="#ffffff" opacity="0.02"/>
  <rect x="0" y="112" width="480" height="1" fill="#ffffff" opacity="0.02"/>
  <rect x="0" y="120" width="480" height="1" fill="#ffffff" opacity="0.02"/>
  <rect x="0" y="128" width="480" height="1" fill="#ffffff" opacity="0.02"/>
  <rect x="0" y="136" width="480" height="1" fill="#ffffff" opacity="0.02"/>
  <rect x="0" y="144" width="480" height="1" fill="#ffffff" opacity="0.02"/>
  <rect x="0" y="152" width="480" height="1" fill="#ffffff" opacity="0.02"/>
  <rect x="0" y="160" width="480" height="1" fill="#ffffff" opacity="0.02"/>
  <rect x="0" y="168" width="480" height="1" fill="#ffffff" opacity="0.02"/>
  <rect x="0" y="176" width="480" height="1" fill="#ffffff" opacity="0.02"/>
  <rect x="0" y="184" width="480" height="1" fill="#ffffff" opacity="0.02"/>
  <rect x="0" y="192" width="480" height="1" fill="#ffffff" opacity="0.02"/>
  <rect x="0" y="200" width="480" height="1" fill="#ffffff" opacity="0.02"/>
  <rect x="0" y="208" width="480" height="1" fill="#ffffff" opacity="0.02"/>
  <rect x="0" y="216" width="480" height="1" fill="#ffffff" opacity="0.02"/>
  <rect x="0" y="224" width="480" height="1" fill="#ffffff" opacity="0.02"/>
  <rect x="0" y="232" width="480" height="1" fill="#ffffff" opacity="0.02"/>
  <rect x="0" y="240" width="480" height="1" fill="#ffffff" opacity="0.02"/>
  <rect x="0" y="248" width="480" height="1" fill="#ffffff" opacity="0.02"/>
  <rect x="0" y="256" width="480" height="1" fill="#ffffff" opacity="0.02"/>
  <rect x="0" y="264" width="480" height="1" fill="#ffffff" opacity="0.02"/>
  <rect x="0" y="272" width="480" height="1" fill="#ffffff" opacity="0.02"/>
  <rect x="0" y="280" width="480" height="1" fill="#ffffff" opacity="0.02"/>
  <rect x="0" y="288" width="480" height="1" fill="#ffffff" opacity="0.02"/>
  <rect x="0" y="296" width="480" height="1" fill="#ffffff" opacity="0.02"/>
  <rect x="0" y="304" width="480" height="1" fill="#ffffff" opacity="0.02"/>
  <rect x="0" y="312" width="480" height="1" fill="#ffffff" opacity="0.02"/>
</svg>
