<svg width="480" height="320" xmlns="http://www.w3.org/2000/svg" viewBox="0 0 480 320">
  <!-- Background -->
  <rect width="480" height="320" fill="#08081a"/>
  <!-- Floor -->
  <rect x="0" y="280" width="480" height="40" fill="#0a0a22"/>
  <!-- Walls -->
  <rect x="0" y="0" width="480" height="280" fill="#0c0c24"/>
  <rect x="0" y="0" width="8" height="320" fill="#0a0a20"/>
  <rect x="472" y="0" width="8" height="320" fill="#0a0a20"/>
  <!-- Ceiling -->
  <rect x="0" y="0" width="480" height="12" fill="#0a0a1e"/>
  <!-- Window showing moon and city lights -->
  <rect x="280" y="30" width="120" height="100" fill="#060618"/>
  <rect x="278" y="28" width="124" height="4" fill="#1a1a3a"/>
  <rect x="278" y="130" width="124" height="4" fill="#1a1a3a"/>
  <rect x="278" y="28" width="4" height="106" fill="#1a1a3a"/>
  <rect x="398" y="28" width="4" height="106" fill="#1a1a3a"/>
  <rect x="338" y="30" width="2" height="100" fill="#1a1a3a"/>
  <rect x="280" y="78" width="120" height="2" fill="#1a1a3a"/>
  <!-- Moon -->
  <rect x="360" y="40" width="16" height="16" fill="#ddeeff" opacity="0.6"/>
  <rect x="362" y="42" width="12" height="12" fill="#eef4ff" opacity="0.4"/>
  <!-- Moon glow -->
  <rect x="354" y="34" width="28" height="28" fill="#ddeeff" opacity="0.04"/>
  <rect x="348" y="28" width="40" height="40" fill="#ddeeff" opacity="0.02"/>
  <!-- Stars through window -->
  <rect x="290" y="38" width="2" height="2" fill="#ffffff" opacity="0.4"/>
  <rect x="310" y="44" width="2" height="2" fill="#ffffff" opacity="0.3"/>
  <rect x="386" y="36" width="2" height="2" fill="#ffffff" opacity="0.5"/>
  <rect x="326" y="50" width="2" height="2" fill="#00fff2" opacity="0.3"/>
  <!-- City lights through window bottom -->
  <rect x="284" y="108" width="4" height="8" fill="#00fff2" opacity="0.12"/>
  <rect x="292" y="104" width="4" height="12" fill="#8844aa" opacity="0.1"/>
  <rect x="300" y="110" width="4" height="6" fill="#00fff2" opacity="0.08"/>
  <rect x="308" y="106" width="4" height="10" fill="#2a6090" opacity="0.12"/>
  <rect x="316" y="112" width="4" height="4" fill="#8844aa" opacity="0.08"/>
  <rect x="344" y="104" width="4" height="12" fill="#00fff2" opacity="0.1"/>
  <rect x="352" y="108" width="4" height="8" fill="#8844aa" opacity="0.12"/>
  <rect x="360" y="110" width="4" height="6" fill="#2a6090" opacity="0.1"/>
  <rect x="372" y="106" width="4" height="10" fill="#00fff2" opacity="0.08"/>
  <rect x="384" y="112" width="4" height="4" fill="#8844aa" opacity="0.1"/>
  <rect x="392" y="108" width="4" height="8" fill="#00fff2" opacity="0.06"/>
  <!-- Moonlight on floor -->
  <rect x="300" y="260" width="80" height="20" fill="#ddeeff" opacity="0.02"/>
  <!-- Bunk bed frame -->
  <rect x="20" y="60" width="8" height="220" fill="#1a1a3a"/>
  <rect x="160" y="60" width="8" height="220" fill="#1a1a3a"/>
  <!-- Top bunk -->
  <rect x="20" y="60" width="148" height="8" fill="#181838"/>
  <rect x="24" y="68" width="140" height="4" fill="#151530"/>
  <!-- Top mattress -->
  <rect x="28" y="72" width="132" height="16" fill="#1a1a44"/>
  <rect x="28" y="72" width="132" height="2" fill="#222250"/>
  <!-- Top pillow -->
  <rect x="132" y="72" width="24" height="10" fill="#222255"/>
  <!-- Bottom bunk support -->
  <rect x="20" y="160" width="148" height="8" fill="#181838"/>
  <rect x="24" y="168" width="140" height="4" fill="#151530"/>
  <!-- Bottom mattress -->
  <rect x="28" y="172" width="132" height="20" fill="#1a1a44"/>
  <rect x="28" y="172" width="132" height="2" fill="#222250"/>
  <!-- Bottom pillow -->
  <rect x="132" y="174" width="24" height="12" fill="#222255"/>
  <!-- Blanket on bottom bunk -->
  <rect x="28" y="180" width="100" height="12" fill="#2a6090" opacity="0.2"/>
  <rect x="28" y="180" width="100" height="2" fill="#2a6090" opacity="0.3"/>
  <!-- Figure sitting on bottom bunk looking at phone -->
  <rect x="80" y="160" width="12" height="12" fill="#334455"/>
  <rect x="82" y="154" width="8" height="6" fill="#aabb99"/>
  <!-- Arms holding phone -->
  <rect x="76" y="168" width="4" height="8" fill="#334455"/>
  <rect x="92" y="168" width="4" height="8" fill="#334455"/>
  <!-- Phone in hands -->
  <rect x="82" y="170" width="8" height="12" fill="#111130"/>
  <rect x="83" y="171" width="6" height="10" fill="#0a1a2a"/>
  <!-- Phone screen glow -->
  <rect x="83" y="171" width="6" height="10" fill="#00fff2" opacity="0.15"/>
  <rect x="84" y="173" width="4" height="2" fill="#00fff2" opacity="0.3"/>
  <rect x="84" y="177" width="4" height="2" fill="#8844aa" opacity="0.2"/>
  <!-- Phone light on face -->
  <rect x="80" y="154" width="12" height="8" fill="#00fff2" opacity="0.03"/>
  <!-- Legs -->
  <rect x="80" y="172" width="4" height="20" fill="#334455"/>
  <rect x="88" y="172" width="4" height="20" fill="#334455"/>
  <!-- Desk -->
  <rect x="200" y="180" width="120" height="8" fill="#1a1a3a"/>
  <rect x="204" y="188" width="4" height="92" fill="#151530"/>
  <rect x="312" y="188" width="4" height="92" fill="#151530"/>
  <!-- Desk lamp -->
  <rect x="210" y="152" width="4" height="28" fill="#222244"/>
  <rect x="204" y="148" width="24" height="4" fill="#222244"/>
  <rect x="200" y="144" width="16" height="8" fill="#333355"/>
  <!-- Lamp glow (warm, dim) -->
  <rect x="196" y="150" width="24" height="4" fill="#ffaa44" opacity="0.1"/>
  <rect x="190" y="154" width="36" height="8" fill="#ffaa44" opacity="0.05"/>
  <rect x="184" y="162" width="48" height="12" fill="#ffaa44" opacity="0.03"/>
  <rect x="200" y="174" width="32" height="6" fill="#ffaa44" opacity="0.02"/>
  <!-- Textbooks on desk -->
  <rect x="240" y="168" width="24" height="8" fill="#2a6090" opacity="0.5"/>
  <rect x="238" y="164" width="28" height="4" fill="#8844aa" opacity="0.4"/>
  <rect x="242" y="160" width="20" height="4" fill="#334466"/>
  <rect x="270" y="170" width="16" height="6" fill="#443366"/>
  <rect x="268" y="166" width="20" height="4" fill="#2a6090" opacity="0.4"/>
  <!-- Notebook open -->
  <rect x="296" y="168" width="16" height="12" fill="#ddddcc" opacity="0.1"/>
  <rect x="298" y="170" width="12" height="2" fill="#111130" opacity="0.1"/>
  <rect x="298" y="174" width="10" height="2" fill="#111130" opacity="0.08"/>
  <!-- Clock on wall showing 3 AM -->
  <rect x="420" y="50" width="28" height="28" fill="#111130"/>
  <rect x="422" y="52" width="24" height="24" fill="#0a0a22"/>
  <!-- Clock hands - 3:00 -->
  <rect x="432" y="56" width="4" height="10" fill="#00fff2" opacity="0.5"/>
  <rect x="436" y="64" width="8" height="2" fill="#00fff2" opacity="0.4"/>
  <!-- Clock dot -->
  <rect x="434" y="62" width="2" height="2" fill="#ff3344" opacity="0.4"/>
  <!-- 3 AM text hint -->
  <rect x="424" y="80" width="20" height="4" fill="#ff3344" opacity="0.15"/>
  <!-- Poster on wall -->
  <rect x="420" y="110" width="40" height="56" fill="#111130"/>
  <rect x="422" y="112" width="36" height="52" fill="#0e0e28"/>
  <!-- Poster art (abstract) -->
  <rect x="426" y="116" width="28" height="20" fill="#8844aa" opacity="0.15"/>
  <rect x="430" y="120" width="8" height="8" fill="#00fff2" opacity="0.12"/>
  <rect x="442" y="118" width="8" height="12" fill="#2a6090" opacity="0.15"/>
  <rect x="426" y="140" width="28" height="4" fill="#00fff2" opacity="0.08"/>
  <rect x="426" y="148" width="20" height="2" fill="#8844aa" opacity="0.1"/>
  <rect x="426" y="154" width="24" height="2" fill="#00fff2" opacity="0.06"/>
  <!-- Slippers on floor -->
  <rect x="120" y="282" width="10" height="6" fill="#2a2a50"/>
  <rect x="136" y="284" width="10" height="6" fill="#2a2a50"/>
  <!-- Water bottle on floor -->
  <rect x="180" y="270" width="6" height="10" fill="#1a1a3a"/>
  <rect x="182" y="268" width="2" height="4" fill="#1a1a3a"/>
  <!-- Star/glow accents -->
  <rect x="460" y="14" width="2" height="2" fill="#ffffff" opacity="0.5"/>
  <rect x="240" y="20" width="2" height="2" fill="#00fff2" opacity="0.3"/>
  <rect x="430" y="200" width="2" height="2" fill="#8844aa" opacity="0.2"/>
  <rect x="16" y="40" width="2" height="2" fill="#00fff2" opacity="0.15"/>
  <!-- Ladder for bunk -->
  <rect x="164" y="80" width="4" height="200" fill="#181838"/>
  <rect x="176" y="80" width="4" height="200" fill="#181838"/>
  <rect x="164" y="110" width="16" height="4" fill="#1a1a3a"/>
  <rect x="164" y="140" width="16" height="4" fill="#1a1a3a"/>
  <rect x="164" y="170" width="16" height="4" fill="#1a1a3a"/>
  <rect x="164" y="200" width="16" height="4" fill="#1a1a3a"/>
  <rect x="164" y="230" width="16" height="4" fill="#1a1a3a"/>
  <!-- Scanlines -->
  <rect x="0" y="0" width="480" height="1" fill="#ffffff" opacity="0.02"/>
  <rect x="0" y="8" width="480" height="1" fill="#ffffff" opacity="0.02"/>
  <rect x="0" y="16" width="480" height="1" fill="#ffffff" opacity="0.02"/>
  <rect x="0" y="24" width="480" height="1" fill="#ffffff" opacity="0.02"/>
  <rect x="0" y="32" width="480" height="1" fill="#ffffff" opacity="0.02"/>
  <rect x="0" y="40" width="480" height="1" fill="#ffffff" opacity="0.02"/>
  <rect x="0" y="48" width="480" height="1" fill="#ffffff" opacity="0.02"/>
  <rect x="0" y="56" width="480" height="1" fill="#ffffff" opacity="0.02"/>
  <rect x="0" y="64" width="480" height="1" fill="#ffffff" opacity="0.02"/>
  <rect x="0" y="72" width="480" height="1" fill="#ffffff" opacity="0.02"/>
  <rect x="0" y="80" width="480" height="1" fill="#ffffff" opacity="0.02"/>
  <rect x="0" y="88" width="480" height="1" fill="#ffffff" opacity="0.02"/>
  <rect x="0" y="96" width="480" height="1" fill="#ffffff" opacity="0.02"/>
  <rect x="0" y="104" width="480" height="1" fill="#ffffff" opacity="0.02"/>
  <rect x="0" y="112" width="480" height="1" fill="#ffffff" opacity="0.02"/>
  <rect x="0" y="120" width="480" height="1" fill="#ffffff" opacity="0.02"/>
  <rect x="0" y="128" width="480" height="1" fill="#ffffff" opacity="0.02"/>
  <rect x="0" y="136" width="480" height="1" fill="#ffffff" opacity="0.02"/>
  <rect x="0" y="144" width="480" height="1" fill="#ffffff" opacity="0.02"/>
  <rect x="0" y="152" width="480" height="1" fill="#ffffff" opacity="0.02"/>
  <rect x="0" y="160" width="480" height="1" fill="#ffffff" opacity="0.02"/>
  <rect x="0" y="168" width="480" height="1" fill="#ffffff" opacity="0.02"/>
  <rect x="0" y="176" width="480" height="1" fill="#ffffff" opacity="0.02"/>
  <rect x="0" y="184" width="480" height="1" fill="#ffffff" opacity="0.02"/>
  <rect x="0" y="192" width="480" height="1" fill="#ffffff" opacity="0.02"/>
  <rect x="0" y="200" width="480" height="1" fill="#ffffff" opacity="0.02"/>
  <rect x="0" y="208" width="480" height="1" fill="#ffffff" opacity="0.02"/>
  <rect x="0" y="216" width="480" height="1" fill="#ffffff" opacity="0.02"/>
  <rect x="0" y="224" width="480" height="1" fill="#ffffff" opacity="0.02"/>
  <rect x="0" y="232" width="480" height="1" fill="#ffffff" opacity="0.02"/>
  <rect x="0" y="240" width="480" height="1" fill="#ffffff" opacity="0.02"/>
  <rect x="0" y="248" width="480" height="1" fill="#ffffff" opacity="0.02"/>
  <rect x="0" y="256" width="480" height="1" fill="#ffffff" opacity="0.02"/>
  <rect x="0" y="264" width="480" height="1" fill="#ffffff" opacity="0.02"/>
  <rect x="0" y="272" width="480" height="1" fill="#ffffff" opacity="0.02"/>
  <rect x="0" y="280" width="480" height="1" fill="#ffffff" opacity="0.02"/>
  <rect x="0" y="288" width="480" height="1" fill="#ffffff" opacity="0.02"/>
  <rect x="0" y="296" width="480" height="1" fill="#ffffff" opacity="0.02"/>
  <rect x="0" y="304" width="480" height="1" fill="#ffffff" opacity="0.02"/>
  <rect x="0" y="312" width="480" height="1" fill="#ffffff" opacity="0.02"/>
</svg>
