<svg width="480" height="320" xmlns="http://www.w3.org/2000/svg" viewBox="0 0 480 320">
  <!-- Background -->
  <rect width="480" height="320" fill="#08081a"/>
  <!-- Stars -->
  <rect x="30" y="12" width="2" height="2" fill="#fff" opacity="0.6"/>
  <rect x="120" y="25" width="2" height="2" fill="#fff" opacity="0.4"/>
  <rect x="200" y="8" width="2" height="2" fill="#fff" opacity="0.7"/>
  <rect x="310" y="18" width="2" height="2" fill="#fff" opacity="0.5"/>
  <rect x="400" y="10" width="2" height="2" fill="#fff" opacity="0.6"/>
  <rect x="450" y="30" width="2" height="2" fill="#fff" opacity="0.3"/>
  <rect x="70" y="40" width="2" height="2" fill="#fff" opacity="0.5"/>
  <rect x="260" y="35" width="2" height="2" fill="#fff" opacity="0.4"/>
  <!-- Clock Tower -->
  <rect x="220" y="60" width="40" height="80" fill="#1a1a3a"/>
  <rect x="224" y="62" width="32" height="12" fill="#2a2a4a"/>
  <rect x="230" y="66" width="20" height="6" fill="#00fff2" opacity="0.3"/>
  <rect x="236" y="68" width="8" height="2" fill="#00fff2" opacity="0.8"/>
  <rect x="228" y="56" width="24" height="8" fill="#1e1e3e"/>
  <rect x="234" y="50" width="12" height="8" fill="#1e1e3e"/>
  <rect x="238" y="46" width="4" height="6" fill="#2a2a4a"/>
  <!-- Main Building Body -->
  <rect x="120" y="140" width="240" height="80" fill="#1a1a3a"/>
  <rect x="124" y="144" width="232" height="72" fill="#161630"/>
  <!-- Arched Entrance -->
  <rect x="210" y="160" width="60" height="60" fill="#0a0a20"/>
  <rect x="214" y="156" width="52" height="4" fill="#1e1e3e"/>
  <rect x="218" y="152" width="44" height="4" fill="#1e1e3e"/>
  <rect x="222" y="148" width="36" height="4" fill="#1e1e3e"/>
  <rect x="226" y="144" width="28" height="4" fill="#1e1e3e"/>
  <!-- Door glow -->
  <rect x="230" y="190" width="20" height="30" fill="#00fff2" opacity="0.05"/>
  <!-- Pillars/Columns -->
  <rect x="130" y="140" width="12" height="80" fill="#222248"/>
  <rect x="132" y="140" width="2" height="80" fill="#2a2a58" opacity="0.5"/>
  <rect x="158" y="140" width="12" height="80" fill="#222248"/>
  <rect x="160" y="140" width="2" height="80" fill="#2a2a58" opacity="0.5"/>
  <rect x="186" y="140" width="12" height="80" fill="#222248"/>
  <rect x="188" y="140" width="2" height="80" fill="#2a2a58" opacity="0.5"/>
  <rect x="282" y="140" width="12" height="80" fill="#222248"/>
  <rect x="284" y="140" width="2" height="80" fill="#2a2a58" opacity="0.5"/>
  <rect x="310" y="140" width="12" height="80" fill="#222248"/>
  <rect x="312" y="140" width="2" height="80" fill="#2a2a58" opacity="0.5"/>
  <rect x="338" y="140" width="12" height="80" fill="#222248"/>
  <rect x="340" y="140" width="2" height="80" fill="#2a2a58" opacity="0.5"/>
  <!-- Pillar capitals -->
  <rect x="128" y="136" width="16" height="4" fill="#2a2a58"/>
  <rect x="156" y="136" width="16" height="4" fill="#2a2a58"/>
  <rect x="184" y="136" width="16" height="4" fill="#2a2a58"/>
  <rect x="280" y="136" width="16" height="4" fill="#2a2a58"/>
  <rect x="308" y="136" width="16" height="4" fill="#2a2a58"/>
  <rect x="336" y="136" width="16" height="4" fill="#2a2a58"/>
  <!-- Pediment / roof triangle approximation -->
  <rect x="120" y="132" width="240" height="8" fill="#1e1e40"/>
  <rect x="140" y="126" width="200" height="6" fill="#1a1a3a"/>
  <rect x="160" y="120" width="160" height="6" fill="#1a1a3a"/>
  <rect x="180" y="114" width="120" height="6" fill="#1a1a3a"/>
  <rect x="200" y="108" width="80" height="6" fill="#1a1a3a"/>
  <rect x="220" y="102" width="40" height="6" fill="#1a1a3a"/>
  <!-- Windows row 1 -->
  <rect x="134" y="150" width="8" height="10" fill="#00fff2" opacity="0.15"/>
  <rect x="162" y="150" width="8" height="10" fill="#00fff2" opacity="0.1"/>
  <rect x="190" y="150" width="8" height="10" fill="#00fff2" opacity="0.2"/>
  <rect x="284" y="150" width="8" height="10" fill="#00fff2" opacity="0.15"/>
  <rect x="314" y="150" width="8" height="10" fill="#00fff2" opacity="0.1"/>
  <rect x="342" y="150" width="8" height="10" fill="#00fff2" opacity="0.2"/>
  <!-- Windows row 2 -->
  <rect x="134" y="170" width="8" height="10" fill="#00fff2" opacity="0.1"/>
  <rect x="162" y="170" width="8" height="10" fill="#00fff2" opacity="0.2"/>
  <rect x="190" y="170" width="8" height="10" fill="#00fff2" opacity="0.15"/>
  <rect x="284" y="170" width="8" height="10" fill="#8844aa" opacity="0.15"/>
  <rect x="314" y="170" width="8" height="10" fill="#00fff2" opacity="0.15"/>
  <rect x="342" y="170" width="8" height="10" fill="#8844aa" opacity="0.1"/>
  <!-- Stone Steps -->
  <rect x="160" y="220" width="160" height="6" fill="#1e1e3e"/>
  <rect x="150" y="226" width="180" height="6" fill="#1a1a38"/>
  <rect x="140" y="232" width="200" height="6" fill="#161632"/>
  <rect x="130" y="238" width="220" height="6" fill="#14142e"/>
  <rect x="120" y="244" width="240" height="6" fill="#12122a"/>
  <!-- HKU Neon Sign -->
  <rect x="206" y="88" width="8" height="12" fill="#00fff2" opacity="0.9"/>
  <rect x="206" y="94" width="2" height="2" fill="#00fff2"/>
  <rect x="212" y="94" width="2" height="2" fill="#00fff2"/>
  <rect x="206" y="96" width="8" height="4" fill="#00fff2" opacity="0.9"/>
  <rect x="218" y="88" width="8" height="12" fill="#00fff2" opacity="0.9"/>
  <rect x="222" y="88" width="4" height="4" fill="#08081a"/>
  <rect x="218" y="92" width="4" height="2" fill="#00fff2"/>
  <rect x="230" y="88" width="2" height="12" fill="#00fff2" opacity="0.9"/>
  <rect x="236" y="88" width="2" height="12" fill="#00fff2" opacity="0.9"/>
  <rect x="230" y="98" width="8" height="2" fill="#00fff2" opacity="0.9"/>
  <!-- HKU glow -->
  <rect x="200" y="84" width="48" height="20" fill="#00fff2" opacity="0.04"/>
  <!-- Trees left -->
  <rect x="60" y="180" width="8" height="40" fill="#0a1a10"/>
  <rect x="48" y="160" width="32" height="24" fill="#0a2a10"/>
  <rect x="52" y="152" width="24" height="12" fill="#0c3012"/>
  <rect x="56" y="146" width="16" height="8" fill="#0e3514"/>
  <rect x="80" y="190" width="6" height="30" fill="#0a1a10"/>
  <rect x="72" y="174" width="22" height="20" fill="#0a2a10"/>
  <rect x="76" y="166" width="14" height="10" fill="#0c3012"/>
  <!-- Trees right -->
  <rect x="380" y="180" width="8" height="40" fill="#0a1a10"/>
  <rect x="368" y="160" width="32" height="24" fill="#0a2a10"/>
  <rect x="372" y="152" width="24" height="12" fill="#0c3012"/>
  <rect x="376" y="146" width="16" height="8" fill="#0e3514"/>
  <rect x="410" y="190" width="6" height="30" fill="#0a1a10"/>
  <rect x="402" y="174" width="22" height="20" fill="#0a2a10"/>
  <rect x="406" y="166" width="14" height="10" fill="#0c3012"/>
  <!-- Student figure walking up steps -->
  <rect x="270" y="210" width="8" height="4" fill="#2a6090"/>
  <rect x="272" y="206" width="4" height="4" fill="#dda088"/>
  <rect x="270" y="214" width="8" height="10" fill="#2a6090"/>
  <rect x="270" y="224" width="4" height="6" fill="#1a1a3a"/>
  <rect x="276" y="224" width="4" height="4" fill="#1a1a3a"/>
  <rect x="278" y="212" width="4" height="4" fill="#8844aa" opacity="0.6"/>
  <!-- Ground -->
  <rect x="0" y="250" width="480" height="70" fill="#0c0c24"/>
  <rect x="0" y="250" width="480" height="2" fill="#1a1a40"/>
  <!-- Path -->
  <rect x="200" y="250" width="80" height="70" fill="#10102a"/>
  <rect x="196" y="250" width="4" height="70" fill="#1a1a40" opacity="0.3"/>
  <rect x="280" y="250" width="4" height="70" fill="#1a1a40" opacity="0.3"/>
  <!-- Neon ground reflection -->
  <rect x="220" y="252" width="40" height="2" fill="#00fff2" opacity="0.06"/>
  <rect x="226" y="258" width="28" height="2" fill="#00fff2" opacity="0.04"/>
  <!-- Scanlines -->
  <g opacity="0.02" fill="#fff">
    <rect x="0" y="0" width="480" height="1"/><rect x="0" y="8" width="480" height="1"/>
    <rect x="0" y="16" width="480" height="1"/><rect x="0" y="24" width="480" height="1"/>
    <rect x="0" y="32" width="480" height="1"/><rect x="0" y="40" width="480" height="1"/>
    <rect x="0" y="48" width="480" height="1"/><rect x="0" y="56" width="480" height="1"/>
    <rect x="0" y="64" width="480" height="1"/><rect x="0" y="72" width="480" height="1"/>
    <rect x="0" y="80" width="480" height="1"/><rect x="0" y="88" width="480" height="1"/>
    <rect x="0" y="96" width="480" height="1"/><rect x="0" y="104" width="480" height="1"/>
    <rect x="0" y="112" width="480" height="1"/><rect x="0" y="120" width="480" height="1"/>
    <rect x="0" y="128" width="480" height="1"/><rect x="0" y="136" width="480" height="1"/>
    <rect x="0" y="144" width="480" height="1"/><rect x="0" y="152" width="480" height="1"/>
    <rect x="0" y="160" width="480" height="1"/><rect x="0" y="168" width="480" height="1"/>
    <rect x="0" y="176" width="480" height="1"/><rect x="0" y="184" width="480" height="1"/>
    <rect x="0" y="192" width="480" height="1"/><rect x="0" y="200" width="480" height="1"/>
    <rect x="0" y="208" width="480" height="1"/><rect x="0" y="216" width="480" height="1"/>
    <rect x="0" y="224" width="480" height="1"/><rect x="0" y="232" width="480" height="1"/>
    <rect x="0" y="240" width="480" height="1"/><rect x="0" y="248" width="480" height="1"/>
    <rect x="0" y="256" width="480" height="1"/><rect x="0" y="264" width="480" height="1"/>
    <rect x="0" y="272" width="480" height="1"/><rect x="0" y="280" width="480" height="1"/>
    <rect x="0" y="288" width="480" height="1"/><rect x="0" y="296" width="480" height="1"/>
    <rect x="0" y="304" width="480" height="1"/><rect x="0" y="312" width="480" height="1"/>
  </g>
</svg>
