<svg width="480" height="320" xmlns="http://www.w3.org/2000/svg" viewBox="0 0 480 320">
  <defs>
    <filter id="city-glow"><feGaussianBlur stdDeviation="2" result="blur"/><feMerge><feMergeNode in="blur"/><feMergeNode in="SourceGraphic"/></feMerge></filter>
  </defs>
  <!-- Background -->
  <rect width="480" height="320" fill="#08081a"/>
  <!-- Sky stars -->
  <rect x="30" y="10" width="2" height="2" fill="#fff" opacity="0.6"/>
  <rect x="120" y="18" width="2" height="2" fill="#fff" opacity="0.4"/>
  <rect x="240" y="8" width="2" height="2" fill="#fff" opacity="0.7"/>
  <rect x="350" y="22" width="2" height="2" fill="#fff" opacity="0.5"/>
  <rect x="420" y="12" width="2" height="2" fill="#fff" opacity="0.6"/>
  <rect x="180" y="5" width="2" height="2" fill="#00fff2" opacity="0.3"/>
  <rect x="300" y="15" width="2" height="2" fill="#8844aa" opacity="0.4"/>
  <!-- Left buildings -->
  <rect x="0" y="40" width="60" height="280" fill="#0c0c28"/>
  <rect x="70" y="60" width="50" height="260" fill="#0e0e2e"/>
  <rect x="10" y="50" width="40" height="270" fill="#101035"/>
  <rect x="60" y="80" width="30" height="240" fill="#0a0a22"/>
  <!-- Left building windows -->
  <rect x="8" y="55" width="6" height="6" fill="#00fff2" opacity="0.5"/>
  <rect x="20" y="55" width="6" height="6" fill="#2a6090" opacity="0.6"/>
  <rect x="36" y="55" width="6" height="6" fill="#00fff2" opacity="0.3"/>
  <rect x="8" y="70" width="6" height="6" fill="#2a6090" opacity="0.4"/>
  <rect x="20" y="70" width="6" height="6" fill="#00fff2" opacity="0.6"/>
  <rect x="36" y="70" width="6" height="6" fill="#8844aa" opacity="0.5"/>
  <rect x="8" y="85" width="6" height="6" fill="#00fff2" opacity="0.4"/>
  <rect x="20" y="85" width="6" height="6" fill="#2a6090" opacity="0.5"/>
  <rect x="36" y="85" width="6" height="6" fill="#00fff2" opacity="0.7"/>
  <rect x="8" y="100" width="6" height="6" fill="#8844aa" opacity="0.4"/>
  <rect x="20" y="100" width="6" height="6" fill="#00fff2" opacity="0.3"/>
  <rect x="75" y="70" width="6" height="6" fill="#00fff2" opacity="0.5"/>
  <rect x="90" y="70" width="6" height="6" fill="#2a6090" opacity="0.6"/>
  <rect x="105" y="70" width="6" height="6" fill="#00fff2" opacity="0.4"/>
  <rect x="75" y="85" width="6" height="6" fill="#8844aa" opacity="0.5"/>
  <rect x="90" y="85" width="6" height="6" fill="#00fff2" opacity="0.6"/>
  <rect x="105" y="85" width="6" height="6" fill="#2a6090" opacity="0.4"/>
  <rect x="75" y="100" width="6" height="6" fill="#00fff2" opacity="0.3"/>
  <rect x="90" y="100" width="6" height="6" fill="#2a6090" opacity="0.5"/>
  <!-- Right buildings -->
  <rect x="360" y="50" width="60" height="270" fill="#0c0c28"/>
  <rect x="410" y="30" width="70" height="290" fill="#0e0e2e"/>
  <rect x="380" y="70" width="40" height="250" fill="#101035"/>
  <rect x="430" y="45" width="50" height="275" fill="#0a0a22"/>
  <!-- Right building windows -->
  <rect x="365" y="60" width="6" height="6" fill="#00fff2" opacity="0.5"/>
  <rect x="380" y="60" width="6" height="6" fill="#2a6090" opacity="0.6"/>
  <rect x="395" y="60" width="6" height="6" fill="#00fff2" opacity="0.4"/>
  <rect x="365" y="75" width="6" height="6" fill="#8844aa" opacity="0.5"/>
  <rect x="380" y="75" width="6" height="6" fill="#00fff2" opacity="0.6"/>
  <rect x="395" y="75" width="6" height="6" fill="#2a6090" opacity="0.4"/>
  <rect x="365" y="90" width="6" height="6" fill="#00fff2" opacity="0.3"/>
  <rect x="380" y="90" width="6" height="6" fill="#2a6090" opacity="0.5"/>
  <rect x="420" y="40" width="6" height="6" fill="#00fff2" opacity="0.6"/>
  <rect x="440" y="40" width="6" height="6" fill="#2a6090" opacity="0.5"/>
  <rect x="460" y="40" width="6" height="6" fill="#00fff2" opacity="0.4"/>
  <rect x="420" y="55" width="6" height="6" fill="#8844aa" opacity="0.5"/>
  <rect x="440" y="55" width="6" height="6" fill="#00fff2" opacity="0.6"/>
  <rect x="460" y="55" width="6" height="6" fill="#2a6090" opacity="0.4"/>
  <rect x="420" y="70" width="6" height="6" fill="#00fff2" opacity="0.5"/>
  <rect x="440" y="70" width="6" height="6" fill="#2a6090" opacity="0.6"/>
  <!-- Neon sign left - Chinese chars (pixel approximation of 酒吧) -->
  <rect x="15" y="130" width="30" height="40" fill="#8844aa" opacity="0.15" filter="url(#city-glow)"/>
  <rect x="18" y="133" width="8" height="2" fill="#00fff2" filter="url(#city-glow)"/>
  <rect x="18" y="137" width="2" height="8" fill="#00fff2"/>
  <rect x="26" y="137" width="2" height="8" fill="#00fff2"/>
  <rect x="18" y="147" width="8" height="2" fill="#00fff2"/>
  <rect x="20" y="152" width="6" height="2" fill="#8844aa" filter="url(#city-glow)"/>
  <rect x="18" y="156" width="2" height="8" fill="#8844aa"/>
  <rect x="26" y="156" width="2" height="8" fill="#8844aa"/>
  <rect x="20" y="160" width="4" height="2" fill="#8844aa"/>
  <!-- Neon sign right - pixel 茶餐 -->
  <rect x="370" y="110" width="35" height="35" fill="#00fff2" opacity="0.1" filter="url(#city-glow)"/>
  <rect x="375" y="115" width="8" height="2" fill="#00fff2" filter="url(#city-glow)"/>
  <rect x="379" y="117" width="2" height="6" fill="#00fff2"/>
  <rect x="375" y="125" width="8" height="2" fill="#00fff2"/>
  <rect x="389" y="115" width="8" height="2" fill="#8844aa" filter="url(#city-glow)"/>
  <rect x="389" y="119" width="2" height="4" fill="#8844aa"/>
  <rect x="397" y="119" width="2" height="4" fill="#8844aa"/>
  <rect x="389" y="125" width="8" height="2" fill="#8844aa"/>
  <!-- Overhead wires -->
  <rect x="60" y="100" width="360" height="1" fill="#2a6090" opacity="0.4"/>
  <rect x="80" y="110" width="320" height="1" fill="#2a6090" opacity="0.3"/>
  <rect x="100" y="105" width="2" height="6" fill="#2a6090" opacity="0.4"/>
  <rect x="250" y="100" width="2" height="10" fill="#2a6090" opacity="0.4"/>
  <rect x="380" y="100" width="2" height="10" fill="#2a6090" opacity="0.4"/>
  <!-- Street lights -->
  <rect x="140" y="160" width="4" height="80" fill="#1a1a40"/>
  <rect x="134" y="158" width="16" height="4" fill="#1a1a40"/>
  <rect x="138" y="155" width="4" height="4" fill="#00fff2" opacity="0.8" filter="url(#city-glow)"/>
  <rect x="330" y="155" width="4" height="85" fill="#1a1a40"/>
  <rect x="324" y="153" width="16" height="4" fill="#1a1a40"/>
  <rect x="330" y="150" width="4" height="4" fill="#00fff2" opacity="0.8" filter="url(#city-glow)"/>
  <!-- Ground / street -->
  <rect x="120" y="240" width="240" height="80" fill="#0f0f25"/>
  <!-- Wet ground reflections -->
  <rect x="150" y="260" width="20" height="2" fill="#00fff2" opacity="0.08"/>
  <rect x="200" y="270" width="30" height="2" fill="#8844aa" opacity="0.06"/>
  <rect x="280" y="255" width="25" height="2" fill="#00fff2" opacity="0.07"/>
  <rect x="170" y="280" width="40" height="2" fill="#2a6090" opacity="0.08"/>
  <rect x="250" y="290" width="20" height="2" fill="#00fff2" opacity="0.06"/>
  <rect x="310" y="275" width="15" height="2" fill="#8844aa" opacity="0.07"/>
  <!-- Pedestrian crossing -->
  <rect x="200" y="242" width="30" height="3" fill="#fff" opacity="0.15"/>
  <rect x="200" y="250" width="30" height="3" fill="#fff" opacity="0.15"/>
  <rect x="200" y="258" width="30" height="3" fill="#fff" opacity="0.12"/>
  <rect x="200" y="266" width="30" height="3" fill="#fff" opacity="0.12"/>
  <rect x="200" y="274" width="30" height="3" fill="#fff" opacity="0.10"/>
  <!-- Tram / Bus pixel art -->
  <rect x="260" y="220" width="60" height="20" fill="#2a6090"/>
  <rect x="262" y="222" width="12" height="10" fill="#00fff2" opacity="0.4"/>
  <rect x="278" y="222" width="12" height="10" fill="#00fff2" opacity="0.4"/>
  <rect x="294" y="222" width="12" height="10" fill="#00fff2" opacity="0.4"/>
  <rect x="260" y="240" width="8" height="4" fill="#1a1a40"/>
  <rect x="312" y="240" width="8" height="4" fill="#1a1a40"/>
  <rect x="268" y="216" width="44" height="4" fill="#8844aa"/>
  <rect x="258" y="218" width="4" height="2" fill="#00fff2" filter="url(#city-glow)"/>
  <rect x="318" y="218" width="4" height="2" fill="#00fff2" filter="url(#city-glow)"/>
  <!-- Fire hydrant -->
  <rect x="350" y="230" width="6" height="10" fill="#aa2244"/>
  <rect x="348" y="228" width="10" height="4" fill="#aa2244"/>
  <rect x="350" y="226" width="6" height="3" fill="#cc3355"/>
  <!-- Walking figures -->
  <rect x="170" y="224" width="6" height="4" fill="#00fff2" opacity="0.6"/>
  <rect x="171" y="228" width="4" height="6" fill="#1a1a50"/>
  <rect x="170" y="234" width="2" height="6" fill="#1a1a50"/>
  <rect x="174" y="234" width="2" height="6" fill="#1a1a50"/>
  <rect x="190" y="226" width="6" height="4" fill="#8844aa" opacity="0.6"/>
  <rect x="191" y="230" width="4" height="6" fill="#1a1a50"/>
  <rect x="190" y="236" width="2" height="4" fill="#1a1a50"/>
  <rect x="194" y="236" width="2" height="4" fill="#1a1a50"/>
  <rect x="240" y="222" width="6" height="4" fill="#2a6090" opacity="0.7"/>
  <rect x="241" y="226" width="4" height="6" fill="#151540"/>
  <rect x="240" y="232" width="2" height="6" fill="#151540"/>
  <rect x="244" y="232" width="2" height="6" fill="#151540"/>
  <!-- Sidewalks -->
  <rect x="120" y="240" width="240" height="2" fill="#1a1a44"/>
  <!-- Scanlines -->
  <rect x="0" y="0" width="480" height="1" fill="#fff" opacity="0.02"/>
  <rect x="0" y="8" width="480" height="1" fill="#fff" opacity="0.02"/>
  <rect x="0" y="16" width="480" height="1" fill="#fff" opacity="0.02"/>
  <rect x="0" y="24" width="480" height="1" fill="#fff" opacity="0.02"/>
  <rect x="0" y="32" width="480" height="1" fill="#fff" opacity="0.02"/>
  <rect x="0" y="40" width="480" height="1" fill="#fff" opacity="0.02"/>
  <rect x="0" y="48" width="480" height="1" fill="#fff" opacity="0.02"/>
  <rect x="0" y="56" width="480" height="1" fill="#fff" opacity="0.02"/>
  <rect x="0" y="64" width="480" height="1" fill="#fff" opacity="0.02"/>
  <rect x="0" y="72" width="480" height="1" fill="#fff" opacity="0.02"/>
  <rect x="0" y="80" width="480" height="1" fill="#fff" opacity="0.02"/>
  <rect x="0" y="88" width="480" height="1" fill="#fff" opacity="0.02"/>
  <rect x="0" y="96" width="480" height="1" fill="#fff" opacity="0.02"/>
  <rect x="0" y="104" width="480" height="1" fill="#fff" opacity="0.02"/>
  <rect x="0" y="112" width="480" height="1" fill="#fff" opacity="0.02"/>
  <rect x="0" y="120" width="480" height="1" fill="#fff" opacity="0.02"/>
  <rect x="0" y="128" width="480" height="1" fill="#fff" opacity="0.02"/>
  <rect x="0" y="136" width="480" height="1" fill="#fff" opacity="0.02"/>
  <rect x="0" y="144" width="480" height="1" fill="#fff" opacity="0.02"/>
  <rect x="0" y="152" width="480" height="1" fill="#fff" opacity="0.02"/>
  <rect x="0" y="160" width="480" height="1" fill="#fff" opacity="0.02"/>
  <rect x="0" y="168" width="480" height="1" fill="#fff" opacity="0.02"/>
  <rect x="0" y="176" width="480" height="1" fill="#fff" opacity="0.02"/>
  <rect x="0" y="184" width="480" height="1" fill="#fff" opacity="0.02"/>
  <rect x="0" y="192" width="480" height="1" fill="#fff" opacity="0.02"/>
  <rect x="0" y="200" width="480" height="1" fill="#fff" opacity="0.02"/>
  <rect x="0" y="208" width="480" height="1" fill="#fff" opacity="0.02"/>
  <rect x="0" y="216" width="480" height="1" fill="#fff" opacity="0.02"/>
  <rect x="0" y="224" width="480" height="1" fill="#fff" opacity="0.02"/>
  <rect x="0" y="232" width="480" height="1" fill="#fff" opacity="0.02"/>
  <rect x="0" y="240" width="480" height="1" fill="#fff" opacity="0.02"/>
  <rect x="0" y="248" width="480" height="1" fill="#fff" opacity="0.02"/>
  <rect x="0" y="256" width="480" height="1" fill="#fff" opacity="0.02"/>
  <rect x="0" y="264" width="480" height="1" fill="#fff" opacity="0.02"/>
  <rect x="0" y="272" width="480" height="1" fill="#fff" opacity="0.02"/>
  <rect x="0" y="280" width="480" height="1" fill="#fff" opacity="0.02"/>
  <rect x="0" y="288" width="480" height="1" fill="#fff" opacity="0.02"/>
  <rect x="0" y="296" width="480" height="1" fill="#fff" opacity="0.02"/>
  <rect x="0" y="304" width="480" height="1" fill="#fff" opacity="0.02"/>
  <rect x="0" y="312" width="480" height="1" fill="#fff" opacity="0.02"/>
</svg>
