<svg width="480" height="320" xmlns="http://www.w3.org/2000/svg" viewBox="0 0 480 320">
  <!-- Background -->
  <rect width="480" height="320" fill="#08081a"/>
  <!-- Stars -->
  <rect x="50" y="10" width="2" height="2" fill="#fff" opacity="0.5"/>
  <rect x="150" y="18" width="2" height="2" fill="#fff" opacity="0.4"/>
  <rect x="320" y="8" width="2" height="2" fill="#fff" opacity="0.6"/>
  <rect x="420" y="22" width="2" height="2" fill="#fff" opacity="0.3"/>
  <rect x="240" y="14" width="2" height="2" fill="#fff" opacity="0.5"/>
  <!-- Red brick building LEFT - angular modern -->
  <rect x="20" y="100" width="120" height="140" fill="#3a1418"/>
  <rect x="24" y="104" width="112" height="132" fill="#2e1014"/>
  <!-- Angular top -->
  <rect x="20" y="92" width="60" height="8" fill="#3a1418"/>
  <rect x="20" y="86" width="40" height="6" fill="#3a1418"/>
  <rect x="80" y="96" width="60" height="4" fill="#3a1418"/>
  <!-- Brick texture lines -->
  <rect x="24" y="110" width="112" height="1" fill="#4a2028" opacity="0.4"/>
  <rect x="24" y="120" width="112" height="1" fill="#4a2028" opacity="0.4"/>
  <rect x="24" y="130" width="112" height="1" fill="#4a2028" opacity="0.4"/>
  <rect x="24" y="140" width="112" height="1" fill="#4a2028" opacity="0.4"/>
  <rect x="24" y="150" width="112" height="1" fill="#4a2028" opacity="0.4"/>
  <rect x="24" y="160" width="112" height="1" fill="#4a2028" opacity="0.4"/>
  <rect x="24" y="170" width="112" height="1" fill="#4a2028" opacity="0.4"/>
  <rect x="24" y="180" width="112" height="1" fill="#4a2028" opacity="0.4"/>
  <rect x="24" y="190" width="112" height="1" fill="#4a2028" opacity="0.4"/>
  <rect x="24" y="200" width="112" height="1" fill="#4a2028" opacity="0.4"/>
  <!-- Windows left building -->
  <rect x="34" y="108" width="14" height="10" fill="#00fff2" opacity="0.12"/>
  <rect x="56" y="108" width="14" height="10" fill="#8844aa" opacity="0.1"/>
  <rect x="78" y="108" width="14" height="10" fill="#00fff2" opacity="0.15"/>
  <rect x="100" y="108" width="14" height="10" fill="#00fff2" opacity="0.1"/>
  <rect x="34" y="126" width="14" height="10" fill="#00fff2" opacity="0.1"/>
  <rect x="56" y="126" width="14" height="10" fill="#00fff2" opacity="0.18"/>
  <rect x="78" y="126" width="14" height="10" fill="#8844aa" opacity="0.12"/>
  <rect x="100" y="126" width="14" height="10" fill="#00fff2" opacity="0.1"/>
  <rect x="34" y="144" width="14" height="10" fill="#00fff2" opacity="0.15"/>
  <rect x="56" y="144" width="14" height="10" fill="#00fff2" opacity="0.1"/>
  <rect x="78" y="144" width="14" height="10" fill="#00fff2" opacity="0.12"/>
  <rect x="100" y="144" width="14" height="10" fill="#00fff2" opacity="0.2"/>
  <rect x="34" y="162" width="14" height="10" fill="#8844aa" opacity="0.1"/>
  <rect x="56" y="162" width="14" height="10" fill="#00fff2" opacity="0.15"/>
  <rect x="78" y="162" width="14" height="10" fill="#00fff2" opacity="0.1"/>
  <rect x="100" y="162" width="14" height="10" fill="#00fff2" opacity="0.12"/>
  <!-- Red brick building RIGHT - angular -->
  <rect x="320" y="90" width="140" height="150" fill="#3a1418"/>
  <rect x="324" y="94" width="132" height="142" fill="#2e1014"/>
  <!-- Angular top right -->
  <rect x="380" y="82" width="80" height="8" fill="#3a1418"/>
  <rect x="400" y="76" width="60" height="6" fill="#3a1418"/>
  <rect x="320" y="86" width="60" height="4" fill="#3a1418"/>
  <!-- Brick texture -->
  <rect x="324" y="100" width="132" height="1" fill="#4a2028" opacity="0.4"/>
  <rect x="324" y="110" width="132" height="1" fill="#4a2028" opacity="0.4"/>
  <rect x="324" y="120" width="132" height="1" fill="#4a2028" opacity="0.4"/>
  <rect x="324" y="130" width="132" height="1" fill="#4a2028" opacity="0.4"/>
  <rect x="324" y="140" width="132" height="1" fill="#4a2028" opacity="0.4"/>
  <rect x="324" y="150" width="132" height="1" fill="#4a2028" opacity="0.4"/>
  <rect x="324" y="160" width="132" height="1" fill="#4a2028" opacity="0.4"/>
  <rect x="324" y="170" width="132" height="1" fill="#4a2028" opacity="0.4"/>
  <rect x="324" y="180" width="132" height="1" fill="#4a2028" opacity="0.4"/>
  <rect x="324" y="190" width="132" height="1" fill="#4a2028" opacity="0.4"/>
  <!-- Windows right building -->
  <rect x="334" y="98" width="14" height="10" fill="#00fff2" opacity="0.1"/>
  <rect x="358" y="98" width="14" height="10" fill="#00fff2" opacity="0.15"/>
  <rect x="382" y="98" width="14" height="10" fill="#8844aa" opacity="0.1"/>
  <rect x="406" y="98" width="14" height="10" fill="#00fff2" opacity="0.12"/>
  <rect x="430" y="98" width="14" height="10" fill="#00fff2" opacity="0.18"/>
  <rect x="334" y="116" width="14" height="10" fill="#00fff2" opacity="0.15"/>
  <rect x="358" y="116" width="14" height="10" fill="#8844aa" opacity="0.12"/>
  <rect x="382" y="116" width="14" height="10" fill="#00fff2" opacity="0.1"/>
  <rect x="406" y="116" width="14" height="10" fill="#00fff2" opacity="0.2"/>
  <rect x="430" y="116" width="14" height="10" fill="#00fff2" opacity="0.1"/>
  <rect x="334" y="134" width="14" height="10" fill="#00fff2" opacity="0.12"/>
  <rect x="358" y="134" width="14" height="10" fill="#00fff2" opacity="0.1"/>
  <rect x="382" y="134" width="14" height="10" fill="#00fff2" opacity="0.15"/>
  <rect x="406" y="134" width="14" height="10" fill="#8844aa" opacity="0.1"/>
  <rect x="430" y="134" width="14" height="10" fill="#00fff2" opacity="0.12"/>
  <!-- PolyU Neon Sign in RED -->
  <rect x="180" y="56" width="120" height="14" fill="#08081a"/>
  <!-- P -->
  <rect x="190" y="58" width="2" height="10" fill="#ff3344" opacity="0.9"/>
  <rect x="192" y="58" width="6" height="2" fill="#ff3344" opacity="0.9"/>
  <rect x="196" y="60" width="2" height="2" fill="#ff3344" opacity="0.9"/>
  <rect x="192" y="62" width="6" height="2" fill="#ff3344" opacity="0.9"/>
  <!-- o -->
  <rect x="202" y="60" width="8" height="8" fill="#ff3344" opacity="0.9"/>
  <rect x="204" y="62" width="4" height="4" fill="#08081a"/>
  <!-- l -->
  <rect x="214" y="58" width="2" height="10" fill="#ff3344" opacity="0.9"/>
  <!-- y -->
  <rect x="220" y="60" width="2" height="4" fill="#ff3344" opacity="0.9"/>
  <rect x="226" y="60" width="2" height="4" fill="#ff3344" opacity="0.9"/>
  <rect x="220" y="64" width="8" height="2" fill="#ff3344" opacity="0.9"/>
  <rect x="226" y="66" width="2" height="4" fill="#ff3344" opacity="0.9"/>
  <!-- U -->
  <rect x="234" y="58" width="2" height="10" fill="#ff3344" opacity="0.9"/>
  <rect x="242" y="58" width="2" height="10" fill="#ff3344" opacity="0.9"/>
  <rect x="234" y="66" width="10" height="2" fill="#ff3344" opacity="0.9"/>
  <!-- Red neon glow -->
  <rect x="176" y="54" width="128" height="18" fill="#ff3344" opacity="0.04"/>
  <!-- Geometric design shapes -->
  <rect x="160" y="120" width="40" height="40" fill="#2a1418" transform="rotate(15 180 140)"/>
  <rect x="260" y="130" width="30" height="30" fill="#2a1418" transform="rotate(-10 275 145)"/>
  <!-- Walkway between buildings -->
  <rect x="140" y="240" width="200" height="80" fill="#10102a"/>
  <rect x="180" y="240" width="120" height="80" fill="#12122e"/>
  <!-- MTR station hint - entrance -->
  <rect x="400" y="230" width="60" height="10" fill="#1a3a1a"/>
  <rect x="404" y="222" width="52" height="8" fill="#1a3a1a"/>
  <rect x="410" y="218" width="40" height="4" fill="#22aa44" opacity="0.3"/>
  <rect x="420" y="226" width="20" height="14" fill="#0a0a20"/>
  <!-- Student walking between buildings -->
  <rect x="240" y="218" width="8" height="4" fill="#dda088"/>
  <rect x="238" y="222" width="12" height="12" fill="#2a6090"/>
  <rect x="238" y="234" width="4" height="6" fill="#1a1a3a"/>
  <rect x="246" y="234" width="4" height="6" fill="#1a1a3a"/>
  <!-- Hung Hom urban surroundings - small buildings background -->
  <rect x="0" y="60" width="20" height="180" fill="#0e0e28"/>
  <rect x="460" y="50" width="20" height="190" fill="#0e0e28"/>
  <rect x="0" y="56" width="14" height="4" fill="#121232"/>
  <rect x="466" y="46" width="14" height="4" fill="#121232"/>
  <!-- Ground -->
  <rect x="0" y="240" width="140" height="80" fill="#0c0c24"/>
  <rect x="340" y="240" width="140" height="80" fill="#0c0c24"/>
  <rect x="0" y="240" width="480" height="2" fill="#1a1a40"/>
  <!-- Neon ground reflection -->
  <rect x="200" y="244" width="80" height="2" fill="#ff3344" opacity="0.04"/>
  <rect x="210" y="250" width="60" height="2" fill="#ff3344" opacity="0.03"/>
  <!-- Scanlines -->
  <g opacity="0.02" fill="#fff">
    <rect x="0" y="0" width="480" height="1"/><rect x="0" y="8" width="480" height="1"/>
    <rect x="0" y="16" width="480" height="1"/><rect x="0" y="24" width="480" height="1"/>
    <rect x="0" y="32" width="480" height="1"/><rect x="0" y="40" width="480" height="1"/>
    <rect x="0" y="48" width="480" height="1"/><rect x="0" y="56" width="480" height="1"/>
    <rect x="0" y="64" width="480" height="1"/><rect x="0" y="72" width="480" height="1"/>
    <rect x="0" y="80" width="480" height="1"/><rect x="0" y="88" width="480" height="1"/>
    <rect x="0" y="96" width="480" height="1"/><rect x="0" y="104" width="480" height="1"/>
    <rect x="0" y="112" width="480" height="1"/><rect x="0" y="120" width="480" height="1"/>
    <rect x="0" y="128" width="480" height="1"/><rect x="0" y="136" width="480" height="1"/>
    <rect x="0" y="144" width="480" height="1"/><rect x="0" y="152" width="480" height="1"/>
    <rect x="0" y="160" width="480" height="1"/><rect x="0" y="168" width="480" height="1"/>
    <rect x="0" y="176" width="480" height="1"/><rect x="0" y="184" width="480" height="1"/>
    <rect x="0" y="192" width="480" height="1"/><rect x="0" y="200" width="480" height="1"/>
    <rect x="0" y="208" width="480" height="1"/><rect x="0" y="216" width="480" height="1"/>
    <rect x="0" y="224" width="480" height="1"/><rect x="0" y="232" width="480" height="1"/>
    <rect x="0" y="240" width="480" height="1"/><rect x="0" y="248" width="480" height="1"/>
    <rect x="0" y="256" width="480" height="1"/><rect x="0" y="264" width="480" height="1"/>
    <rect x="0" y="272" width="480" height="1"/><rect x="0" y="280" width="480" height="1"/>
    <rect x="0" y="288" width="480" height="1"/><rect x="0" y="296" width="480" height="1"/>
    <rect x="0" y="304" width="480" height="1"/><rect x="0" y="312" width="480" height="1"/>
  </g>
</svg>
