<svg width="480" height="320" xmlns="http://www.w3.org/2000/svg" viewBox="0 0 480 320">
  <!-- Background -->
  <rect width="480" height="320" fill="#08081a"/>
  <!-- Stars -->
  <rect x="20" y="10" width="2" height="2" fill="#fff" opacity="0.5"/>
  <rect x="90" y="22" width="2" height="2" fill="#fff" opacity="0.6"/>
  <rect x="170" y="6" width="2" height="2" fill="#fff" opacity="0.4"/>
  <rect x="340" y="14" width="2" height="2" fill="#fff" opacity="0.7"/>
  <rect x="420" y="8" width="2" height="2" fill="#fff" opacity="0.5"/>
  <rect x="460" y="28" width="2" height="2" fill="#fff" opacity="0.3"/>
  <rect x="280" y="20" width="2" height="2" fill="#fff" opacity="0.6"/>
  <!-- Ma On Shan mountain backdrop -->
  <rect x="0" y="100" width="480" height="80" fill="#0a1020"/>
  <rect x="40" y="80" width="120" height="20" fill="#0c1428"/>
  <rect x="60" y="60" width="80" height="20" fill="#0e1830"/>
  <rect x="80" y="44" width="40" height="16" fill="#101c38"/>
  <rect x="90" y="36" width="20" height="8" fill="#121e3c"/>
  <rect x="180" y="70" width="140" height="30" fill="#0c1428"/>
  <rect x="200" y="50" width="100" height="20" fill="#0e1830"/>
  <rect x="220" y="36" width="60" height="14" fill="#101c38"/>
  <rect x="240" y="28" width="20" height="8" fill="#121e3c"/>
  <rect x="340" y="74" width="140" height="26" fill="#0c1428"/>
  <rect x="360" y="58" width="100" height="16" fill="#0e1830"/>
  <rect x="380" y="46" width="60" height="12" fill="#101c38"/>
  <rect x="396" y="38" width="28" height="8" fill="#121e3c"/>
  <!-- Green hills -->
  <rect x="0" y="140" width="480" height="40" fill="#0a2818"/>
  <rect x="20" y="130" width="100" height="14" fill="#0c3018"/>
  <rect x="50" y="122" width="40" height="8" fill="#0e3820"/>
  <rect x="160" y="128" width="120" height="16" fill="#0c3018"/>
  <rect x="190" y="120" width="60" height="8" fill="#0e3820"/>
  <rect x="340" y="126" width="100" height="18" fill="#0c3018"/>
  <rect x="370" y="118" width="40" height="8" fill="#0e3820"/>
  <!-- More green patches -->
  <rect x="0" y="152" width="160" height="8" fill="#082210"/>
  <rect x="200" y="150" width="120" height="10" fill="#082210"/>
  <rect x="360" y="148" width="120" height="12" fill="#082210"/>
  <!-- Weiyuan Lake -->
  <rect x="100" y="200" width="200" height="40" fill="#0a1a40"/>
  <rect x="110" y="204" width="180" height="32" fill="#0c2050"/>
  <!-- Lake reflection -->
  <rect x="140" y="210" width="40" height="2" fill="#00fff2" opacity="0.06"/>
  <rect x="200" y="216" width="60" height="2" fill="#00fff2" opacity="0.04"/>
  <rect x="160" y="222" width="50" height="2" fill="#8844aa" opacity="0.04"/>
  <rect x="120" y="228" width="30" height="2" fill="#00fff2" opacity="0.03"/>
  <!-- Chinese-style gate/pavilion -->
  <rect x="180" y="158" width="60" height="4" fill="#3a1a1a"/>
  <rect x="176" y="154" width="68" height="4" fill="#4a2020"/>
  <rect x="172" y="150" width="76" height="4" fill="#5a2828"/>
  <rect x="168" y="148" width="84" height="2" fill="#6a3030"/>
  <!-- Upturned roof edges -->
  <rect x="164" y="148" width="4" height="2" fill="#6a3030"/>
  <rect x="252" y="148" width="4" height="2" fill="#6a3030"/>
  <rect x="162" y="146" width="4" height="2" fill="#5a2828"/>
  <rect x="254" y="146" width="4" height="2" fill="#5a2828"/>
  <!-- Gate pillars -->
  <rect x="190" y="162" width="6" height="28" fill="#4a2020"/>
  <rect x="244" y="162" width="6" height="28" fill="#4a2020"/>
  <!-- Gate opening -->
  <rect x="196" y="168" width="48" height="22" fill="#06061a"/>
  <!-- CUHK Neon Sign -->
  <rect x="202" y="160" width="36" height="8" fill="#08081a"/>
  <!-- C -->
  <rect x="204" y="161" width="6" height="6" fill="#00fff2" opacity="0.9"/>
  <rect x="206" y="163" width="2" height="2" fill="#08081a"/>
  <!-- U -->
  <rect x="212" y="161" width="2" height="6" fill="#00fff2" opacity="0.9"/>
  <rect x="218" y="161" width="2" height="6" fill="#00fff2" opacity="0.9"/>
  <rect x="212" y="165" width="8" height="2" fill="#00fff2" opacity="0.9"/>
  <!-- H -->
  <rect x="222" y="161" width="2" height="6" fill="#00fff2" opacity="0.9"/>
  <rect x="228" y="161" width="2" height="6" fill="#00fff2" opacity="0.9"/>
  <rect x="222" y="163" width="8" height="2" fill="#00fff2" opacity="0.9"/>
  <!-- K -->
  <rect x="232" y="161" width="2" height="6" fill="#00fff2" opacity="0.9"/>
  <rect x="234" y="163" width="2" height="2" fill="#00fff2" opacity="0.9"/>
  <rect x="236" y="161" width="2" height="2" fill="#00fff2" opacity="0.9"/>
  <rect x="236" y="165" width="2" height="2" fill="#00fff2" opacity="0.9"/>
  <!-- Neon glow -->
  <rect x="198" y="158" width="44" height="14" fill="#00fff2" opacity="0.04"/>
  <!-- Winding path going up hill -->
  <rect x="240" y="190" width="20" height="50" fill="#1a1a30"/>
  <rect x="230" y="186" width="20" height="10" fill="#1a1a30"/>
  <rect x="260" y="182" width="20" height="10" fill="#1a1a30"/>
  <rect x="250" y="174" width="20" height="10" fill="#1a1a30"/>
  <rect x="270" y="166" width="20" height="10" fill="#1a1a30"/>
  <rect x="260" y="160" width="20" height="8" fill="#1a1a30"/>
  <!-- Student climbing hill with heavy backpack -->
  <rect x="264" y="164" width="8" height="4" fill="#dda088"/>
  <rect x="262" y="168" width="12" height="10" fill="#2a6090"/>
  <!-- Backpack -->
  <rect x="272" y="166" width="8" height="12" fill="#8844aa" opacity="0.8"/>
  <rect x="274" y="164" width="4" height="2" fill="#8844aa" opacity="0.6"/>
  <!-- Legs walking uphill -->
  <rect x="264" y="178" width="4" height="6" fill="#1a1a3a"/>
  <rect x="270" y="178" width="4" height="4" fill="#1a1a3a"/>
  <!-- Ground -->
  <rect x="0" y="240" width="480" height="80" fill="#0c0c24"/>
  <!-- More trees/bushes -->
  <rect x="20" y="180" width="6" height="30" fill="#081a0c"/>
  <rect x="10" y="168" width="26" height="16" fill="#0a2a10"/>
  <rect x="14" y="160" width="18" height="10" fill="#0c3012"/>
  <rect x="400" y="176" width="6" height="34" fill="#081a0c"/>
  <rect x="390" y="164" width="26" height="16" fill="#0a2a10"/>
  <rect x="394" y="156" width="18" height="10" fill="#0c3012"/>
  <rect x="440" y="184" width="6" height="26" fill="#081a0c"/>
  <rect x="432" y="172" width="22" height="16" fill="#0a2a10"/>
  <rect x="436" y="164" width="14" height="10" fill="#0c3012"/>
  <!-- Additional vegetation -->
  <rect x="60" y="188" width="30" height="8" fill="#0a2210"/>
  <rect x="340" y="186" width="24" height="8" fill="#0a2210"/>
  <!-- Ground detail -->
  <rect x="0" y="240" width="480" height="2" fill="#1a1a40"/>
  <!-- Scanlines -->
  <g opacity="0.02" fill="#fff">
    <rect x="0" y="0" width="480" height="1"/><rect x="0" y="8" width="480" height="1"/>
    <rect x="0" y="16" width="480" height="1"/><rect x="0" y="24" width="480" height="1"/>
    <rect x="0" y="32" width="480" height="1"/><rect x="0" y="40" width="480" height="1"/>
    <rect x="0" y="48" width="480" height="1"/><rect x="0" y="56" width="480" height="1"/>
    <rect x="0" y="64" width="480" height="1"/><rect x="0" y="72" width="480" height="1"/>
    <rect x="0" y="80" width="480" height="1"/><rect x="0" y="88" width="480" height="1"/>
    <rect x="0" y="96" width="480" height="1"/><rect x="0" y="104" width="480" height="1"/>
    <rect x="0" y="112" width="480" height="1"/><rect x="0" y="120" width="480" height="1"/>
    <rect x="0" y="128" width="480" height="1"/><rect x="0" y="136" width="480" height="1"/>
    <rect x="0" y="144" width="480" height="1"/><rect x="0" y="152" width="480" height="1"/>
    <rect x="0" y="160" width="480" height="1"/><rect x="0" y="168" width="480" height="1"/>
    <rect x="0" y="176" width="480" height="1"/><rect x="0" y="184" width="480" height="1"/>
    <rect x="0" y="192" width="480" height="1"/><rect x="0" y="200" width="480" height="1"/>
    <rect x="0" y="208" width="480" height="1"/><rect x="0" y="216" width="480" height="1"/>
    <rect x="0" y="224" width="480" height="1"/><rect x="0" y="232" width="480" height="1"/>
    <rect x="0" y="240" width="480" height="1"/><rect x="0" y="248" width="480" height="1"/>
    <rect x="0" y="256" width="480" height="1"/><rect x="0" y="264" width="480" height="1"/>
    <rect x="0" y="272" width="480" height="1"/><rect x="0" y="280" width="480" height="1"/>
    <rect x="0" y="288" width="480" height="1"/><rect x="0" y="296" width="480" height="1"/>
    <rect x="0" y="304" width="480" height="1"/><rect x="0" y="312" width="480" height="1"/>
  </g>
</svg>
