<svg width="480" height="320" xmlns="http://www.w3.org/2000/svg" viewBox="0 0 480 320">
  <defs>
    <filter id="miracle-glow"><feGaussianBlur stdDeviation="3" result="blur"/><feMerge><feMergeNode in="blur"/><feMergeNode in="SourceGraphic"/></feMerge></filter>
    <filter id="miracle-glow-sm"><feGaussianBlur stdDeviation="1.5" result="blur"/><feMerge><feMergeNode in="blur"/><feMergeNode in="SourceGraphic"/></feMerge></filter>
  </defs>
  <!-- Background -->
  <rect width="480" height="320" fill="#08081a"/>
  <!-- Golden center glow -->
  <rect x="140" y="60" width="200" height="200" fill="#ffcc00" opacity="0.04" filter="url(#miracle-glow)"/>
  <rect x="180" y="100" width="120" height="120" fill="#ffcc00" opacity="0.06" filter="url(#miracle-glow)"/>
  <rect x="210" y="130" width="60" height="60" fill="#ffdd22" opacity="0.08" filter="url(#miracle-glow)"/>
  <!-- Stars in sky -->
  <rect x="30" y="10" width="2" height="2" fill="#fff" opacity="0.6"/>
  <rect x="80" y="25" width="2" height="2" fill="#fff" opacity="0.5"/>
  <rect x="150" y="8" width="2" height="2" fill="#fff" opacity="0.7"/>
  <rect x="320" y="12" width="2" height="2" fill="#fff" opacity="0.5"/>
  <rect x="400" y="20" width="2" height="2" fill="#fff" opacity="0.6"/>
  <rect x="450" y="8" width="2" height="2" fill="#fff" opacity="0.4"/>
  <!-- Rainbow arc (pixel art) -->
  <rect x="80" y="40" width="320" height="4" fill="#ff2244" opacity="0.15"/>
  <rect x="90" y="44" width="300" height="4" fill="#ff8822" opacity="0.15"/>
  <rect x="100" y="48" width="280" height="4" fill="#ffcc00" opacity="0.15"/>
  <rect x="110" y="52" width="260" height="4" fill="#22cc44" opacity="0.12"/>
  <rect x="120" y="56" width="240" height="4" fill="#2a6090" opacity="0.12"/>
  <rect x="130" y="60" width="220" height="4" fill="#8844aa" opacity="0.12"/>
  <!-- 奇迹 neon text -->
  <rect x="170" y="70" width="140" height="28" fill="#ffcc00" opacity="0.08" filter="url(#miracle-glow)"/>
  <!-- 奇 pixel approximation -->
  <rect x="185" y="74" width="16" height="2" fill="#ffcc00" filter="url(#miracle-glow-sm)"/>
  <rect x="191" y="76" width="2" height="6" fill="#ffcc00"/>
  <rect x="183" y="82" width="20" height="2" fill="#ffcc00"/>
  <rect x="185" y="84" width="2" height="8" fill="#ffcc00"/>
  <rect x="199" y="84" width="2" height="8" fill="#ffcc00"/>
  <rect x="189" y="86" width="8" height="2" fill="#ffcc00"/>
  <rect x="191" y="88" width="2" height="4" fill="#ffcc00"/>
  <rect x="187" y="92" width="10" height="2" fill="#ffcc00"/>
  <!-- 迹 pixel approximation -->
  <rect x="215" y="74" width="2" height="20" fill="#ffcc00" filter="url(#miracle-glow-sm)"/>
  <rect x="219" y="76" width="12" height="2" fill="#ffcc00"/>
  <rect x="223" y="78" width="2" height="6" fill="#ffcc00"/>
  <rect x="219" y="82" width="12" height="2" fill="#ffcc00"/>
  <rect x="219" y="84" width="2" height="6" fill="#ffcc00"/>
  <rect x="229" y="84" width="2" height="6" fill="#ffcc00"/>
  <rect x="221" y="88" width="6" height="2" fill="#ffcc00"/>
  <rect x="219" y="90" width="12" height="2" fill="#ffcc00"/>
  <!-- JACKPOT text -->
  <rect x="280" y="74" width="80" height="20" fill="#ffcc00" opacity="0.06"/>
  <!-- J -->
  <rect x="284" y="76" width="8" height="2" fill="#00fff2" filter="url(#miracle-glow-sm)"/>
  <rect x="288" y="78" width="2" height="8" fill="#00fff2"/>
  <rect x="284" y="86" width="4" height="2" fill="#00fff2"/>
  <!-- A -->
  <rect x="296" y="76" width="2" height="12" fill="#00fff2"/>
  <rect x="298" y="76" width="4" height="2" fill="#00fff2"/>
  <rect x="302" y="76" width="2" height="12" fill="#00fff2"/>
  <rect x="298" y="82" width="4" height="2" fill="#00fff2"/>
  <!-- C -->
  <rect x="308" y="76" width="8" height="2" fill="#00fff2"/>
  <rect x="308" y="78" width="2" height="8" fill="#00fff2"/>
  <rect x="308" y="86" width="8" height="2" fill="#00fff2"/>
  <!-- K -->
  <rect x="320" y="76" width="2" height="12" fill="#00fff2"/>
  <rect x="326" y="76" width="2" height="4" fill="#00fff2"/>
  <rect x="324" y="80" width="2" height="2" fill="#00fff2"/>
  <rect x="322" y="82" width="2" height="2" fill="#00fff2"/>
  <rect x="324" y="84" width="2" height="2" fill="#00fff2"/>
  <rect x="326" y="86" width="2" height="2" fill="#00fff2"/>
  <!-- Lucky cat pixel art (center) -->
  <rect x="210" y="130" width="30" height="30" fill="#ffcc00" opacity="0.3"/>
  <rect x="210" y="130" width="30" height="4" fill="#ffdd44" opacity="0.4"/>
  <!-- Cat ears -->
  <rect x="212" y="124" width="6" height="8" fill="#ffcc00" opacity="0.3"/>
  <rect x="232" y="124" width="6" height="8" fill="#ffcc00" opacity="0.3"/>
  <!-- Cat face -->
  <rect x="216" y="136" width="4" height="4" fill="#08081a" opacity="0.6"/>
  <rect x="228" y="136" width="4" height="4" fill="#08081a" opacity="0.6"/>
  <rect x="222" y="142" width="4" height="2" fill="#ff8822" opacity="0.5"/>
  <!-- Cat raised paw -->
  <rect x="238" y="130" width="6" height="4" fill="#ffcc00" opacity="0.35"/>
  <rect x="240" y="126" width="4" height="6" fill="#ffcc00" opacity="0.35"/>
  <!-- Cat body -->
  <rect x="214" y="160" width="22" height="12" fill="#ffcc00" opacity="0.25"/>
  <!-- Slot machine (left side) -->
  <rect x="80" y="140" width="60" height="80" fill="#1a1a50"/>
  <rect x="80" y="140" width="60" height="4" fill="#2a6090" opacity="0.4"/>
  <rect x="85" y="150" width="14" height="18" fill="#0a0a22"/>
  <rect x="103" y="150" width="14" height="18" fill="#0a0a22"/>
  <rect x="121" y="150" width="14" height="18" fill="#0a0a22"/>
  <!-- Slot symbols -->
  <rect x="89" y="155" width="6" height="8" fill="#ffcc00" opacity="0.6"/>
  <rect x="107" y="155" width="6" height="8" fill="#ffcc00" opacity="0.6"/>
  <rect x="125" y="155" width="6" height="8" fill="#ffcc00" opacity="0.6"/>
  <!-- Slot handle -->
  <rect x="142" y="152" width="4" height="20" fill="#882030"/>
  <rect x="140" y="148" width="8" height="6" fill="#aa2244"/>
  <!-- Slot base -->
  <rect x="84" y="175" width="52" height="6" fill="#2a6090" opacity="0.3"/>
  <rect x="90" y="185" width="40" height="8" fill="#1a1a44"/>
  <rect x="94" y="187" width="32" height="4" fill="#00fff2" opacity="0.2"/>
  <!-- Coins raining down -->
  <rect x="120" y="80" width="6" height="6" fill="#ffcc00" opacity="0.5" filter="url(#miracle-glow-sm)"/>
  <rect x="160" y="100" width="6" height="6" fill="#ffdd22" opacity="0.4"/>
  <rect x="200" y="90" width="6" height="6" fill="#ffcc00" opacity="0.5"/>
  <rect x="260" y="95" width="6" height="6" fill="#ffdd22" opacity="0.45"/>
  <rect x="300" y="105" width="6" height="6" fill="#ffcc00" opacity="0.4"/>
  <rect x="340" y="85" width="6" height="6" fill="#ffdd22" opacity="0.5"/>
  <rect x="140" y="120" width="5" height="5" fill="#ffcc00" opacity="0.35"/>
  <rect x="180" y="115" width="5" height="5" fill="#ffdd22" opacity="0.4"/>
  <rect x="280" y="110" width="5" height="5" fill="#ffcc00" opacity="0.35"/>
  <rect x="360" y="120" width="5" height="5" fill="#ffdd22" opacity="0.4"/>
  <rect x="100" y="140" width="4" height="4" fill="#ffcc00" opacity="0.3"/>
  <rect x="370" y="135" width="4" height="4" fill="#ffcc00" opacity="0.3"/>
  <rect x="60" y="160" width="4" height="4" fill="#ffdd22" opacity="0.25"/>
  <rect x="400" y="150" width="4" height="4" fill="#ffcc00" opacity="0.25"/>
  <!-- Sparkle effects (small bright rects) -->
  <rect x="190" y="70" width="2" height="2" fill="#fff" opacity="0.8"/>
  <rect x="270" y="80" width="2" height="2" fill="#fff" opacity="0.7"/>
  <rect x="150" y="105" width="2" height="2" fill="#fff" opacity="0.6"/>
  <rect x="310" y="115" width="2" height="2" fill="#fff" opacity="0.7"/>
  <rect x="230" y="95" width="2" height="2" fill="#fff" opacity="0.9"/>
  <rect x="350" y="100" width="2" height="2" fill="#fff" opacity="0.6"/>
  <rect x="100" y="110" width="2" height="2" fill="#fff" opacity="0.5"/>
  <rect x="410" y="130" width="2" height="2" fill="#fff" opacity="0.6"/>
  <rect x="50" y="90" width="2" height="2" fill="#fff" opacity="0.5"/>
  <rect x="430" y="95" width="2" height="2" fill="#fff" opacity="0.4"/>
  <!-- Cross sparkles -->
  <rect x="238" y="88" width="4" height="2" fill="#fff" opacity="0.6"/>
  <rect x="239" y="86" width="2" height="6" fill="#fff" opacity="0.6"/>
  <rect x="168" y="108" width="4" height="2" fill="#fff" opacity="0.5"/>
  <rect x="169" y="106" width="2" height="6" fill="#fff" opacity="0.5"/>
  <!-- Figure with arms raised -->
  <rect x="330" y="180" width="10" height="10" fill="#00fff2" opacity="0.5"/>
  <rect x="331" y="190" width="8" height="14" fill="#151550"/>
  <!-- Arms raised -->
  <rect x="324" y="178" width="6" height="4" fill="#151550"/>
  <rect x="322" y="174" width="4" height="6" fill="#151550"/>
  <rect x="340" y="178" width="6" height="4" fill="#151550"/>
  <rect x="344" y="174" width="4" height="6" fill="#151550"/>
  <!-- Legs -->
  <rect x="331" y="204" width="3" height="10" fill="#151550"/>
  <rect x="336" y="204" width="3" height="10" fill="#151550"/>
  <!-- Ground -->
  <rect x="0" y="260" width="480" height="60" fill="#0a0a20"/>
  <rect x="0" y="260" width="480" height="2" fill="#ffcc00" opacity="0.06"/>
  <!-- Ground coin reflections -->
  <rect x="100" y="270" width="10" height="2" fill="#ffcc00" opacity="0.04"/>
  <rect x="200" y="275" width="15" height="2" fill="#ffcc00" opacity="0.05"/>
  <rect x="300" y="268" width="12" height="2" fill="#ffcc00" opacity="0.04"/>
  <rect x="350" y="280" width="8" height="2" fill="#ffcc00" opacity="0.03"/>
  <!-- Scanlines -->
  <rect x="0" y="0" width="480" height="1" fill="#fff" opacity="0.02"/>
  <rect x="0" y="8" width="480" height="1" fill="#fff" opacity="0.02"/>
  <rect x="0" y="16" width="480" height="1" fill="#fff" opacity="0.02"/>
  <rect x="0" y="24" width="480" height="1" fill="#fff" opacity="0.02"/>
  <rect x="0" y="32" width="480" height="1" fill="#fff" opacity="0.02"/>
  <rect x="0" y="40" width="480" height="1" fill="#fff" opacity="0.02"/>
  <rect x="0" y="48" width="480" height="1" fill="#fff" opacity="0.02"/>
  <rect x="0" y="56" width="480" height="1" fill="#fff" opacity="0.02"/>
  <rect x="0" y="64" width="480" height="1" fill="#fff" opacity="0.02"/>
  <rect x="0" y="72" width="480" height="1" fill="#fff" opacity="0.02"/>
  <rect x="0" y="80" width="480" height="1" fill="#fff" opacity="0.02"/>
  <rect x="0" y="88" width="480" height="1" fill="#fff" opacity="0.02"/>
  <rect x="0" y="96" width="480" height="1" fill="#fff" opacity="0.02"/>
  <rect x="0" y="104" width="480" height="1" fill="#fff" opacity="0.02"/>
  <rect x="0" y="112" width="480" height="1" fill="#fff" opacity="0.02"/>
  <rect x="0" y="120" width="480" height="1" fill="#fff" opacity="0.02"/>
  <rect x="0" y="128" width="480" height="1" fill="#fff" opacity="0.02"/>
  <rect x="0" y="136" width="480" height="1" fill="#fff" opacity="0.02"/>
  <rect x="0" y="144" width="480" height="1" fill="#fff" opacity="0.02"/>
  <rect x="0" y="152" width="480" height="1" fill="#fff" opacity="0.02"/>
  <rect x="0" y="160" width="480" height="1" fill="#fff" opacity="0.02"/>
  <rect x="0" y="168" width="480" height="1" fill="#fff" opacity="0.02"/>
  <rect x="0" y="176" width="480" height="1" fill="#fff" opacity="0.02"/>
  <rect x="0" y="184" width="480" height="1" fill="#fff" opacity="0.02"/>
  <rect x="0" y="192" width="480" height="1" fill="#fff" opacity="0.02"/>
  <rect x="0" y="200" width="480" height="1" fill="#fff" opacity="0.02"/>
  <rect x="0" y="208" width="480" height="1" fill="#fff" opacity="0.02"/>
  <rect x="0" y="216" width="480" height="1" fill="#fff" opacity="0.02"/>
  <rect x="0" y="224" width="480" height="1" fill="#fff" opacity="0.02"/>
  <rect x="0" y="232" width="480" height="1" fill="#fff" opacity="0.02"/>
  <rect x="0" y="240" width="480" height="1" fill="#fff" opacity="0.02"/>
  <rect x="0" y="248" width="480" height="1" fill="#fff" opacity="0.02"/>
  <rect x="0" y="256" width="480" height="1" fill="#fff" opacity="0.02"/>
  <rect x="0" y="264" width="480" height="1" fill="#fff" opacity="0.02"/>
  <rect x="0" y="272" width="480" height="1" fill="#fff" opacity="0.02"/>
  <rect x="0" y="280" width="480" height="1" fill="#fff" opacity="0.02"/>
  <rect x="0" y="288" width="480" height="1" fill="#fff" opacity="0.02"/>
  <rect x="0" y="296" width="480" height="1" fill="#fff" opacity="0.02"/>
  <rect x="0" y="304" width="480" height="1" fill="#fff" opacity="0.02"/>
  <rect x="0" y="312" width="480" height="1" fill="#fff" opacity="0.02"/>
</svg>
