<svg width="480" height="320" xmlns="http://www.w3.org/2000/svg" viewBox="0 0 480 320">
  <defs>
    <filter id="crisis-glow"><feGaussianBlur stdDeviation="3" result="blur"/><feMerge><feMergeNode in="blur"/><feMergeNode in="SourceGraphic"/></feMerge></filter>
    <filter id="crisis-glow-sm"><feGaussianBlur stdDeviation="1.5" result="blur"/><feMerge><feMergeNode in="blur"/><feMergeNode in="SourceGraphic"/></feMerge></filter>
  </defs>
  <!-- Background - dark with red tint -->
  <rect width="480" height="320" fill="#08081a"/>
  <rect width="480" height="320" fill="#220808" opacity="0.4"/>
  <!-- Red ambient glow -->
  <rect x="100" y="40" width="280" height="240" fill="#aa0020" opacity="0.05" filter="url(#crisis-glow)"/>
  <!-- Cracking ground -->
  <rect x="0" y="260" width="480" height="60" fill="#0a0a1e"/>
  <rect x="0" y="260" width="480" height="2" fill="#1a0a0a"/>
  <!-- Ground cracks -->
  <rect x="100" y="262" width="2" height="20" fill="#220808"/>
  <rect x="102" y="280" width="2" height="15" fill="#220808"/>
  <rect x="98" y="275" width="2" height="10" fill="#220808"/>
  <rect x="200" y="264" width="2" height="25" fill="#220808"/>
  <rect x="202" y="285" width="2" height="10" fill="#220808"/>
  <rect x="198" y="270" width="2" height="12" fill="#220808"/>
  <rect x="300" y="262" width="2" height="18" fill="#220808"/>
  <rect x="302" y="278" width="2" height="20" fill="#220808"/>
  <rect x="350" y="265" width="2" height="15" fill="#220808"/>
  <rect x="150" y="263" width="2" height="30" fill="#330a0a"/>
  <rect x="250" y="266" width="2" height="22" fill="#330a0a"/>
  <rect x="380" y="262" width="2" height="28" fill="#220808"/>
  <!-- Red glow from cracks -->
  <rect x="99" y="262" width="4" height="2" fill="#aa0020" opacity="0.3" filter="url(#crisis-glow-sm)"/>
  <rect x="199" y="264" width="4" height="2" fill="#aa0020" opacity="0.3" filter="url(#crisis-glow-sm)"/>
  <rect x="299" y="262" width="4" height="2" fill="#aa0020" opacity="0.25" filter="url(#crisis-glow-sm)"/>
  <!-- Warning lights (top corners) -->
  <rect x="10" y="10" width="16" height="16" fill="#aa0020" opacity="0.7" filter="url(#crisis-glow)"/>
  <rect x="14" y="14" width="8" height="8" fill="#ff2244" opacity="0.9"/>
  <rect x="454" y="10" width="16" height="16" fill="#aa0020" opacity="0.7" filter="url(#crisis-glow)"/>
  <rect x="458" y="14" width="8" height="8" fill="#ff2244" opacity="0.9"/>
  <rect x="10" y="40" width="16" height="16" fill="#aa0020" opacity="0.5" filter="url(#crisis-glow)"/>
  <rect x="14" y="44" width="8" height="8" fill="#ff2244" opacity="0.7"/>
  <rect x="454" y="40" width="16" height="16" fill="#aa0020" opacity="0.5" filter="url(#crisis-glow)"/>
  <rect x="458" y="44" width="8" height="8" fill="#ff2244" opacity="0.7"/>
  <!-- Alarm bell -->
  <rect x="228" y="20" width="24" height="20" fill="#aa0020" opacity="0.3"/>
  <rect x="232" y="16" width="16" height="4" fill="#882030"/>
  <rect x="230" y="20" width="20" height="16" fill="#993040"/>
  <rect x="236" y="24" width="8" height="8" fill="#ff2244" opacity="0.6" filter="url(#crisis-glow-sm)"/>
  <rect x="238" y="36" width="4" height="6" fill="#882030"/>
  <!-- WARNING neon text -->
  <rect x="120" y="60" width="110" height="24" fill="#aa0020" opacity="0.1" filter="url(#crisis-glow)"/>
  <!-- W -->
  <rect x="125" y="64" width="2" height="14" fill="#ff2244" filter="url(#crisis-glow-sm)"/>
  <rect x="129" y="74" width="2" height="4" fill="#ff2244"/>
  <rect x="133" y="64" width="2" height="14" fill="#ff2244"/>
  <!-- A -->
  <rect x="139" y="64" width="2" height="14" fill="#ff2244"/>
  <rect x="141" y="64" width="6" height="2" fill="#ff2244"/>
  <rect x="147" y="64" width="2" height="14" fill="#ff2244"/>
  <rect x="141" y="72" width="6" height="2" fill="#ff2244"/>
  <!-- R -->
  <rect x="153" y="64" width="2" height="14" fill="#ff2244"/>
  <rect x="155" y="64" width="6" height="2" fill="#ff2244"/>
  <rect x="161" y="66" width="2" height="4" fill="#ff2244"/>
  <rect x="155" y="70" width="6" height="2" fill="#ff2244"/>
  <rect x="159" y="72" width="2" height="3" fill="#ff2244"/>
  <rect x="161" y="75" width="2" height="3" fill="#ff2244"/>
  <!-- N -->
  <rect x="167" y="64" width="2" height="14" fill="#ff2244"/>
  <rect x="169" y="66" width="2" height="2" fill="#ff2244"/>
  <rect x="171" y="68" width="2" height="2" fill="#ff2244"/>
  <rect x="173" y="70" width="2" height="2" fill="#ff2244"/>
  <rect x="175" y="64" width="2" height="14" fill="#ff2244"/>
  <!-- 危机 neon text -->
  <rect x="260" y="60" width="90" height="24" fill="#aa0020" opacity="0.1" filter="url(#crisis-glow)"/>
  <!-- 危 pixel approximation -->
  <rect x="268" y="64" width="14" height="2" fill="#ff2244" filter="url(#crisis-glow-sm)"/>
  <rect x="268" y="68" width="2" height="6" fill="#ff2244"/>
  <rect x="282" y="68" width="2" height="6" fill="#ff2244"/>
  <rect x="272" y="70" width="8" height="2" fill="#ff2244"/>
  <rect x="270" y="74" width="4" height="2" fill="#ff2244"/>
  <rect x="278" y="74" width="4" height="2" fill="#ff2244"/>
  <rect x="268" y="76" width="16" height="2" fill="#ff2244"/>
  <!-- 机 pixel approximation -->
  <rect x="294" y="64" width="2" height="16" fill="#ff2244" filter="url(#crisis-glow-sm)"/>
  <rect x="298" y="64" width="12" height="2" fill="#ff2244"/>
  <rect x="304" y="66" width="2" height="12" fill="#ff2244"/>
  <rect x="298" y="70" width="12" height="2" fill="#ff2244"/>
  <rect x="298" y="74" width="4" height="2" fill="#ff2244"/>
  <rect x="306" y="74" width="4" height="2" fill="#ff2244"/>
  <!-- Heartbeat line monitor -->
  <rect x="140" y="100" width="200" height="40" fill="#0a0a1e" opacity="0.8"/>
  <rect x="140" y="100" width="200" height="2" fill="#882030" opacity="0.4"/>
  <rect x="140" y="138" width="200" height="2" fill="#882030" opacity="0.4"/>
  <rect x="140" y="100" width="2" height="40" fill="#882030" opacity="0.4"/>
  <rect x="338" y="100" width="2" height="40" fill="#882030" opacity="0.4"/>
  <!-- Heartbeat line -->
  <rect x="150" y="120" width="20" height="2" fill="#ff2244" opacity="0.7"/>
  <rect x="170" y="118" width="4" height="2" fill="#ff2244" opacity="0.8"/>
  <rect x="174" y="115" width="4" height="2" fill="#ff2244" opacity="0.9"/>
  <rect x="178" y="105" width="4" height="2" fill="#ff2244" filter="url(#crisis-glow-sm)"/>
  <rect x="182" y="130" width="4" height="2" fill="#ff2244" filter="url(#crisis-glow-sm)"/>
  <rect x="186" y="108" width="4" height="2" fill="#ff2244"/>
  <rect x="190" y="118" width="4" height="2" fill="#ff2244"/>
  <rect x="194" y="120" width="20" height="2" fill="#ff2244" opacity="0.7"/>
  <rect x="214" y="118" width="4" height="2" fill="#ff2244"/>
  <rect x="218" y="112" width="4" height="2" fill="#ff2244"/>
  <rect x="222" y="106" width="4" height="2" fill="#ff2244" filter="url(#crisis-glow-sm)"/>
  <rect x="226" y="128" width="4" height="2" fill="#ff2244" filter="url(#crisis-glow-sm)"/>
  <rect x="230" y="110" width="4" height="2" fill="#ff2244"/>
  <rect x="234" y="118" width="4" height="2" fill="#ff2244"/>
  <rect x="238" y="120" width="20" height="2" fill="#ff2244" opacity="0.7"/>
  <rect x="258" y="119" width="4" height="2" fill="#ff2244"/>
  <rect x="262" y="116" width="4" height="2" fill="#ff2244"/>
  <rect x="266" y="120" width="60" height="2" fill="#ff2244" opacity="0.5"/>
  <!-- Figure kneeling stressed -->
  <rect x="225" y="200" width="10" height="10" fill="#2a6090" opacity="0.5"/>
  <rect x="226" y="210" width="8" height="10" fill="#151540"/>
  <rect x="222" y="216" width="6" height="4" fill="#151540"/>
  <rect x="236" y="216" width="6" height="4" fill="#151540"/>
  <rect x="226" y="220" width="4" height="10" fill="#151540"/>
  <rect x="232" y="220" width="4" height="6" fill="#151540"/>
  <rect x="232" y="224" width="8" height="6" fill="#151540"/>
  <!-- Hands on head (stress) -->
  <rect x="223" y="198" width="4" height="4" fill="#151540"/>
  <rect x="235" y="198" width="4" height="4" fill="#151540"/>
  <!-- Shattered glass pieces -->
  <rect x="80" y="150" width="6" height="4" fill="#2a6090" opacity="0.2"/>
  <rect x="90" y="170" width="4" height="6" fill="#2a6090" opacity="0.15"/>
  <rect x="70" y="180" width="5" height="3" fill="#2a6090" opacity="0.2"/>
  <rect x="380" y="145" width="4" height="6" fill="#2a6090" opacity="0.2"/>
  <rect x="390" y="165" width="6" height="4" fill="#2a6090" opacity="0.15"/>
  <rect x="400" y="185" width="3" height="5" fill="#2a6090" opacity="0.2"/>
  <rect x="120" y="190" width="4" height="3" fill="#2a6090" opacity="0.15"/>
  <rect x="340" y="175" width="5" height="4" fill="#2a6090" opacity="0.18"/>
  <rect x="160" y="240" width="3" height="4" fill="#2a6090" opacity="0.12"/>
  <rect x="310" y="245" width="4" height="3" fill="#2a6090" opacity="0.12"/>
  <!-- Scattered glass on ground -->
  <rect x="170" y="255" width="3" height="2" fill="#2a6090" opacity="0.15"/>
  <rect x="210" y="258" width="4" height="2" fill="#2a6090" opacity="0.12"/>
  <rect x="270" y="254" width="3" height="2" fill="#2a6090" opacity="0.15"/>
  <rect x="320" y="257" width="4" height="2" fill="#2a6090" opacity="0.1"/>
  <!-- Dark atmosphere edges -->
  <rect x="0" y="0" width="40" height="320" fill="#08081a" opacity="0.5"/>
  <rect x="440" y="0" width="40" height="320" fill="#08081a" opacity="0.5"/>
  <!-- Scanlines -->
  <rect x="0" y="0" width="480" height="1" fill="#fff" opacity="0.02"/>
  <rect x="0" y="8" width="480" height="1" fill="#fff" opacity="0.02"/>
  <rect x="0" y="16" width="480" height="1" fill="#fff" opacity="0.02"/>
  <rect x="0" y="24" width="480" height="1" fill="#fff" opacity="0.02"/>
  <rect x="0" y="32" width="480" height="1" fill="#fff" opacity="0.02"/>
  <rect x="0" y="40" width="480" height="1" fill="#fff" opacity="0.02"/>
  <rect x="0" y="48" width="480" height="1" fill="#fff" opacity="0.02"/>
  <rect x="0" y="56" width="480" height="1" fill="#fff" opacity="0.02"/>
  <rect x="0" y="64" width="480" height="1" fill="#fff" opacity="0.02"/>
  <rect x="0" y="72" width="480" height="1" fill="#fff" opacity="0.02"/>
  <rect x="0" y="80" width="480" height="1" fill="#fff" opacity="0.02"/>
  <rect x="0" y="88" width="480" height="1" fill="#fff" opacity="0.02"/>
  <rect x="0" y="96" width="480" height="1" fill="#fff" opacity="0.02"/>
  <rect x="0" y="104" width="480" height="1" fill="#fff" opacity="0.02"/>
  <rect x="0" y="112" width="480" height="1" fill="#fff" opacity="0.02"/>
  <rect x="0" y="120" width="480" height="1" fill="#fff" opacity="0.02"/>
  <rect x="0" y="128" width="480" height="1" fill="#fff" opacity="0.02"/>
  <rect x="0" y="136" width="480" height="1" fill="#fff" opacity="0.02"/>
  <rect x="0" y="144" width="480" height="1" fill="#fff" opacity="0.02"/>
  <rect x="0" y="152" width="480" height="1" fill="#fff" opacity="0.02"/>
  <rect x="0" y="160" width="480" height="1" fill="#fff" opacity="0.02"/>
  <rect x="0" y="168" width="480" height="1" fill="#fff" opacity="0.02"/>
  <rect x="0" y="176" width="480" height="1" fill="#fff" opacity="0.02"/>
  <rect x="0" y="184" width="480" height="1" fill="#fff" opacity="0.02"/>
  <rect x="0" y="192" width="480" height="1" fill="#fff" opacity="0.02"/>
  <rect x="0" y="200" width="480" height="1" fill="#fff" opacity="0.02"/>
  <rect x="0" y="208" width="480" height="1" fill="#fff" opacity="0.02"/>
  <rect x="0" y="216" width="480" height="1" fill="#fff" opacity="0.02"/>
  <rect x="0" y="224" width="480" height="1" fill="#fff" opacity="0.02"/>
  <rect x="0" y="232" width="480" height="1" fill="#fff" opacity="0.02"/>
  <rect x="0" y="240" width="480" height="1" fill="#fff" opacity="0.02"/>
  <rect x="0" y="248" width="480" height="1" fill="#fff" opacity="0.02"/>
  <rect x="0" y="256" width="480" height="1" fill="#fff" opacity="0.02"/>
  <rect x="0" y="264" width="480" height="1" fill="#fff" opacity="0.02"/>
  <rect x="0" y="272" width="480" height="1" fill="#fff" opacity="0.02"/>
  <rect x="0" y="280" width="480" height="1" fill="#fff" opacity="0.02"/>
  <rect x="0" y="288" width="480" height="1" fill="#fff" opacity="0.02"/>
  <rect x="0" y="296" width="480" height="1" fill="#fff" opacity="0.02"/>
  <rect x="0" y="304" width="480" height="1" fill="#fff" opacity="0.02"/>
  <rect x="0" y="312" width="480" height="1" fill="#fff" opacity="0.02"/>
</svg>
