<svg xmlns="http://www.w3.org/2000/svg" viewBox="0 0 128 48" width="128" height="48">
  <defs>
    <linearGradient id="btnPGrad" x1="0" y1="0" x2="0" y2="1">
      <stop offset="0%" stop-color="#122a3e" stop-opacity="1"/>
      <stop offset="100%" stop-color="#0a1a28" stop-opacity="0.98"/>
    </linearGradient>
    <linearGradient id="btnPTop" x1="0" y1="0" x2="1" y2="0">
      <stop offset="0%" stop-color="#ff00dd" stop-opacity="0"/>
      <stop offset="30%" stop-color="#ff00dd" stop-opacity="0.7"/>
      <stop offset="70%" stop-color="#00e5ff" stop-opacity="0.7"/>
      <stop offset="100%" stop-color="#00e5ff" stop-opacity="0"/>
    </linearGradient>
  </defs>
  <rect x="4" y="4" width="120" height="40" rx="5" ry="5" fill="url(#btnPGrad)"/>
  <rect x="4" y="4" width="120" height="40" rx="5" ry="5" fill="#00e5ff" opacity="0.10"/>
  <line x1="6" y1="4" x2="122" y2="4" stroke="url(#btnPTop)" stroke-width="2.5"/>
  <rect x="4" y="4" width="120" height="40" rx="5" ry="5" fill="none" stroke="#ff00dd" stroke-width="4" opacity="0.12"/>
  <rect x="4" y="4" width="120" height="40" rx="5" ry="5" fill="none" stroke="#00e5ff" stroke-width="2.5" opacity="0.40"/>
  <rect x="4" y="4" width="120" height="40" rx="5" ry="5" fill="none" stroke="#33ffee" stroke-width="1.5" opacity="0.60"/>
  <rect x="4" y="4" width="120" height="40" rx="5" ry="5" fill="none" stroke="#ffffff" stroke-width="0.75" opacity="1"/>
  <path d="M8,16 L8,8 L16,8" fill="none" stroke="#ff00dd" stroke-width="2" opacity="0.7" stroke-linecap="round"/>
  <path d="M112,40 L120,40 L120,32" fill="none" stroke="#00e5ff" stroke-width="2" opacity="0.7" stroke-linecap="round"/>
</svg>
