<svg xmlns="http://www.w3.org/2000/svg" viewBox="0 0 512 512" width="512" height="512">
  <defs>
    <linearGradient id="panelGrad" x1="0" y1="0" x2="0" y2="1">
      <stop offset="0%" stop-color="#0c1e36" stop-opacity="0.98"/>
      <stop offset="100%" stop-color="#06101a" stop-opacity="0.95"/>
    </linearGradient>
    <linearGradient id="topEdge" x1="0" y1="0" x2="1" y2="0">
      <stop offset="0%" stop-color="#00e5ff" stop-opacity="0"/>
      <stop offset="20%" stop-color="#00e5ff" stop-opacity="0.8"/>
      <stop offset="80%" stop-color="#00e5ff" stop-opacity="0.8"/>
      <stop offset="100%" stop-color="#00e5ff" stop-opacity="0"/>
    </linearGradient>
    <linearGradient id="botEdge" x1="0" y1="0" x2="1" y2="0">
      <stop offset="0%" stop-color="#ff00dd" stop-opacity="0"/>
      <stop offset="20%" stop-color="#ff00dd" stop-opacity="0.4"/>
      <stop offset="80%" stop-color="#ff00dd" stop-opacity="0.4"/>
      <stop offset="100%" stop-color="#ff00dd" stop-opacity="0"/>
    </linearGradient>
  </defs>
  <rect x="8" y="8" width="496" height="496" rx="6" ry="6" fill="url(#panelGrad)"/>
  <line x1="24" y1="24" x2="60" y2="24" stroke="#00e5ff" stroke-width="0.5" opacity="0.12"/>
  <line x1="60" y1="24" x2="60" y2="50" stroke="#00e5ff" stroke-width="0.5" opacity="0.08"/>
  <line x1="452" y1="488" x2="488" y2="488" stroke="#ff00dd" stroke-width="0.5" opacity="0.10"/>
  <line x1="452" y1="462" x2="452" y2="488" stroke="#ff00dd" stroke-width="0.5" opacity="0.08"/>
  <circle cx="60" cy="24" r="1.5" fill="#00e5ff" opacity="0.15"/>
  <circle cx="452" cy="488" r="1.5" fill="#ff00dd" opacity="0.12"/>
  <line x1="8" y1="128" x2="504" y2="128" stroke="#00e5ff" stroke-width="0.3" opacity="0.04"/>
  <line x1="8" y1="256" x2="504" y2="256" stroke="#00e5ff" stroke-width="0.3" opacity="0.04"/>
  <line x1="8" y1="384" x2="504" y2="384" stroke="#00e5ff" stroke-width="0.3" opacity="0.04"/>
  <rect x="8" y="8" width="496" height="496" rx="6" ry="6" fill="none" stroke="#00e5ff" stroke-width="6" opacity="0.08"/>
  <rect x="8" y="8" width="496" height="496" rx="6" ry="6" fill="none" stroke="#00e5ff" stroke-width="3" opacity="0.20"/>
  <rect x="8" y="8" width="496" height="496" rx="6" ry="6" fill="none" stroke="#33ffee" stroke-width="1.5" opacity="0.45"/>
  <rect x="8" y="8" width="496" height="496" rx="6" ry="6" fill="none" stroke="#aaffff" stroke-width="0.75" opacity="0.80"/>
  <line x1="14" y1="8" x2="498" y2="8" stroke="url(#topEdge)" stroke-width="1.5"/>
  <line x1="14" y1="504" x2="498" y2="504" stroke="url(#botEdge)" stroke-width="1"/>
  <path d="M14,28 L14,14 L28,14" fill="none" stroke="#00e5ff" stroke-width="2" opacity="0.6" stroke-linecap="round"/>
  <path d="M484,14 L498,14 L498,28" fill="none" stroke="#00e5ff" stroke-width="2" opacity="0.6" stroke-linecap="round"/>
  <path d="M14,484 L14,498 L28,498" fill="none" stroke="#ff00dd" stroke-width="1.5" opacity="0.4" stroke-linecap="round"/>
  <path d="M484,498 L498,498 L498,484" fill="none" stroke="#ff00dd" stroke-width="1.5" opacity="0.4" stroke-linecap="round"/>
</svg>
